<svg id="Layer_1" data-name="Layer 1" xmlns="http://www.w3.org/2000/svg" viewBox="0 0 847.18 792"><path d="M190.64,766c4.64-8.15,9.5-16.18,13.88-24.47,8-15.28,16.22-30.61,20-47.61,2.84-12.65-1.23-24.31-7.37-35.31-.3-.53-.69-1.27-1.17-1.4-7.28-2-14.55-4-21.89-5.73-14.38-3.35-29-5.85-43.14-10a69.12,69.12,0,0,1-21.55-11.11,426.71,426.71,0,0,1-36.77-30.7,143.52,143.52,0,0,1-30.86-41.57c-8.85-18.19-14.21-37.52-20.42-56.58-2.16-6.63-2.27-13.92-3.43-20.89-1.78-10.69-3.74-21.34-5.45-32-.75-4.7-1-9.47-1.58-14.19C30,427.17,28.68,420,28,412.82c-.92-9.53-1.48-19.09-2-28.66-.47-8.25-1.23-16.55-.92-24.79.65-17-1.86-34.25,4.19-51.05,2.73-7.6,2.08-16.35,4.27-24.21,3.91-14,8.51-27.86,13.44-41.56,2.17-6,6.66-11.25,8.68-17.31,3.2-9.63,9.74-17,15.52-24.76,6.75-9.1,13.86-18.1,21.89-26,9.54-9.44,19.69-18.3,32.46-23.73,14.32-6.08,28.22-13.16,42.37-19.65,13-6,26.07-12,39.32-17.48,4-1.66,8.83-1.34,13.18-2.33,22.68-5.16,45.18-11.28,68-15.4,16.31-2.93,33.09-3.33,49.67-4.67,11.2-.91,22.42-1.94,33.64-2.1,12.47-.19,25,.43,37.44.91,12,.46,23.94,1,35.88,1.87,11.26.78,22.48,2,33.72,2.94,3.87.31,7.78,0,11.65.27,7.85.52,15.75.84,23.53,2,18.19,2.6,36.41,5.17,54.46,8.57,26.55,5,53,10.74,79.43,16.17a9.61,9.61,0,0,1,2.86.79c13,7.39,26,14.77,39,22.28,9.19,5.33,18.36,10.71,27.4,16.29,26.08,16.09,46.21,38.07,61.57,64.31,6,10.26,12,21.13,14.8,32.51,6.14,25.1,15.67,49.4,17.73,75.54,1.65,20.86,6.19,41.61,6.43,62.44.32,28.54-3.13,56.93-13.44,84.06-3.66,9.61-5.59,19.89-9.42,29.41-8.32,20.67-16,41.76-30.69,59.17-4,4.69-6.88,10.23-10.65,15.09-5.92,7.64-11.83,15.33-18.33,22.47-9.58,10.51-19.19,21.38-32.3,27.54-15,7-30.22,14-46,19.13a394.35,394.35,0,0,1-52.9,13.28,307.38,307.38,0,0,1-49.1,4.72c-51.63.8-103.27.81-154.9.93-19.49,0-39-.37-58.47-.68-11-.18-22-.5-32.95-.9-4.61-.17-6.82,1.76-9,6-4.23,8.43-9.49,16.38-14.74,24.24a70.27,70.27,0,0,1-9.74,11.36c-2.6,2.51-6,4.23-9,6.29-.4.27-1.15.45-1.19.75-1.34,9.06-9.89,11.18-15.66,15.64a308.58,308.58,0,0,1-31.68,21.77c-8,4.72-17,7.68-25.6,11.42ZM688,568.13a10.06,10.06,0,0,1,2.17-3.43c5.16-4.38,10.92-7.72,15.43-13.26,9.17-11.26,19.12-22,24.64-35.55C735.35,503.27,739,490,743,477c2.92-9.38,5.58-18.85,8.2-28.33s5.62-18.73,7.28-28.29a190.94,190.94,0,0,0,3.1-31.88c0-12.35-1.61-24.69-2.48-37-.73-10.32-.74-20.75-2.27-31-1.58-10.59-3.15-21.59-7.29-31.31C738.82,264,721.34,243.25,702,224.25a150.73,150.73,0,0,0-24-19.15c-13.68-8.8-27.84-16.91-42.15-24.64-29.57-16-62.06-23.23-94.76-28.17-28-4.23-56.57-5.92-84.95-7.23-37.09-1.72-74.27-1.65-111.39-3-16.41-.58-32.08,3.31-47.92,6-22.25,3.81-44.8,6.72-65.69,16.23-5.13,2.33-10.28,5-15.71,6.2-11.9,2.54-22.24,8-32.85,13.73-17.33,9.41-30,24.11-44.54,36.54-7.34,6.25-12.92,14.6-19.17,22.1-2.69,3.22-5.6,6.43-7.47,10.12-3.1,6.09-5.44,12.56-8.11,18.87q-8.71,20.61-17.42,41.24c-1.37,3.24-3.12,6.42-3.84,9.82-1.35,6.37-2,12.88-3.11,19.32a41.18,41.18,0,0,1-1.49,5.14c-1.17,3.78-3.29,7.56-3.34,11.36-.16,11.26.37,22.53.89,33.79a121.66,121.66,0,0,0,1.74,16.72c2.16,11.62,4.7,23.18,7.21,34.74,1.27,5.89,2.26,11.93,4.33,17.55,3.65,10,6,20.41,11.33,29.75,2.85,5,5,10.32,8,15.24,5.17,8.7,10.66,17.22,16,25.8,2.19,3.49,3.77,7.77,6.8,10.27,9.66,7.94,16,19.79,28.45,24.4,5.59,2.08,8.51,8,14.88,9.35,4,.86,7.3,4.41,11,6.63,5,3,9.7,7,15.1,8.51,12.51,3.54,25.37,5.9,38.09,8.67,13.33,2.91,26.42,6.89,40.29,7,14.06.15,28.1,1.32,42.16,1.56,12.42.21,24.85-.51,37.27-.33,12.95.18,25.94,1.91,38.82,1.25,23.33-1.19,46.57-4.1,69.89-5.44,17.94-1,35.95-.67,53.92-1.09,12.29-.29,24.6-.49,36.84-1.42,8.42-.63,16.72-2.61,25.11-3.65,7.92-1,16-1.13,23.82-2.37,8.4-1.31,16.71-3.28,25-5.32,7.58-1.87,15.09-4.1,22.57-6.39a112.73,112.73,0,0,0,15.2-5.37C675,575.78,680.75,572.15,688,568.13Z"/></svg>