<svg id="Layer_1" data-name="Layer 1" xmlns="http://www.w3.org/2000/svg" viewBox="0 0 612 792"><path d="M495.39,720.16c-5.48-6-10.83-11.88-16.13-17.77-19.16-21.32-38.38-42.58-57.38-64-3.24-3.66-6.36-5.06-11.4-4.81-16.32.81-32.68.93-49,1.17-27,.39-53.93.52-80.89,1-32.53.63-65.06,1.59-97.59,2.33-10.47.24-21,.13-31.43.39-2.73.07-3.36-1.12-3.46-3.41-.23-5-.57-10-.83-15.06-.9-17.87-1.7-35.73-2.69-53.59-.95-17-2.15-34-3.12-51-.73-12.7-1.19-25.41-1.9-38.11-1-17.15-2.11-34.29-3.1-51.45-.71-12.13-1.24-24.28-1.92-36.42-1-17.85-2.11-35.7-3.1-53.55q-.63-11.31-1-22.64c-.64-24-1.48-48.1-1.77-72.15C128,180.34,127.55,119.61,127,58.89c0-1.38,0-2.76,0-4.39,2.23-.24,4.15-.56,6.07-.64,21.9-.9,43.79-1.73,65.69-2.66,18.54-.79,37.08-1.68,55.63-2.53l72.76-3.34c24.54-1.12,49.08-2.2,73.61-3.38,20.21-1,40.42-2.07,60.63-3.1a8.8,8.8,0,0,1,1.47.21c.34,3.84.83,7.68,1,11.55C464.54,66,465,81.34,465.75,96.7c1,20,2.12,39.91,3.11,59.87.71,14.11,1.23,28.22,1.9,42.32,1,21.36,2.11,42.71,3.14,64.07.65,13.68,1.22,27.37,1.87,41.05,1,21.92,2.14,43.84,3.17,65.75.66,14,1.21,27.94,1.87,41.9,1,21.5,2.12,43,3.15,64.49.65,13.54,1.22,27.09,1.87,40.64q1.57,33.29,3.2,66.59c.64,13.54,1.2,27.09,1.84,40.63,1,21.78,2.12,43.55,3.15,65.33.4,8.52.7,17,1.05,25.56C495.14,716.52,495.26,718.14,495.39,720.16ZM165.81,88.2c0,1.45,0,2.4,0,3.35.46,25.18,1,50.36,1.38,75.54.61,39.64,1,79.28,1.77,118.91.46,22.64,1.43,45.28,2.4,67.91.93,21.78,2.09,43.55,3.3,65.32,1.34,24.26,2.61,48.53,4.39,72.76.92,12.63,2.82,25.19,4.32,37.77q2.37,19.9,4.82,39.81c.73,6,1.54,12,2.33,18.18,2.13,0,3.8.11,5.45,0,16.67-1.32,33.33-2.75,50-4q19.17-1.46,38.38-2.62c19.9-1.18,39.8-2.23,59.71-3.29,5-.27,10.05-.12,15-.56,15.75-1.39,31.49-3,47.23-4.47,9.36-.89,18.72-1.68,28.07-2.65,3.77-.39,7.51-1.16,11.51-1.79-.34-7.28-.71-14-1-20.68q-1.79-47.16-3.51-94.33-1.18-31.86-2.39-63.72-1.74-47-3.47-93.92-1.19-32.07-2.4-64.14-1.74-46.75-3.45-93.5c-.67-19.29-1.18-38.58-1.82-57.87-.09-2.6-.49-5.18-.75-7.83-3.71,0-7.05-.17-10.37,0-17,1-34,2.15-50.93,3.22-9.89.62-19.78,1.17-29.67,1.82-16.14,1-32.28,2.18-48.43,3.19-10.57.67-21.17,1.13-31.75,1.81-15.58,1-31.16,2.19-46.74,3.2C195,86.52,180.63,87.32,165.81,88.2Z"/></svg>