<svg id="Layer_1" data-name="Layer 1" xmlns="http://www.w3.org/2000/svg" viewBox="0 0 612 792"><path d="M291.78,245.33q-10.41,12-20.83,24.1-25.29,29.13-50.65,58.19a7,7,0,0,1-4.24,2.15c-13.37,1.19-26.76,2.17-40.14,3.24-4.6.37-9.19.82-15.14,1.36L327.67,98.89c42.78,71,85.21,141.47,128,212.58-8,.88-15.33,1.71-22.63,2.48-9.22,1-18.46,1.74-27.66,2.85-7.42.9-7.77.63-10.74-6.12-1.39-3.15-3.94-5.77-5.84-8.72q-20.54-31.75-41-63.56c-.07-.11-.28-.13-1-.45-.22,3.57-.61,6.93-.59,10.29.18,23.16,0,46.32.8,69.46.67,20.77,2.4,41.51,3.56,62.27.85,15.28,1.66,30.58,2.28,45.87q2,49.17,3.73,98.33c.4,10.65.8,21.3,1.13,32,1.07,35.12,2,70.24,3.18,105.36.76,22.62,1.83,45.24,2.73,67.87.12,3,0,5.93,0,9.38l-43.11,2.87c-.5-4.24-1.11-8.27-1.44-12.33-1.42-17.89-2.66-35.79-4.16-53.66-1.82-21.51-4.17-43-5.69-64.52-1.75-24.87-3-49.78-4.21-74.69-1.4-29.26-2.53-58.53-3.73-87.81-.8-19.79-1.49-39.59-2.26-59.39q-1.87-47.91-3.77-95.81c-.52-13.81-.83-27.63-1.27-41.44-.06-1.91-.31-3.81-.48-5.72Z"/></svg>