<svg id="Layer_1" data-name="Layer 1" xmlns="http://www.w3.org/2000/svg" viewBox="0 0 300 300"><defs><style>.cls-1{fill:#fff;}.cls-2,.cls-3{fill:#ed00d1;}.cls-3{stroke:#ed00d1;stroke-width:0.25px;}</style></defs><path class="cls-1" d="M48.79,294c-11.1,0-21.68-5.47-29.78-15.41-8.39-10.3-13-23.95-13-38.45V87.58c0-14.5,4.62-28.15,13-38.45,8.1-9.94,18.68-15.41,29.78-15.41h174.7c11.1,0,21.68,5.47,29.78,15.41,8.39,10.3,13,23.95,13,38.45V240.14c0,14.5-4.62,28.15-13,38.45-8.1,9.94-18.68,15.41-29.78,15.41Z"/><path class="cls-2" d="M223.49,39.72c19.94,0,36.79,21.92,36.79,47.86V240.14c0,25.94-16.85,47.86-36.79,47.86H48.79C28.85,288,12,266.08,12,240.14V87.58c0-25.94,16.85-47.86,36.79-47.86h174.7m0-12H48.79C22,27.72,0,54.76,0,87.58V240.14C0,273,22,300,48.79,300h174.7c26.75,0,48.79-27,48.79-59.86V87.58c0-32.82-22-59.86-48.79-59.86Z"/><path class="cls-2" d="M282.73,56.34c.21,1.36-.67,2.34-1.25,3.43L265,90.3l-5.92,11-19.62,36.34-3.5,6.47-3.38,6.11-3.3,6.11c-1.11,2-2.21,4.07-3.38,6.11q-4.3,8-8.54,16c-.85,1.62-1.73,2.45-2.74,2.52a5.18,5.18,0,0,1-2.75-.93q-12.75-7.5-25.61-14.81l-9.13-5.11-.24-.12c-2.72-1.63-2.77-3.08-1.3-5.79l3.39-6.11q10.35-18.94,20.64-37.94L203,104l3.39-6.11,3.39-6.11q9.87-18.32,19.74-36.45l3.39-6.11L240.07,36c.93-1.71,1.73-2.53,2.89-2.61a5.28,5.28,0,0,1,2.91,1c11.42,6.7,22.94,13.21,34.41,19.83A6,6,0,0,1,282.73,56.34Z"/><path class="cls-2" d="M298.4,29.91c-2.95,5.55-6,11.06-8.85,16.63-.69,1.32-1.44,2.06-2.39,2.13a3.93,3.93,0,0,1-2.22-.69Q267,37.6,249.05,27.37a2.72,2.72,0,0,1-1.12-.74,2.79,2.79,0,0,1-.66-1.19,2.89,2.89,0,0,1,0-1.37,2.8,2.8,0,0,1,.6-1.22c3.14-5.56,6.06-11.27,9.34-16.76a11.41,11.41,0,0,1,3.7-4.16A11,11,0,0,1,266.06.06a12.65,12.65,0,0,1,7.09,1.78c6.83,3.79,13.53,7.74,20.32,11.61a11.79,11.79,0,0,1,3.71,2.95A12.05,12.05,0,0,1,298.44,30Z"/><path class="cls-2" d="M206.47,191l-32.15,20.52c-.66.44-1.35.82-2.12,1.26l-.82.06c-1.5-.17-2-1.31-1.92-3.15,0-2.8,0-5.62,0-8.42,0-9.57-.06-19.18-.1-28.77,0-4.64.09-6.67,1.43-6.76,1-.08,2.81.88,5.75,2.59,9.94,5.67,19.78,11.42,29.66,17.13C210.09,187.62,210.12,188.6,206.47,191Z"/><path class="cls-3" d="M172.31,134h0l0,0c2.61-3.47,4-6.93,4-10.35a17,17,0,0,0-3.48-10,28.14,28.14,0,0,0-8.87-8.61,49.61,49.61,0,0,0-12.52-5.88,49,49,0,0,0-15.1-2.31c-1.23,0-3.69.17-7.29.5a97.24,97.24,0,0,0-11.31,1.26h0a44.3,44.3,0,0,0-10.52,3.09c-3.15,1.39-5.39,3.43-5.39,6.37a5.44,5.44,0,0,0,2.71,4.78h0l.13.06a10.3,10.3,0,0,0,4.66,1.16,43.69,43.69,0,0,0,10.81-1.79c4.28-1.11,10.24-1.68,17.95-1.68a37.29,37.29,0,0,1,9.52,1.18h.07a26.62,26.62,0,0,1,7.74,2.81h0l.08,0a14.43,14.43,0,0,1,4.94,3.79h0l.06.06a6,6,0,0,1,1.83,3.92,10.88,10.88,0,0,1-2.22,5.84h0v0a51.56,51.56,0,0,1-5.78,7.22h0a93,93,0,0,1-8,7.56h0l0,0q-4.43,3.93-8.83,7.37-6,4.45-10.43,7.94a66.25,66.25,0,0,0-7.87,7.11h0a23.54,23.54,0,0,0-4.77,7.68,27.24,27.24,0,0,0-1.59,10,24.23,24.23,0,0,0,.53,4.77h0l0,.14a42.19,42.19,0,0,0,1.81,4.89A16.91,16.91,0,0,0,117.6,197h0l.1.1A6,6,0,0,0,122,199a5.9,5.9,0,0,0,4.32-1.7,17.34,17.34,0,0,0,2.74-3.81l.44-.8-.48-.77a15.83,15.83,0,0,1-1.78-4.45,38,38,0,0,1-.47-5.64c0-2.16,1-4.72,3.39-7.72a79.22,79.22,0,0,1,9-9.48h0l0,0q5.42-5.16,11.81-10.33t12-10.23h0l0,0A97.88,97.88,0,0,0,172.31,134Zm-48.1,92.25,0,.13v.12h0c0,2.21,1.47,4.09,3.57,5.67s4.14,2.81,6.16,2.81A12.44,12.44,0,0,0,140.1,235a7.1,7.1,0,0,0,2.79-2.36,6.14,6.14,0,0,0,1-3.46,3.74,3.74,0,0,0-.59-1.91,8.63,8.63,0,0,0-1.31-1.62,23.13,23.13,0,0,0-3.68-3.41,28.51,28.51,0,0,0-4.09-2.57,12,12,0,0,0-1.6-1,3.83,3.83,0,0,0-1.68-.48,4.86,4.86,0,0,0-3.88,1.75,11.32,11.32,0,0,0-2,2.83l0,.09,0,.11A20.36,20.36,0,0,0,124.21,226.21Z"/></svg>