<?xml version="1.0" encoding="UTF-8"?>
<svg width="500px" height="500px" viewBox="0 0 500 500" version="1.1" xmlns="http://www.w3.org/2000/svg" xmlns:xlink="http://www.w3.org/1999/xlink">
    <!-- Generator: Sketch 55.1 (78136) - https://sketchapp.com -->
    <title>social-media-logos</title>
    <desc>Created with Sketch.</desc>
    <g id="social-media-logos" stroke="none" stroke-width="1" fill="none" fill-rule="evenodd">
        <rect fill="#FFFFFF" x="0" y="0" width="500" height="500"></rect>
        <g id="social-media" transform="translate(73.000000, 73.000000)">
            <rect fill="#FFFFFF" x="0" y="0" width="354" height="354"></rect>
            <rect id="Background" fill="#FFFFFF" fill-rule="nonzero" x="0" y="0" width="354" height="354"></rect>
            <g id="social/labs" transform="translate(17.700000, 145.848000)" fill="#F05129" fill-rule="evenodd" stroke-width="1">
                <g id="Group">
                    <polygon id="Fill-1" points="0 1.41700405 0 172.874494 47.2394382 172.874494 47.4659401 145.68537 29.124818 145.68537 28.8927917 1.41700405"></polygon>
                    <path d="M66.5622328,1.41700405 L52.4250681,172.874494 L77.2776984,172.874494 L78.8649713,141.999709 L88.6742084,141.999709 L90.2669736,172.874494 L118.310627,172.874494 L103.036557,1.41700405 L66.5622328,1.41700405 Z M83.8904203,51.6572354 L87.3011349,116.876818 L80.4687212,116.876818 L83.8904203,51.6572354 Z" id="Fill-2"></path>
                    <path d="M122.727787,1.64760161 L166.880689,1.64760161 C178.610103,1.64760161 186.200701,7.86606568 186.200701,23.306734 L186.200701,62.0277772 C186.200701,73.5485923 178.610103,78.8453912 174.925615,79.9946966 C179.757003,81.3771944 188.500042,86.2187128 188.500042,100.054795 L188.500042,147.059721 C188.500042,164.121632 180.903904,173.105091 166.647985,173.105091 L122.727787,173.105091 L122.727787,1.64760161 Z M151.932197,23.306734 L151.932197,72.1660945 L154.004375,72.1660945 C156.530881,72.1660945 157.450618,70.7835967 157.450618,67.7854087 L157.450618,27.4542275 C157.450618,24.4560394 156.990749,23.306734 154.004375,23.306734 L151.932197,23.306734 Z M151.932197,93.3699465 L151.932197,150.746382 L154.691408,150.746382 C157.683322,150.746382 158.14319,149.363884 158.14319,146.371248 L158.14319,97.9782726 C158.14319,94.7524443 157.450618,93.3699465 154.691408,93.3699465 L151.932197,93.3699465 Z" id="Fill-3"></path>
                    <path d="M194.292346,147.888392 L194.292346,103.049686 L222.739539,103.049686 L222.739539,145.816527 C222.739539,148.58086 223.430407,150.420056 225.72409,150.420056 C228.249904,150.420056 228.935245,148.58086 228.935245,145.589397 L228.935245,112.245665 C228.935245,106.728077 228.249904,104.429082 223.883616,100.518022 L208.977442,87.6436512 C199.111843,79.3672702 194.983214,69.9386221 194.983214,57.0587119 L194.983214,26.7119817 C194.983214,10.8406086 203.467077,0.0381032837 224.115748,0.0381032837 L230.770192,0.0381032837 C251.645468,0.0381032837 258.299911,10.613479 258.299911,24.4074472 L258.299911,62.12204 L230.311455,62.12204 L230.311455,25.7868441 C230.311455,23.2607198 229.393982,22.1084525 227.332431,22.1084525 C225.265353,22.1084525 224.34788,23.2607198 224.34788,25.7868441 L224.34788,54.9923865 C224.34788,59.590376 225.265353,61.4295717 228.935245,64.6481643 L243.620342,77.5280745 C255.31536,87.1838523 259.449516,95.0004343 259.449516,109.94667 L259.449516,143.977331 C259.449516,162.142159 250.269258,174.329601 229.393982,174.329601 L222.739539,174.329601 C203.699208,174.329601 194.292346,165.366292 194.292346,147.888392" id="Fill-5"></path>
                </g>
            </g>
            <g id="Library-of-Congress" stroke-width="1" fill-rule="evenodd" transform="translate(17.700000, 17.700000)" fill="#000000">
                <path d="M22.656,111.316457 C22.656,118.526866 18.5905408,122.484 12.1907932,122.484 L10.5545576,122.484 C3.74714715,122.484 0,118.371684 0,111.316457 L0,75.1147736 C0,68.0595465 3.21104264,63.72 10.5545576,63.72 L12.1070269,63.72 C19.4561262,63.72 22.656,68.2202705 22.656,75.1147736 L22.656,111.316457 Z M12.5035208,74.0285014 C12.5035208,72.9422292 12.1907932,72.3215022 11.3307922,72.3215022 C10.4652068,72.3215022 10.2306611,72.8701805 10.2306611,74.0285014 L10.2306611,112.169956 C10.2306611,113.178638 10.5545576,113.721774 11.3307922,113.721774 C12.1070269,113.721774 12.5035208,113.178638 12.5035208,112.169956 L12.5035208,74.0285014 Z" id="Fill-1"></path>
                <polygon id="Fill-3" points="24.78 63.72 41.064 63.72 41.064 72.5101268 34.2977646 72.5101268 34.2977646 86.5412635 39.9106644 86.5412635 39.9930455 95.5573435 34.2977646 95.5573435 34.2977646 121.068 24.78 121.068"></polygon>
                <path d="M63.9103304,112.411914 L63.9103304,95.5881479 L73.632,95.5881479 L73.632,112.64473 C73.632,117.838756 70.7295073,122.484 63.7590421,122.484 L62.1845239,122.484 C54.7433842,122.484 51.684,118.4596 51.684,111.713464 L51.684,74.1856572 C51.7624457,68.1379708 54.5808895,63.72 62.1172847,63.72 L63.7590421,63.72 C70.6510615,63.72 73.632,67.4450644 73.632,73.0991801 L73.632,88.3763788 L63.9103304,88.3763788 L63.9103304,73.4151454 C63.9103304,72.4838793 63.7590421,71.9350974 62.8905356,71.9350974 C62.1172847,71.9350974 61.8763441,72.4007305 61.8763441,73.4151454 L61.8763441,112.411914 C61.8763441,113.420785 62.1172847,114.041629 62.8905356,114.041629 C63.7590421,114.041629 63.9103304,113.34318 63.9103304,112.411914" id="Fill-5"></path>
                <path d="M98.412,111.316457 C98.412,118.526866 94.3419596,122.484 87.9437891,122.484 L86.3079566,122.484 C79.5133898,122.484 75.756,118.371684 75.756,111.316457 L75.756,75.1147736 C75.756,68.0595465 78.9662514,63.72 86.3079566,63.72 L87.8600434,63.72 C95.2073317,63.72 98.412,68.2202705 98.412,75.1147736 L98.412,111.316457 Z M88.2620227,74.0285014 C88.2620227,72.9422292 87.9437891,72.3215022 87.089583,72.3215022 C86.2242109,72.3215022 85.98414,72.8701805 85.98414,74.0285014 L85.98414,112.169956 C85.98414,113.178638 86.3079566,113.721774 87.089583,113.721774 C87.8600434,113.721774 88.2620227,113.178638 88.2620227,112.169956 L88.2620227,74.0285014 Z" id="Fill-7"></path>
                <polygon id="Fill-9" points="111.240672 63.72 115.071798 94.7913073 114.988027 63.72 123.192 63.72 123.192 121.068 114.049792 121.068 109.442388 86.6900619 109.514989 121.068 101.244 121.068 101.244 63.72"></polygon>
                <path d="M133.621596,122.484 C128.481562,122.484 126.024,118.066863 126.024,112.945865 L126.024,73.7181379 C126.024,68.2978614 128.635159,63.72 136.309554,63.72 L137.615133,63.72 C145.432154,63.72 147.588006,68.2978614 147.588006,72.9477714 L147.588006,85.8888201 L138.224038,85.8888201 L138.224038,73.3357257 C138.224038,72.4046353 137.993642,71.8614992 137.072056,71.8614992 C136.232755,71.8614992 136.002358,72.4046353 136.002358,73.3357257 L136.002358,112.713093 C136.002358,113.871413 136.463151,114.497683 137.384737,114.497683 C138.224038,114.497683 138.76163,113.871413 138.76163,112.713093 L138.76163,95.5045459 L136.770346,95.5045459 L136.770346,87.9837736 L147.972,87.9837736 L147.972,121.935322 L141.449588,121.935322 C141.285019,121.087364 140.758398,118.997953 140.451203,118.299635 C139.145624,120.305913 137.072056,122.484 133.851992,122.484 L133.621596,122.484 Z" id="Fill-11"></path>
                <path d="M160.620079,121.068 L150.804,121.068 L150.804,63.72 L166.031081,63.72 C169.435757,63.72 172.138495,65.8695166 172.138495,70.5764067 L172.138495,84.0632454 C172.138495,87.921352 170.286926,89.5417568 168.661967,90.2307045 C170.286926,90.9251637 172.287726,92.6227306 172.287726,95.5493801 L172.287726,118.295675 C172.287726,119.370433 172.448011,120.296379 172.752,120.836514 L172.752,121.068 L163.085152,121.068 C162.703784,120.605027 162.477175,119.679082 162.477175,118.681485 L162.477175,97.1697849 C162.477175,96.3981636 162.322417,95.8635402 161.393869,95.8635402 L160.620079,95.8635402 L160.620079,121.068 Z M160.620079,87.6898656 L161.393869,87.6898656 C162.162131,87.6898656 162.477175,87.2268928 162.477175,86.3781094 L162.477175,72.2684621 C162.477175,71.3480281 162.322417,70.9622174 161.46572,70.9622174 L160.620079,70.9622174 L160.620079,87.6898656 Z" id="Fill-13"></path>
                <polygon id="Fill-15" points="192.340855 63.72 192.340855 72.5101268 185.292115 72.5101268 185.292115 86.4585977 191.249112 86.4585977 191.249112 95.5573435 185.292115 95.5573435 185.292115 112.129075 192.576 112.129075 192.576 121.068 175.584 121.068 175.584 63.72"></polygon>
                <path d="M194.7,113.571294 L194.7,98.4451896 L204.276003,98.4451896 L204.276003,112.87291 C204.276003,113.804088 204.508082,114.419331 205.287202,114.419331 C206.132631,114.419331 206.36471,113.804088 206.36471,112.789769 L206.36471,101.55466 C206.36471,99.6867606 206.132631,98.9107787 204.668326,97.5971522 L199.645483,93.2571964 C196.319024,90.4692043 194.932079,87.2932213 194.932079,82.9477227 L194.932079,72.7158472 C194.932079,67.3615722 197.788855,63.72 204.74016,63.72 L206.989112,63.72 C214.023302,63.72 216.255677,67.283974 216.255677,71.9343226 L216.255677,84.6493401 L206.828867,84.6493401 L206.828867,72.3999117 C206.828867,71.5518744 206.524955,71.1638834 205.828719,71.1638834 C205.132483,71.1638834 204.823045,71.5518744 204.823045,72.3999117 L204.823045,82.249339 C204.823045,83.8013028 205.132483,84.4165456 206.36471,85.5084629 L211.315719,89.8484188 C215.255529,93.102 216.648,95.7347957 216.648,100.773135 L216.648,112.252125 C216.648,118.371296 213.559145,122.484 206.524955,122.484 L204.276003,122.484 C197.860689,122.484 194.7,119.457671 194.7,113.571294" id="Fill-17"></path>
                <path d="M219.48,113.571294 L219.48,98.4451896 L229.056707,98.4451896 L229.056707,112.87291 C229.056707,113.804088 229.288668,114.419331 230.061874,114.419331 C230.912401,114.419331 231.144362,113.804088 231.144362,112.789769 L231.144362,101.55466 C231.144362,99.6867606 230.912401,98.9107787 229.448832,97.5971522 L224.428517,93.2571964 C221.098209,90.4692043 219.711962,87.2932213 219.711962,82.9477227 L219.711962,72.7158472 C219.711962,67.3615722 222.578346,63.72 229.52063,63.72 L231.76845,63.72 C238.793577,63.72 241.035874,67.283974 241.035874,71.9343226 L241.035874,84.6493401 L231.608286,84.6493401 L231.608286,72.3999117 C231.608286,71.5518744 231.304526,71.1638834 230.608641,71.1638834 C229.912756,71.1638834 229.597951,71.5518744 229.597951,72.3999117 L229.597951,82.249339 C229.597951,83.8013028 229.912756,84.4165456 231.144362,85.5084629 L236.087357,89.8484188 C240.036229,93.102 241.428,95.7347957 241.428,100.773135 L241.428,112.252125 C241.428,118.371296 238.329654,122.484 231.304526,122.484 L229.056707,122.484 C222.644621,122.484 219.48,119.457671 219.48,113.571294" id="Fill-19"></path>
                <polygon id="Fill-21" points="9.91322238 0 9.99194337 48.259403 16.284 48.259403 16.205279 57.348 0 57.348 0 0"></polygon>
                <polygon id="Fill-23" points="18.408 57.348 28.32 57.348 28.32 0 18.408 0"></polygon>
                <path d="M31.152,0 L45.890082,0 C49.796826,0 52.33182,2.00602268 52.33182,7.24703248 L52.33182,20.192492 C52.33182,24.0502279 49.796826,25.8192754 48.573225,26.205049 C50.109585,26.5908226 53.1,28.2882264 53.1,32.9119985 L53.1,48.6350279 C53.1,54.4216318 50.641824,57.348 45.807777,57.348 L31.152,57.348 L31.152,0 Z M40.896912,7.24703248 L40.896912,23.5872996 L41.588274,23.5872996 C42.356454,23.5872996 42.740544,23.1243713 42.740544,22.12136 L42.740544,8.63030636 C42.740544,7.63280607 42.581421,7.24703248 41.588274,7.24703248 L40.896912,7.24703248 Z M40.896912,30.6800227 L40.896912,49.8695034 L41.818728,49.8695034 C42.817362,49.8695034 42.970998,49.4065751 42.970998,48.4090748 L42.970998,32.217606 C42.970998,31.0657963 42.740544,30.6800227 41.818728,30.6800227 L40.896912,30.6800227 Z" id="Fill-25"></path>
                <path d="M65.7480786,57.348 L55.932,57.348 L55.932,0 L71.1590813,0 C74.5637572,0 77.2664951,2.14931001 77.2664951,6.86125889 L77.2664951,20.3468015 C77.2664951,24.2816921 75.4149262,25.8192754 73.7899673,26.5136679 C75.4149262,27.2080603 77.415726,28.8283094 77.415726,31.8318324 L77.415726,54.5704301 C77.415726,55.7277509 77.5760111,56.5709418 77.88,57.1165358 L77.88,57.348 L68.2242065,57.348 C67.8373115,56.8024059 67.5996474,56.0363698 67.5996474,54.9506927 L67.5996474,33.4520815 C67.5996474,32.6033796 67.4504165,32.1404513 66.5218685,32.1404513 L65.7480786,32.1404513 L65.7480786,57.348 Z M65.7480786,23.9675622 L66.5218685,23.9675622 C67.2182795,23.9675622 67.5996474,23.5046339 67.5996474,22.661443 L67.5996474,8.55315164 C67.5996474,7.62729502 67.4504165,7.24152143 66.5992475,7.24152143 L65.7480786,7.24152143 L65.7480786,23.9675622 Z" id="Fill-26"></path>
                <path d="M92.4754498,47.0202898 L89.0955468,47.0202898 L88.5518476,57.348 L80.004,57.348 L84.8692667,0 L97.4135834,0 L102.66,57.348 L93.0247541,57.348 L92.4754498,47.0202898 Z M90.8275369,16.8031955 L89.6560614,38.6159366 L92.0046175,38.6159366 L90.8275369,16.8031955 Z" id="Fill-27"></path>
                <path d="M114.594551,57.348 L104.784,57.348 L104.784,0 L120.005554,0 C123.415757,0 126.112968,2.14931001 126.112968,6.86125889 L126.112968,20.3468015 C126.112968,24.2816921 124.261399,25.8192754 122.63644,26.5136679 C124.261399,27.2080603 126.267726,28.8283094 126.267726,31.8318324 L126.267726,54.5704301 C126.267726,55.7277509 126.428011,56.5709418 126.732,57.1165358 L126.732,57.348 L117.070679,57.348 C116.678257,56.8024059 116.451647,56.0363698 116.451647,54.9506927 L116.451647,33.4520815 C116.451647,32.6033796 116.302417,32.1404513 115.373869,32.1404513 L114.594551,32.1404513 L114.594551,57.348 Z M114.594551,23.9675622 L115.373869,23.9675622 C116.07028,23.9675622 116.451647,23.5046339 116.451647,22.661443 L116.451647,8.55315164 C116.451647,7.62729502 116.302417,7.24152143 115.44572,7.24152143 L114.594551,7.24152143 L114.594551,23.9675622 Z" id="Fill-28"></path>
                <polygon id="Fill-29" points="133.794828 34.7603713 127.44 0 137.210686 0 138.91307 19.8048152 140.615454 0 149.388 0 143.571059 34.7603713 143.571059 57.348 133.794828 57.348"></polygon>
            </g>
        </g>
    </g>
</svg>