<svg xmlns="http://www.w3.org/2000/svg" viewBox="0 0 170.7 421.65"><g id="Layer_2" data-name="Layer 2"><g id="Layer_1-2" data-name="Layer 1"><path d="M0,26.89c1.83-.36,3.59-.71,5.35-1l11.92-2.2c4.37-.81,8.75-1.6,13.12-2.42s9-1.7,13.44-2.56c4.07-.77,8.15-1.56,12.23-2.31C60.52,15.55,65,14.8,69.44,14c4.86-.88,9.71-1.81,14.56-2.71L101.12,8.1l14.57-2.71,17.08-3.17,9.59-1.8C142.9.31,143.43.15,144,0c.84-.17,1.13.23,1.16,1.05.22,5.5.48,11,.7,16.49.1,2.41.11,4.83.22,7.24.27,5.87.59,11.74.86,17.62.2,4.29.33,8.58.53,12.88.28,6,.59,12,.89,17.94.29,5.68.56,11.36.91,17,.36,5.9.83,11.79,1.2,17.69.25,3.91.38,7.83.61,11.74.38,6.25.82,12.48,1.18,18.73.25,4.32.43,8.65.62,13q.66,15.7,1.3,31.4c.1,2.52,0,5.06.08,7.58.13,4.59.35,9.19.45,13.78.18,8.06.35,16.12.44,24.18.11,8.9.21,17.8.16,26.69-.06,13.36-.27,26.71-.39,40.06,0,3.62.57,2.87-3.1,3.71-10.56,2.41-21.13,4.75-31.7,7.12-7.94,1.78-15.89,3.54-23.82,5.38-2.79.64-2.57.85-3.55-1.9C84.6,286.62,76.41,263.82,68.36,241q-6-17.16-11.63-34.46c-3-9.23-5.61-18.56-8.41-27.84-4-13.48-8.14-26.95-12.18-40.43-4.43-14.8-8.88-29.6-13.24-44.42-5.07-17.26-11.61-34-17.37-51C3.85,37.83,2.07,32.9.34,28,.23,27.65.14,27.33,0,26.89Z"/><path d="M159.26,421.62c-3.94-.52-7.88-1.05-11.82-1.55q-5.2-.65-10.4-1.21l-19.5-2.16-11.43-1.24c-3.53-.38-7.07-.77-10.61-1.14-.58-.06-.7-.28-.65-.89q.75-8.65,1.39-17.31c.1-1.32,0-2.64.07-4,.34-5.56.67-11.13,1.08-16.69q.57-7.82,1.28-15.63c.35-3.85.83-7.69,1.19-11.54.35-3.67.66-7.35.93-11,.06-.76.18-1,1.06-.9,5,.66,10,1.25,15,1.84,4.66.54,9.32,1,14,1.58,4.13.5,8.25,1.07,12.37,1.58,3.31.41,6.63.75,9.94,1.15,4.24.51,8.47,1.05,12.71,1.57,1.34.16,2.67.34,4,.45.76.07.93.53.86,1.14q-.83,6.81-1.68,13.62c-.41,3.28-.84,6.55-1.27,9.82-.78,6.1-1.54,12.2-2.36,18.29-.66,4.84-1.38,9.66-2.07,14.49-.5,3.49-1,7-1.48,10.48-.4,2.7-.87,5.4-1.32,8.1C160.39,421.16,160.19,421.79,159.26,421.62Z"/></g></g></svg>