<svg xmlns="http://www.w3.org/2000/svg" viewBox="0 0 232.94 264.88"><g id="Layer_2" data-name="Layer 2"><g id="Layer_1-2" data-name="Layer 1"><path d="M112.86,257.07q-1.41-33-2.83-66l-.21-.14-46,73.94c8.22-31.25,16.37-62.26,24.6-93.56-3.08.61-5.79,1.07-8.47,1.71a94.76,94.76,0,0,1-15.29,2c-5.17.36-10.33.86-15.49,1.28s-10.47.79-15.7,1.21c-6.08.49-12.15,1-18.23,1.52-1.37.11-2.74.18-4.11.28l-.08-.28,57.59-28.68-.06-.21h-2l0-.16.62-.18,0-.23c-1.27,0-2.53,0-3.8,0-4.1.13-8.05-.93-12.05-1.6-7.15-1.19-14.28-2.47-21.42-3.72l-8.44-1.46c.77-.27,1.23-.45,1.71-.59,10.71-3.09,21.43-6.11,32.1-9.3A44.25,44.25,0,0,0,61.53,130c1.55-.73,3.09-1.5,4.8-2.33-2.88-1.14-5.53-2.34-8.27-3.25-6.78-2.23-13.59-4.35-20.39-6.48q-14.19-4.42-28.38-8.81a2.43,2.43,0,0,1-1.09-.58l54.6-9c0-1.15,0-2.2,0-3.25a1.31,1.31,0,0,0-.52-.88C51.05,87.73,40.09,79.6,28.16,73c-4.49-2.49-9.3-4.41-14-6.58L1,60.28a3,3,0,0,1-1-.71Q9.87,61,19.73,62.33c6.55.93,13.09,1.89,19.64,2.82s13.16,1.94,19.76,2.78,13,2.22,19.54,2.5a9.79,9.79,0,0,0-1.21-5.7Q62,33.23,46.63,1.69c-.24-.49-.42-1-.63-1.49l.29-.2c.3.29.61.58.89.89,8.51,9.33,17.12,18.56,25.47,28,4.1,4.65,7.7,9.74,11.5,14.66,7,9,14,18.13,21,27.15.48.62,1.46.86,2.46,1.42,3.57-23,7.09-45.58,10.6-68.18h.26c.22,2.46.43,4.93.65,7.38s.48,5,.74,7.47c.34,3.16.68,6.31,1.08,9.46.38,3,.88,6,1.27,9,.43,3.34.81,6.7,1.21,10q.75,6.39,1.48,12.78t1.46,12.78c.49,4.26,1,8.52,1.51,12.77a11.83,11.83,0,0,0,.84,2.24l47.2-58.81.22.11c-.78,2.4-1.58,4.8-2.34,7.21C169.31,50.82,163.3,64.72,158,78.87c-2.24,6-4.6,11.9-6.9,17.85-.52,1.34-.3,1.66,1.12,1.54a21.19,21.19,0,0,0,7.86-2.08C176.51,88.05,193,80.05,209.48,72a2.4,2.4,0,0,1,1-.31c-.26.32-.5.66-.77,1-6,6.62-12,13.26-18,19.86q-12.88,14.11-25.82,28.19c-2.47,2.69-4.93,5.39-7.47,8a3.24,3.24,0,0,0-.74,3.25,2.89,2.89,0,0,0,2.27,1.79q23.66,5.34,47.3,10.75l25.34,5.78c.1,0,.2.06.32.31L163.5,161.56l42.78,45.36-.17.25-54.37-25.33c1.33,15.68,2.65,31.16,4,46.64l-.21.09-20.16-45.52c-1.83,2.09-1.73,4.75-2.56,7.06-.74,2-1.22,4.18-1.81,6.27-1.15,4.07-2.25,8.16-3.46,12.22q-7.08,24-14.22,47.94c-.06.19-.15.37-.23.56Z"/></g></g></svg>