<svg xmlns="http://www.w3.org/2000/svg" viewBox="0 0 91.78 205.44"><g id="Layer_2" data-name="Layer 2"><g id="Layer_1-2" data-name="Layer 1"><path d="M4.57,0c1,.37,1.83.71,2.67,1S9,1.34,9.8,1.61c1.77.57,3.52,1.2,5.28,1.79,1.41.46,2.87.8,4.24,1.37s2.77,1.38,4.13,2.11c2.63,1.41,5.29,2.76,7.85,4.28,3.31,2,6.54,4.06,9.8,6.09,2.55,1.59,5.11,3.16,7.64,4.78a30.86,30.86,0,0,1,2.7,2,91.79,91.79,0,0,1,7.48,6.26c2.7,2.72,5,5.78,7.55,8.7.84,1,1.74,1.93,2.5,3,1.18,1.64,2.25,3.36,3.41,5,.93,1.33,2,2.58,2.89,3.92,1.23,1.79,2.45,3.6,3.55,5.47a49.66,49.66,0,0,1,2.6,5c.8,1.77,1.48,3.59,2.14,5.42.78,2.14,1.55,4.28,2.2,6.46.44,1.49.64,3.06,1,4.57s.79,2.7,1.16,4.06c.24.9.44,1.8.64,2.7.44,1.92.89,3.83,1.28,5.76s.69,3.64,1,5.47.56,3.73.8,5.6a17,17,0,0,1,.14,2.37c0,2,0,4,0,6-.11,2.76-.14,5.55-.52,8.28a65.57,65.57,0,0,1-1.63,6.38c-.25,1-.32,2-.56,3-.53,2.26-1.12,4.5-1.7,6.74-.32,1.27-.64,2.55-1,3.81-.78,2.88-1.38,5.83-2.42,8.61a27.8,27.8,0,0,1-3,5c-1.37,2.17-2.83,4.29-4.13,6.5-1.15,2-2.59,3.73-3.83,5.62-3.51,5.38-7.82,10.12-11.92,15-1.21,1.44-2.18,3.19-3.64,4.29a103.91,103.91,0,0,1-10.15,6.75c-5.82,3.39-11.7,6.71-17.72,9.72a134,134,0,0,1-12.65,5.16,11,11,0,0,1-3.55.53c-3.72.13-7.44.18-11.17.23-1.59,0-2.37-1.09-2.1-2.66.32-1.87.59-3.75.73-5.64.25-3.44.37-6.89.58-10.33.1-1.68.28-3.36.44-5,.13-1.41.26-2.82.42-4.22.15-1.25,1.33-1,2.06-1.26,1.7-.54,3.48-.87,5.22-1.29.07,0,.14-.06.21,0,2.36.25,4.34-1.17,6.6-1.49a32,32,0,0,0,5.1-1.6c1.13-.35,2.27-.65,3.4-1,2.79-.9,5.65-1.7,8.13-3.36s4.93-3.27,7.29-5.06,4.69-3.75,6.9-5.77A24.52,24.52,0,0,0,50,153.17c1.45-1.91,2.87-3.84,4.29-5.76a57.78,57.78,0,0,0,6.91-11.31,36.36,36.36,0,0,0,1.62-5.69c.47-2,.83-4,1.24-6a3.44,3.44,0,0,0,0-.45c.18-3,.39-6,.52-9.08.18-4.39.4-8.79.42-13.19a60.7,60.7,0,0,0-.51-8.31c-.37-2.74-1.1-5.42-1.66-8.13-.33-1.62-.54-3.28-1-4.89-.55-2.08-1.22-4.14-1.92-6.17-.66-1.88-1.37-3.74-2.17-5.56A26.81,26.81,0,0,0,55.39,64a95.72,95.72,0,0,0-9.57-11.44A96,96,0,0,0,33.89,41.91a115.37,115.37,0,0,0-11.07-7.08,34.32,34.32,0,0,0-6.4-2.38C13,31.34,9.47,30.37,6,29.23a1.92,1.92,0,0,1-.9-1.49c-.16-5-.19-9.93-.31-14.9C4.73,9,4.57,5.18,4.45,1.35,4.44,1.05,4.5.76,4.57,0Z"/></g></g></svg>