<svg xmlns="http://www.w3.org/2000/svg" viewBox="0 0 254.83 297.69"><g id="Layer_2" data-name="Layer 2"><g id="Layer_1-2" data-name="Layer 1"><path d="M213,167.26c-1.14,3.54-2,6.82-3.26,10-2.64,6.7-5.49,13.33-8.21,20-1.47,3.61-2.86,7.24-4.29,10.87-.4,1-.82,2-1.32,3.32,6.47,4.5,12.95,9,19.49,13.52s13.21,8.92,19.79,13.42,13.27,8.61,19.62,13.32l-.16.39c-3,.62-6.09,1.23-9.13,1.86-3.57.74-7.13,1.52-10.71,2.23-4.78,1-9.58,1.84-14.38,2.77a10.51,10.51,0,0,0-1.62.44c-1.85.67-3-.65-4.23-1.54-3.95-2.82-7.83-5.72-11.78-8.54-1.32-.95-2.77-1.72-4.11-2.65-1.56-1.08-3-2.31-4.61-3.34-3-1.94-6-3.8-9-5.67-1-.66-2.17-1.2-3.15-1.93-.79-.58-1.1-.15-1.34.44-.64,1.59-1.1,3.26-1.87,4.78a77.61,77.61,0,0,1-4.86,8.87c-3,4.32-6.13,8.51-9.44,12.57-3,3.65-6.28,7-9.36,10.59-3.28,3.79-7.48,6.38-11.64,9a120.31,120.31,0,0,1-10.33,6.17A92.25,92.25,0,0,1,121,293.23a135.75,135.75,0,0,1-14.47,3.84,34.77,34.77,0,0,1-12.42.13c-5.13-.76-10.29-1.35-15.42-2.12-3.14-.48-6.28-1-9.36-1.79a54.81,54.81,0,0,1-19.8-9.41c-5.18-3.83-8.71-9-12-14.37-1.25-2.06-2.67-4-3.78-6.16a74.17,74.17,0,0,1-3.32-7.53,20.6,20.6,0,0,1-.59-3.65c-.39-2.12-.86-4.23-1.23-6.35s-.74-4.21-1-6.33c-.46-3.54-.9-7.08-1.23-10.64-.19-2.06-.17-4.14-.18-6.21,0-4.26-.16-8.52.08-12.77a52.56,52.56,0,0,1,2.07-13,46.3,46.3,0,0,0,1.82-5.76c.91-5.1,3.25-9.68,5.08-14.44a90.27,90.27,0,0,1,7.46-14.91q4.88-7.92,9.77-15.82c1.26-2,1.33-2.12-.35-3.8-2.19-2.19-4.55-4.2-6.77-6.36-5.46-5.32-10.92-10.65-16.32-16-2.34-2.33-4.58-4.77-6.78-7.24-2.62-2.94-5.23-5.89-7.69-9-2.09-2.61-4-5.37-5.91-8.1a33.46,33.46,0,0,1-3.46-5.38c-1.21-2.76-2-5.7-2.94-8.58A51.5,51.5,0,0,1,0,63.85a63.61,63.61,0,0,1,1.2-9.71A68.14,68.14,0,0,1,3.6,44.45,75,75,0,0,1,8,34.07a57.07,57.07,0,0,1,5.6-8.76,55.88,55.88,0,0,1,5.9-5.92q3.93-3.74,7.94-7.37a40.58,40.58,0,0,1,12-7.13c2-.81,3.92-1.71,5.92-2.44a21.39,21.39,0,0,1,3.58-.82c2-.35,3.93-.56,5.88-.95a55.28,55.28,0,0,1,13-.56c2.85.11,5.7.33,8.54.63A36.15,36.15,0,0,1,87.1,3.54c3.81,1.67,7.54,3.53,11.27,5.38a27.77,27.77,0,0,1,8.37,6,46.55,46.55,0,0,1,4.12,5.85c2.49,3.83,5,7.65,7.36,11.55,1.57,2.6,2.92,5.34,4.39,8a31.38,31.38,0,0,1,3.6,14.09,97,97,0,0,1-.07,11,73.86,73.86,0,0,1-1.43,8.41c-.37,1.94-.76,3.87-1.25,5.78A61.57,61.57,0,0,1,121.57,86a104,104,0,0,1-4.52,11,100.94,100.94,0,0,1-6.84,11.2c-2.74,3.93-6,7.51-8.71,11.45-3,4.28-5.63,8.8-8.42,13.21a2.18,2.18,0,0,1-.33.45c-.76.72-.39,1.21.28,1.7,1.9,1.39,3.79,2.79,5.66,4.22,2.57,2,5.09,4,7.69,6,3.25,2.4,6.58,4.71,9.85,7.09,5,3.63,10,7.29,15,10.91,4.55,3.3,9.14,6.54,13.69,9.85,3.27,2.38,6.46,4.87,9.75,7.23,4.56,3.27,9.18,6.47,13.78,9.68a3.62,3.62,0,0,0,1.32.61c.56.11,1.05.17,1.36-.69,1.26-3.58,2.66-7.1,4-10.65.74-1.93,1.44-3.89,2.25-5.79a1.82,1.82,0,0,1,1.19-.94c5.63-.86,11.28-1.63,16.91-2.49,3.82-.59,7.61-1.32,11.43-1.93C208.83,167.72,210.8,167.54,213,167.26ZM49.52,222.41c.28,2.2.49,5.36,1.13,8.42a77.51,77.51,0,0,0,2.78,9.91,14,14,0,0,0,4,6.29A13.35,13.35,0,0,1,59,248.44c1.33,1.54,2.53,3.21,3.93,4.68a19.85,19.85,0,0,0,7.89,5.51c3.12,1.05,6.24,2.11,9.41,3a102.38,102.38,0,0,0,10.45,2.63A59.2,59.2,0,0,0,106,265c5.64-.46,11.16-1.31,16.31-3.82,4.47-2.18,8.72-4.65,12-8.48,2.07-2.4,4.25-4.71,6.34-7.1,2.55-2.91,5.29-5.69,7.56-8.82a118.4,118.4,0,0,0,10-16,1,1,0,0,0-.36-1.49c-2.69-1.91-5.37-3.84-8-5.83-4.44-3.34-8.81-6.78-13.27-10.09-3.53-2.62-7.14-5.14-10.75-7.65-3.23-2.24-6.6-4.31-9.77-6.64-4.26-3.13-8.37-6.45-12.57-9.67s-8.15-6.32-12.35-9.33c-5-3.57-10.12-7-15.16-10.47a1.34,1.34,0,0,0-2.2.33c-1.31,1.78-2.63,3.54-4,5.27A58.47,58.47,0,0,0,63,175.79c-2.14,4.32-4,8.79-5.87,13.24-1.11,2.64-2,5.36-2.91,8.08-.84,2.54-1.63,5.1-2.29,7.69a73.56,73.56,0,0,0-1.66,7.88C49.89,215.58,49.81,218.52,49.52,222.41ZM93.44,64.17a43.63,43.63,0,0,0-1.78-11.26c-1.06-3.39-2.16-6.86-4.54-9.68-2.18-2.59-4-5.42-7.07-7.23-4.66-2.76-9.36-5.21-15-4.75-.63.05-1.27-.1-1.91-.07-1.89.09-3.88-.13-5.64.4a31.94,31.94,0,0,0-12.66,7.57,32.1,32.1,0,0,0-8,10.45c-1.39,3.14-3,6.26-3.2,9.74a68.51,68.51,0,0,0,.05,10.91,73.18,73.18,0,0,0,2,9.52A30,30,0,0,0,42.13,92c3.11,3.76,6.33,7.41,9.58,11.05,4,4.5,8.07,9,12.91,12.65.79.6,1.38.78,2.11,0,1.64-1.73,3.31-3.43,5-5.16,2.12-2.27,4.3-4.5,6.32-6.86,3-3.59,6.14-7.21,8.06-11.57,1.48-3.37,2.65-6.88,3.91-10.34a35.38,35.38,0,0,0,1.34-4.28c.43-1.89.72-3.82,1-5.74C92.73,69.22,93.07,66.69,93.44,64.17Z"/></g></g></svg>