<svg xmlns="http://www.w3.org/2000/svg" viewBox="0 0 225.4 154.35"><g id="Layer_2" data-name="Layer 2"><g id="Layer_1-2" data-name="Layer 1"><path d="M19.85,61.09c.86.79,1.43,1.33,2,1.85,1.1,1,2.27,1.87,3.31,2.89.75.72,1.3,1.64,2,2.39.42.43,1.05.66,1.49,1.08s.57,1,1,1.31a33.36,33.36,0,0,1,3.26,2.88c1.13,1.34,2.59,2.3,3.73,3.62.35.4.94.58,1.32,1s.62,1.36,1.54,1.34c-.18.66.28.94.71,1.3,1,.87,2.09,1.73,3,2.7,1.53,1.58,3,3.25,4.46,4.88l4.92,5.41c1.67,1.82,3.37,3.62,5,5.45,1.07,1.17,2.09,2.39,3.13,3.59s1.82,2.15,2.78,3.18c.78.84,1.62,1.62,2.46,2.41.16.15.51.34.59.28.74-.59,1.44-1.24,2.17-1.85.25-.2.57-.32.84-.51a25,25,0,0,0,2.55-1.75c.5-.43.75-1.15,1.23-1.61.83-.8,1.76-1.49,2.63-2.24,1.07-.91,2.09-1.87,3.18-2.74,1.44-1.16,2.93-2.24,4.36-3.4.66-.54,1.21-1.2,1.84-1.78,1.68-1.55,3.3-3.17,5.09-4.59s3.8-2.66,5.69-4c.37-.27.65-.66,1-.94,1.71-1.35,3.43-2.67,5.15-4,1-.76,2-1.53,2.94-2.27s2.1-1.47,3.09-2.27c1.79-1.46,3.52-3,5.31-4.44.84-.67,1.76-1.23,2.63-1.87.44-.33.85-.7,1.27-1.07,1.21-1.07,2.37-2.21,3.63-3.21,1.69-1.35,3.48-2.58,5.19-3.91,1.08-.83,2.08-1.75,3.13-2.62,1.67-1.37,3.36-2.71,5-4.1,1.18-1,2.34-2,3.44-3.08a24,24,0,0,1,3.88-2.87c.26-.17.29-.65.47-1a2.11,2.11,0,0,1,.58-.73c.34-.23.83-.26,1.13-.51,1.48-1.28,2.86-2.67,4.39-3.88,1.35-1.08,2.88-1.93,4.26-3,.61-.46,1-1.16,1.61-1.66,1.36-1.18,2.78-2.29,4.15-3.45.9-.77,1.73-1.63,2.66-2.37a26.85,26.85,0,0,1,2.94-2c.59-.36.49-1.18,1.38-1.45s1.61-1.28,2.42-1.94c1.41-1.13,2.87-2.21,4.25-3.38.91-.76,1.7-1.66,2.58-2.46.58-.53,1.23-1,1.86-1.49s1.42-1.09,2.14-1.62c.55-.41,1.14-.79,1.67-1.24s.81-.91,1.28-1.29c1.28-1,2.64-2,3.87-3s2.38-2.37,3.62-3.48c.69-.62,1.54-1.07,2.28-1.64.5-.38.91-.88,1.41-1.25,1.12-.83,2.3-1.58,3.4-2.43.57-.45,1-1.08,1.52-1.58,1.16-1,2-.85,2.74.51a4.58,4.58,0,0,0,1.11,1.13c.62.53,1.31,1,1.92,1.53s1.25,1.23,1.88,1.85c1.2,1.18,2.43,2.34,3.59,3.56.63.66,1.06,1.5,1.71,2.13s1.38,1.71,2.55,1.92c.11,0,.24.2.26.32.12,1,.86,1.36,1.59,1.92a30.87,30.87,0,0,1,3,3.22c.36.39.94.58,1.3,1,.83.91,1.57,1.9,2.37,2.83a8.85,8.85,0,0,0,.84.64c.88.81,1.74,1.63,2.68,2.51.41,1.35-.9,1.74-1.68,2.39-1.63,1.36-3.32,2.67-5,3.93-2.59,1.91-5.24,3.74-7.83,5.66-1.72,1.28-3.36,2.67-5.05,4-.43.33-.93.58-1.36.91-3,2.18-5.92,4.34-8.85,6.56C191.67,52.07,187.86,55,184,58c-1.36,1.05-2.8,2-4.05,3.19-1,.94-2.25,1.46-3.27,2.36s-2.2,1.74-3.31,2.61-2.2,1.77-3.33,2.62c-2.36,1.77-4.75,3.49-7.09,5.27-3.5,2.66-7,5.33-10.44,8-1.15.91-2.15,2-3.28,3-1.53,1.26-3.14,2.4-4.68,3.65-2.4,2-4.75,4-7.14,5.92s-5,4.15-7.6,6.18q-5.15,4.08-10.35,8.07c-2.3,1.78-4.67,3.47-6.94,5.29s-4.46,3.75-6.69,5.63c-.4.33-.87.59-1.25.94a3.32,3.32,0,0,0-.42.9,7.93,7.93,0,0,0-1.81.92c-1.63,1.34-3.15,2.81-4.76,4.18-1.39,1.17-2.87,2.25-4.27,3.4-2,1.61-3.89,3.25-5.84,4.86-1.44,1.2-2.92,2.36-4.35,3.57-1.61,1.35-3.18,2.74-4.77,4.12-2.29,2-4.57,4-6.87,6-2,1.74-4,3.49-6.08,5.19-1,.84-1.69.66-2.45-.43-.53-.76-1.14-1.48-1.73-2.2-1.9-2.32-3.77-4.66-5.73-6.94-1.07-1.25-2.33-2.35-3.41-3.61s-1.84-2.46-2.8-3.65c-1.5-1.83-3-3.62-4.57-5.43-.84-1-1.6-2.08-2.53-3s-1.61-2.46-2.93-3.3c-.54-.33-.74-1.16-1.17-1.7-.95-1.2-1.94-2.36-2.91-3.53-1.89-2.24-3.76-4.48-5.66-6.7-.95-1.1-2-2.12-2.93-3.22-1.24-1.43-2.4-2.92-3.65-4.34-1.78-2-3.61-4-5.41-6.07-.76-.86-1.44-1.8-2.23-2.64-1-1-2.08-2-3.08-3-.62-.65-1.15-1.39-1.72-2.08C9.77,91,9,90.07,8.23,89.15c-1.6-1.9-3.17-3.83-4.81-5.69-.53-.6-1.35-.95-1.85-1.57A13.44,13.44,0,0,1,0,79.31a1.27,1.27,0,0,1,.34-1A16.19,16.19,0,0,1,3.71,75c.9-.53,1.2-1.9,2.51-1.74,1-1.45,2.56-2.43,3.75-3.74,1-1.1,2.09-2.09,3.17-3.09,1.64-1.53,3.28-3.08,5-4.53A6.2,6.2,0,0,1,19.85,61.09Z"/></g></g></svg>