<svg xmlns="http://www.w3.org/2000/svg" viewBox="0 0 103.37 79.81"><g id="Layer_2" data-name="Layer 2"><g id="Layer_1-2" data-name="Layer 1"><path d="M103.36,26.67a26.69,26.69,0,0,1-1.71,9.53c-.93,2.78-1.81,5.58-2.81,8.33a37.38,37.38,0,0,1-4.18,8.91,26.65,26.65,0,0,1-5.85,5.86,2.88,2.88,0,0,0-1.47,2.6c.14,3.62.09,7.24.16,10.85,0,1.18.23,2.35.3,3.53a.81.81,0,0,1-1.28.86c-3.08-1.53-6.17-3-9.21-4.68-1.14-.61-2.15-.2-3.18.05q-4.84,1.13-9.65,2.4c-2.67.71-5.28,1.63-8,2.25s-5.58,1.09-8.38,1.58c-1.59.27-3.21.42-4.79.72a29.94,29.94,0,0,1-8.56.08,42.78,42.78,0,0,1-9.33-1.81c-3.45-1.14-6.86-2.44-9.72-4.84-2.35-2-4.84-3.79-7.24-5.7A21.1,21.1,0,0,1,5.2,64.32a14.4,14.4,0,0,1-2.06-3.8c-.89-2.3-1.69-4.65-2.35-7A21.59,21.59,0,0,1,0,48.56,27.11,27.11,0,0,1,.52,44.1,52.6,52.6,0,0,1,4,32.71C5.08,29.87,6.14,27,7.36,24.24A17.34,17.34,0,0,1,9.3,21.52a19.92,19.92,0,0,1,5-4.46,93.13,93.13,0,0,1,7.84-5.46c3.11-1.8,6.44-3.23,9.71-4.73A55.6,55.6,0,0,1,42,3.59c2.18-.53,4.33-1.2,6.53-1.63C51,1.47,53.44,1.1,55.91.83,59.16.47,62.42.12,65.68,0c2.92-.1,5.84.23,8.76.23a17.9,17.9,0,0,1,8.94,2.68,57.72,57.72,0,0,1,12.42,9.2,37.76,37.76,0,0,1,4.41,5.28A46.91,46.91,0,0,1,102.5,22,10.8,10.8,0,0,1,103.36,26.67Z"/></g></g></svg>