<svg xmlns="http://www.w3.org/2000/svg" viewBox="0 0 202.92 150.91"><g id="Layer_2" data-name="Layer 2"><g id="Layer_1-2" data-name="Layer 1"><path d="M7.9,0c2,0,4,0,5.91,0s3.81.13,5.71.24c3.32.18,6.64.42,10,.59s6.37.25,9.55.41c4,.2,8,.46,12,.65,2.58.13,5.16.16,7.74.26,1.38.06,2.76.2,4.13.27q3.56.19,7.11.35c4.49.2,9,.35,13.47.58,3,.15,5.92.46,8.88.61s5.91.17,8.86.29c3.42.15,6.84.34,10.25.5,2.57.13,5.14.22,7.71.37,2.89.17,5.77.41,8.66.57s5.91.29,8.87.43c3.49.17,7,.36,10.48.51,2.34.1,4.69.11,7,.23,2.81.15,5.61.41,8.42.56,3.42.18,6.84.28,10.26.46,3.61.19,7.22.47,10.83.64,3.94.18,7.89.25,11.84.4,2.29.09,4.58.22,6.86.37a.75.75,0,0,1,.5.51c0,2.88-.09,5.75-.14,8.62,0,.58,0,1.16,0,1.74-.11,4.41-.22,8.83-.36,13.24-.16,5.38-.35,10.76-.53,16.15q-.15,4.29-.35,8.58c-.17,3.45-.38,6.88-.55,10.32-.12,2.4-.2,4.79-.31,7.19-.17,3.76-.39,7.51-.53,11.28-.15,4.32-.24,8.64-.35,13-.13,5-.24,10-.36,14.95-.05,2-.12,3.93-.17,5.9-.06,3-.16,6.09-.15,9.14,0,4.55.11,9.1.16,13.66,0,1.41,0,2.83,0,4.42h-4.42c-4.69,0-9.38,0-14.08,0q-9,0-18,0c-4.63,0-9.27.08-13.9.09-2.72,0-5.44-.09-8.15-.06-7.19.08-14.38.2-21.57.32-6.8.11-13.59.26-20.38.36-5.7.08-11.39.11-17.09.16-6.18.06-12.37.09-18.56.18q-9.51.12-19,.33c-4.53.09-9,.22-13.57.35-3.51.1-7,.2-10.53.37-3.35.16-6.69.45-10,.6-2.34.11-4.69.06-7,.11-.71,0-1.43.07-2.14.15s-.79-.12-.76-.71q.36-5.55.69-11.11c.07-1.15.13-2.31.18-3.47.12-2.9.22-5.8.36-8.7.16-3.47.35-6.94.53-10.42.11-2.08.23-4.17.34-6.25.18-3.53.35-7.06.54-10.6.1-2,.22-4.11.33-6.16l.54-10.6c.1-2,.21-4.11.33-6.16l.69-11.46c.07-1.18.13-2.37.18-3.56.12-2.92.23-5.85.36-8.78.16-3.39.35-6.77.53-10.16s.34-6.66.52-10,.35-6.89.53-10.33c.17-3.22.33-6.43.51-9.64C7.4,8.52,7.66,4.24,7.9,0ZM61.65,125c1.86-1.06,3.57-1.92,5.16-3,4.83-3.2,9.61-6.48,14.43-9.69a3.86,3.86,0,0,1,1.6-.55c1.23-.15,2.48-.21,3.73-.29L94.9,111c2.17-.13,4.35-.2,6.52-.38s4.43-.5,6.65-.75c1.26-.15,2.54-.22,3.79-.47,3.76-.76,7.52-1.55,11.25-2.43,2.87-.69,5.71-1.5,8.55-2.33a27.08,27.08,0,0,0,9.8-4.72c1.94-1.57,3.77-3.26,5.65-4.9A38.58,38.58,0,0,0,154.77,86a14.65,14.65,0,0,0,2.36-8.24c-.09-2.23-.31-4.45-.49-6.67a16.33,16.33,0,0,0-1.9-6.54c-1.19-2.23-2.65-4.3-3.9-6.49a43.64,43.64,0,0,0-6.26-7.79,70.46,70.46,0,0,0-6.84-6,24.41,24.41,0,0,0-8.41-4.45c-.73-.24-1.53-.29-2.27-.53-2.18-.69-4.32-1.54-6.52-2.13-2.68-.72-5.4-1.3-8.13-1.82-2.19-.42-4.4-.72-6.62-.93a43.29,43.29,0,0,0-4.7-.06c-3.69.08-7.4-.06-11,.35-4.36.5-8.69,1.39-13,2.26-3.45.68-6.88,1.51-10.29,2.41a23.86,23.86,0,0,0-7.16,2.74c-2,1.32-4,2.72-5.87,4.24a70.54,70.54,0,0,0-5.46,4.91,22,22,0,0,0-4.88,7.41A32.66,32.66,0,0,0,41.3,64.6,31.62,31.62,0,0,0,40.82,75c.45,3.2.85,6.33,2.48,9.23a29.27,29.27,0,0,0,4.79,6.58c1.68,1.67,3.31,3.39,4.94,5.1s3.42,3.66,5.19,5.43a3.53,3.53,0,0,1,1.18,2.13c.28,2.26.65,4.51.89,6.78.33,3.11.57,6.23.85,9.35C61.3,121.32,61.47,123.06,61.65,125Z"/></g></g></svg>