<svg xmlns="http://www.w3.org/2000/svg" viewBox="0 0 363.56 163.3"><g id="Layer_2" data-name="Layer 2"><g id="Layer_1-2" data-name="Layer 1"><path d="M.11,162.94c2.68-1.51,5.35-3,8-4.52,2.32-1.26,4.69-2.44,7-3.7,1.66-.9,3.29-1.88,4.93-2.83,2.14-1.23,4.27-2.47,6.42-3.68,2.8-1.58,5.59-3.17,8.41-4.71,3.07-1.66,6.17-3.26,9.24-4.92,3.24-1.75,6.44-3.57,9.68-5.32,3.6-1.94,7.23-3.84,10.85-5.74,2.54-1.34,5.06-2.71,7.64-4,3.33-1.62,6.72-3.1,10.06-4.71,4.3-2.07,8.57-4.2,12.86-6.31,3.21-1.57,6.43-3.14,9.63-4.73q5.24-2.58,10.45-5.2c3.64-1.81,7.25-3.68,10.92-5.43,2.41-1.15,5-2,7.34-3.19,3.17-1.59,6.27-3.34,9.37-5.07q5.85-3.27,11.66-6.64A69.61,69.61,0,0,0,165.4,75L172,69.36a2.92,2.92,0,0,0,1-2.6c-.14-2.57-.26-5.15-.34-7.73a35.6,35.6,0,0,1,0-4.62c.23-2.52.6-5,1-7.55A22.94,22.94,0,0,1,176,39.5c1.06-2,2.28-3.93,3.51-5.85A33.34,33.34,0,0,1,182.2,30c1-1.2,2.16-2.28,3.25-3.42.93-1,1.82-2,2.77-3,1.49-1.53,3-3,4.51-4.53a31.19,31.19,0,0,1,8.64-6c2.2-1.11,4.53-2,6.79-3a61,61,0,0,1,10.06-3.12c2.68-.67,5.36-1.41,8.05-2q4.36-1,8.76-1.84c2.57-.49,5.17-.89,7.76-1.29,2-.31,4-.52,6-.83.67-.11,1.31-.47,2-.55.88-.1,1.81.2,2.72-.52,0,1.08.38,1.1,1.1.77,1.25-.58,2.58-.26,3.86-.15,2.83.24,5.66.53,8.47.89,1.84.23,3.65.63,5.48.93s3.38.46,5,.79c2.49.5,4.95,1.09,7.42,1.66s5.11,1.18,7.65,1.84c2.16.55,4.3,1.18,6.44,1.81,2.59.77,5.16,1.56,7.74,2.34a77.84,77.84,0,0,1,16.79,7l9.91,5.74a54.61,54.61,0,0,1,8.35,6.23c3.12,2.73,6.2,5.53,9.13,8.45a51.67,51.67,0,0,1,6.74,8.28,36.55,36.55,0,0,1,4.25,9.64,34.65,34.65,0,0,1,1.47,6,34.65,34.65,0,0,1,.11,7.27,73.47,73.47,0,0,1-1.59,8.8,23,23,0,0,1-1.65,4.31,52.81,52.81,0,0,1-2.93,5.94c-1.4,2.27-3.08,4.36-4.62,6.54-2.53,3.57-6.15,6-9.41,8.76a36.64,36.64,0,0,1-9.46,5.87c-3.94,1.66-7.84,3.43-11.81,5-2.75,1.1-5.56,2.06-8.39,2.9a58.64,58.64,0,0,1-5.76,1.14c-2.38.44-4.75,1-7.15,1.28q-4.08.56-8.21.81c-4.05.25-8.11.42-12.17.54-4.26.12-8.53.13-12.8.21a59.58,59.58,0,0,1-9.14-.71c-3-.4-6-.67-9-1.1-2.34-.33-4.67-.8-7-1.22s-5-.81-7.41-1.33c-2-.43-4-1-6-1.54-1.84-.49-3.69-.95-5.52-1.49-2-.59-4-1.26-6-1.89s-4.15-1.27-6.22-2c-3.22-1.07-6.44-2.13-9.63-3.26-2.66-.94-5.34-1.87-7.92-3-2.87-1.26-5.65-2.72-8.46-4.14a5.25,5.25,0,0,0-4.58-.32c-3.62,1.4-7.34,2.51-11,3.77s-7.1,2.51-10.66,3.74c-2.48.85-5,1.65-7.44,2.5q-6.45,2.22-12.9,4.47-4.92,1.73-9.82,3.48l-11.66,4.21c-1.84.65-3.7,1.25-5.53,1.92-2.15.8-4.27,1.66-6.4,2.48l-9.27,3.56-7.57,2.88c-2.53,1-5.06,1.88-7.57,2.87-4.12,1.62-8.21,3.29-12.33,4.91s-8.23,3.26-12.36,4.86c-2.64,1-5.28,2.07-8,3-2.86,1-5.77,1.94-8.66,2.89-3.48,1.14-7,2.29-10.47,3.4s-7.08,2.2-10.62,3.3c-3.25,1-6.49,2-9.74,3-2.53.79-5.06,1.57-7.6,2.31a2.52,2.52,0,0,1-1-.12Z"/></g></g></svg>