<svg xmlns="http://www.w3.org/2000/svg" viewBox="0 0 154.82 139.37"><g id="Layer_2" data-name="Layer 2"><g id="Layer_1-2" data-name="Layer 1"><path d="M0,128.87A23.25,23.25,0,0,0,2.3,127c1.87-2,3.71-4,5.48-6.09s3.64-4.54,5.52-6.76c1.43-1.69,3-3.26,4.44-4.92,1.87-2.14,3.67-4.33,5.57-6.45,1.25-1.38,2.64-2.63,3.9-4,1.86-2,3.64-4.15,5.51-6.18,1.66-1.8,3.4-3.53,5.08-5.31,1.51-1.6,3-3.23,4.46-4.86,2.72-3,5.46-6,8.11-9.09,1.35-1.57,2.54-3.28,3.78-5a.78.78,0,0,0,0-.68c-1.45-2.57-2.85-5.16-4.39-7.67-1.95-3.16-4-6.24-6-9.35a9.59,9.59,0,0,1-1.59-2.45,15,15,0,0,0-2.2-4.12C38.59,42,37.27,39.85,36,37.73s-2.53-4-3.82-6.06c-2-3.15-4.09-6.26-6.07-9.43-1.29-2.07-2.43-4.23-3.69-6.32-1.45-2.41-3-4.79-4.43-7.2C16.37,6.12,14.85,3.5,13.33.87A2.61,2.61,0,0,1,13.2,0l2.52.27c1,.12,2.06.28,3.09.37,1.56.15,3.13.19,4.68.38,2.56.3,5.1.76,7.67,1,2.91.3,5.83.46,8.75.71,1.52.13,3,.31,4.55.49a.61.61,0,0,1,.38.27L52,14c1.94,2.86,3.87,5.72,5.84,8.56,2.11,3.07,4.3,6.09,6.38,9.17,3,4.42,5.91,8.87,8.85,13.31,1,1.57,2.06,3.15,3.3,5,4.19-4.29,8.24-8.49,12.34-12.63C94.13,32,99.59,26.59,105,21.15c2.48-2.48,4.92-5,7.42-7.45,1.36-1.33,2.78-2.6,4.21-3.86a1.5,1.5,0,0,1,1-.23c2.37.18,4.74.39,7.1.61,3,.28,6,.59,9,.88l5.36.47,12.17,1.11c.93.09,1.86.14,2.78.27.26,0,.68.25.69.4.06,1.34.17,2.76-.89,3.79-1.62,1.6-3.35,3.08-5,4.64-2,1.84-3.85,3.75-5.82,5.57-2.39,2.2-4.82,4.35-7.24,6.51C133.89,35.59,132,37.34,130,39c-1.25,1.07-2.58,2-3.85,3.09-2.16,1.8-4.3,3.64-6.45,5.45-2.48,2.09-5,4.15-7.44,6.27-2.72,2.33-5.38,4.74-8.11,7.07-3.47,3-7,5.89-10.42,8.78,1,1.62,1.88,3,2.74,4.45,1.37,2.23,2.74,4.46,4.09,6.7,1.24,2,2.41,4.15,3.69,6.18.79,1.26,1.76,2.42,2.59,3.67s1.52,2.51,2.31,3.74c1.09,1.7,2.21,3.38,3.32,5.07s2,3.15,3.07,4.7c1.16,1.7,2.37,3.35,3.54,5,1.37,2,2.73,4,4.08,6,1,1.41,1.89,2.85,2.88,4.24,1.28,1.8,2.61,3.56,3.91,5.34,1.12,1.54,2.21,3.09,3.34,4.62s2.4,3.22,3.62,4.82c1,1.34,2.11,2.65,3.1,4,.61.84.43,1.16-.65,1.14s-2.31-.14-3.46-.22c-2.4-.15-4.79-.34-7.18-.43-3-.12-6-.14-9.06-.25-3.9-.13-7.79-.29-11.69-.44-1.46-.06-2.92-.18-4.38-.22s-1.56-1.22-2.15-2c-.71-1-1.4-1.92-2-2.93-.39-.64-.6-1.41-1-2.06-1.66-2.76-3.4-5.48-5-8.26-1.5-2.53-2.86-5.15-4.36-7.68-1.33-2.27-2.8-4.46-4.17-6.7s-2.54-4.37-3.89-6.51-2.77-4.09-4.13-6.15c-1.18-1.81-2.3-3.65-3.48-5.46a9.45,9.45,0,0,0-1.22-1.59c-.48-.5-.84-1-1.6,0-1.29,1.68-2.92,3.12-4.38,4.68-1.87,2-3.72,4-5.57,6-1.55,1.69-3.1,3.38-4.63,5.08s-3.2,3.66-4.83,5.47c-2.31,2.56-4.66,5.09-6.95,7.67-1.63,1.83-3.14,3.75-4.8,5.54s-3.39,3.36-5.07,5c-1.11,1.11-2.13,2.32-3.29,3.38a2.39,2.39,0,0,1-1.6.52c-2.05-.14-4.09-.43-6.13-.62q-5.09-.48-10.17-.89c-2.47-.2-4.94-.31-7.41-.48-1.78-.12-3.56-.27-5.34-.41Z"/></g></g></svg>