<svg xmlns="http://www.w3.org/2000/svg" viewBox="0 0 79.28 50.59"><g id="Layer_2" data-name="Layer 2"><g id="Layer_1-2" data-name="Layer 1"><path d="M79.28,32.93a5.26,5.26,0,0,1-1.31,1c-4,1.25-7.92,2.45-11.89,3.64-1.87.57-3.76,1.05-5.62,1.65A1.89,1.89,0,0,1,58,38.56c-1.34-1.8-2.75-3.56-4.13-5.33-2-2.55-4-5.08-6-7.65-1.54-2-3-4-4.52-6.06s-3-4.09-4.54-6.12S36,9.61,34.52,7.71A1.18,1.18,0,0,1,35,6c1.45-.47,2.92-.87,4.37-1.36,1.71-.57,3.39-1.24,5.11-1.81,2-.66,4-1.25,6-1.89A13.82,13.82,0,0,0,52.37.19a1.27,1.27,0,0,1,1.74.4l5.36,6.67c2.4,3,4.82,6,7.19,9,2.48,3.17,5,6.36,7.34,9.61,1.51,2.05,2.83,4.25,4.26,6.37C78.42,32.45,78.76,32.57,79.28,32.93Z"/><path d="M29.07,50.59a9.41,9.41,0,0,1-1-.93c-2.26-2.71-4.5-5.45-6.76-8.16-3.23-3.89-6.46-7.78-9.73-11.64-1.77-2.1-3.59-4.15-5.43-6.2S2.38,19.58.51,17.54c-.74-.79-.72-1,.34-1.32,2.77-.9,5.54-1.76,8.31-2.65,3.12-1,6.28-1.9,9.33-3.07,1.64-.63,2.23.42,3,1.29s1.33,1.62,2,2.43c1.72,2,3.47,4.08,5.17,6.14s3.26,4.13,5,6.13c1.53,1.81,3.22,3.5,4.74,5.31,1.68,2,3.22,4.1,4.88,6.11,1.19,1.46,2.49,2.83,3.7,4.29a1.88,1.88,0,0,1,.41,1.2c0,.18-.59.35-.93.48-2.09.82-4.18,1.62-6.28,2.43l-8.39,3.22Z"/></g></g></svg>