<svg xmlns="http://www.w3.org/2000/svg" viewBox="0 0 134.04 118.58"><g id="Layer_2" data-name="Layer 2"><g id="Layer_1-2" data-name="Layer 1"><path d="M0,118.58C19.1,78.34,40.77,39.53,61.46,0l.9,1.12c14.47,18.76,29.06,37.42,43.35,56.31,7.67,10.14,14.83,20.67,22.22,31q2.65,3.72,5.32,7.45c.23.33.45.67.79,1.19l-5.68.83-16.62,2.41c-2.46.35-4.92.63-7.37,1a1.22,1.22,0,0,1-1.44-.69q-5-7.83-10.1-15.65Q80.17,65.41,67.5,45.78c-.24-.37-.52-.73-.91-1.28-.45,1-.86,1.78-1.21,2.62L42.64,101.23c-1.41,3.36-2.85,6.71-4.23,10.08a1.55,1.55,0,0,1-1.29,1L16.68,115.8,1.35,118.41C.92,118.48.47,118.52,0,118.58Z"/></g></g></svg>