<svg xmlns="http://www.w3.org/2000/svg" viewBox="0 0 89.92 88.73"><g id="Layer_2" data-name="Layer 2"><g id="Layer_1-2" data-name="Layer 1"><path d="M45.77,88.67a46.63,46.63,0,0,1-5.29,0,24.24,24.24,0,0,1-4.88-1.16,73.63,73.63,0,0,1-8-3.06,27.26,27.26,0,0,1-4.58-3.19c-2.85-2.18-5.62-4.48-8.5-6.63A43.67,43.67,0,0,1,4.09,64a17.58,17.58,0,0,1-2.28-5.32A52.69,52.69,0,0,1,0,49.2c-.18-2.8.44-5.65.69-8.49.11-1.27.21-2.55.22-3.82.06-4,1.75-7.56,3.38-11.14a38,38,0,0,1,7.23-10,49.74,49.74,0,0,1,5.27-5.39A64.24,64.24,0,0,1,25.5,4.59a40,40,0,0,1,7-2.6c1.55-.5,3.16-.79,4.74-1.18A5.25,5.25,0,0,1,37.9.63C40.43.43,43,.16,45.49.08a68.5,68.5,0,0,1,8,.07,53.46,53.46,0,0,1,6.11,1.16C63.63,2.12,67.24,4.07,71,5.6a18.48,18.48,0,0,1,7.69,6.08c2.39,3.06,4.82,6.1,7.15,9.2A6.57,6.57,0,0,1,87,23.46c.83,4.11,1.56,8.24,2.32,12.36.9,4.94.56,9.88.21,14.84a34.92,34.92,0,0,1-3.36,12.63A20.17,20.17,0,0,1,83.51,67c-1.86,2.34-3.72,4.68-5.68,7a45.57,45.57,0,0,1-18,13c-3.39,1.33-7,1.52-10.65,1.57-1.13,0-2.26,0-3.39,0Z"/></g></g></svg>