<svg xmlns="http://www.w3.org/2000/svg" viewBox="0 0 100.83 199.29"><g id="Layer_2" data-name="Layer 2"><g id="Layer_1-2" data-name="Layer 1"><path d="M100.83.09c-.19,2.36-.37,4.63-.55,6.89,0,.49-.08,1-.08,1.47,0,2.34,0,4.67,0,7-.08,2.81-.25,5.61-.4,8.41a1.26,1.26,0,0,1-1.09,1.33,65.92,65.92,0,0,0-8.36,2.22c-4.15,1.59-8.23,3.4-12.21,5.39-3.78,1.88-7.47,4-11.06,6.21a61.45,61.45,0,0,0-7.49,5.45,46.24,46.24,0,0,0-4.58,5,66.27,66.27,0,0,0-4.44,5.35c-1.68,2.4-3.15,4.94-4.64,7.47-1.17,2-2.25,4-3.32,6.07-1.32,2.55-2.7,5.07-3.84,7.69s-1.94,5.2-2.87,7.82c-.75,2.07-1.52,4.13-2.16,6.24-.44,1.47-.64,3-1,4.5-.4,1.7-.86,3.4-1.28,5.1a4.34,4.34,0,0,0-.07,1c0,4-.15,8.07.05,12.09a77.8,77.8,0,0,0,1.2,8c.19,1.24.33,2.49.59,3.72a29.82,29.82,0,0,0,.91,3.33c.35,1,.79,2,1.23,3q.93,2.09,1.95,4.13c1,2,1.93,4,3.07,5.86s2.59,3.91,4,5.8a62.4,62.4,0,0,0,4.9,6.27,105.34,105.34,0,0,0,7.73,7.2c1.62,1.39,3.49,2.5,5.23,3.76,1.36,1,2.65,2,4,3s3,1.91,4.54,2.88c.61.39,1.15.89,1.75,1.29,2.44,1.58,4.91,3.12,7.32,4.73,1.49,1,2.91,2.09,4.36,3.14,1,.69.63,1.69.51,2.56-.16,1.12-.53,2.21-.75,3.32s-.33,2.05-.52,3.07c-.27,1.48-.6,2.94-.86,4.42-.19,1.06-.33,2.13-.49,3.2s-.29,2.14-.48,3.21c-.13.72-.59.73-1.19.51-2.33-.83-4.69-1.6-7-2.46-5.14-1.9-10.28-3.8-15.38-5.8a62.74,62.74,0,0,1-9.61-4.15,138.55,138.55,0,0,1-12.77-8.88c-4.71-3.63-8.78-8-13-12.15a52.89,52.89,0,0,1-7-9c-1.44-2.21-2.9-4.42-4.15-6.74s-2.23-4.71-3.29-7.1-2.1-4.55-2.95-6.9a79.63,79.63,0,0,1-2.4-7.84c-.74-3-1.16-6-1.88-8.95-1.45-5.94-.82-12-.77-18,0-2.48.8-5,1.22-7.44.17-1,.27-2,.49-3,.42-1.85.83-3.72,1.36-5.54.7-2.39,1.48-4.75,2.31-7.1,1-2.88,2.06-5.76,3.21-8.59.88-2.16,2-4.22,2.93-6.35.59-1.35,1-2.78,1.62-4.14s1.42-2.93,2.17-4.38c.88-1.72,1.72-3.48,2.72-5.14,1.38-2.28,2.82-4.54,4.39-6.7a92.89,92.89,0,0,1,6-7.69c1.89-2.12,4.13-3.94,6.21-5.89.1-.1.14-.26.24-.36a32,32,0,0,1,5.52-4.6c1.38-.89,2.51-2.17,3.84-3.15,2.32-1.69,4.7-3.28,7.06-4.92,1.5-1,3-2.11,4.49-3.11,1.68-1.11,3.4-2.16,5.12-3.21q3.75-2.3,7.54-4.54a7.67,7.67,0,0,1,2-.8c1.6-.38,3.23-.65,4.84-1,1.79-.4,3.56-.87,5.35-1.29.82-.19,1.64-.38,2.48-.49,2.58-.35,5.16-.67,7.74-1,1.13-.14,2.26-.27,3.4-.38C96.2.3,98,.15,99.7,0A9.8,9.8,0,0,1,100.83.09Z"/></g></g></svg>