<svg xmlns="http://www.w3.org/2000/svg" viewBox="0 0 299.47 253.85"><g id="Layer_2" data-name="Layer 2"><g id="Layer_1-2" data-name="Layer 1"><path d="M155.56,253.85q-6-.33-12.05-.68c-4.77-.29-9.54-.57-14.31-.91a92.28,92.28,0,0,1-20.44-3.76c-2.73-.83-5.5-1.51-8.18-2.44A71.18,71.18,0,0,1,94,243.25a82.47,82.47,0,0,1-7.82-3.89c-3.41-2-6.71-4.26-9.93-6.58-4.18-3-8.21-6.2-12.35-9.25A83.37,83.37,0,0,1,53,213.6c-2.43-2.56-4.84-5.14-7.15-7.81-1.5-1.73-2.83-3.61-4.17-5.46-2-2.8-3.95-5.65-5.92-8.48-2.22-3.2-4.47-6.38-6.62-9.63-2.89-4.39-5.76-8.8-8.53-13.27-2.37-3.83-4.6-7.74-6.84-11.64a6.63,6.63,0,0,1-.76-4.57c.32-1.89.38-3.82.75-5.69a8.71,8.71,0,0,1,2.95-4.91c1-.89,1.82-2.09,2.91-2.88,4.85-3.45,9.76-6.81,14.65-10.19,2.11-1.45,4.19-2.95,6.37-4.28,3.63-2.22,7.3-4.39,11-6.47,3-1.67,6-3.2,9.05-4.74,3.61-1.83,7.21-3.66,10.88-5.36s7.35-3.31,11.1-4.78,7.76-2.9,11.69-4.2c4.2-1.39,8.43-2.65,12.67-3.92,2.76-.82,5.53-1.65,8.34-2.3,3.78-.87,7.58-1.69,11.41-2.32s7.53-.8,11.26-1.44,7.65-.26,11.47-.26a53.51,53.51,0,0,1,7.79,1c3.18.49,6.36,1,9.53,1.56,1.79.33,3.55.82,5.33,1.25,2,.49,4.07.9,6.06,1.51a67.13,67.13,0,0,1,8.14,2.75c4.57,2,9,4.39,13.49,6.6a92.6,92.6,0,0,1,12.71,8.18c4.76,3.4,9.36,7,14,10.61,3.81,3,7.63,5.93,11.3,9.07,2.26,1.94,4.25,4.21,6.35,6.35,2.62,2.67,5.26,5.33,7.84,8.05,3,3.14,5.91,6.35,8.86,9.53,2,2.18,4.09,4.35,6.1,6.55,1.35,1.47,3,2.79,3.88,4.5a118.23,118.23,0,0,0,6.45,10.19,18.36,18.36,0,0,1,3,7.76,3.14,3.14,0,0,1-.21,1.75c-1,2.06-2.17,4-3.18,6.09s-2.79,3-4.38,4.29c-4.11,3.33-8.23,6.66-12.38,9.94-6,4.79-12.08,9.57-18.17,14.28a192,192,0,0,1-18.71,12.93c-4.13,2.48-8.21,5-12.37,7.41a66.81,66.81,0,0,1-13.43,6.29c-3.19,1-6.45,1.76-9.7,2.51-3.59.82-7.19,1.6-10.82,2.2-2.85.48-5.74.72-8.63.95-3.14.25-6.3.38-9.46.53-1.13.05-2.26,0-3.38,0ZM118.91,123.51l-.11.29c-2.63.17-5.27.33-7.89.53-2,.15-4,.32-6.07.54a38,38,0,0,0-10,2c-3,1.18-6.08,2-9,3.32-4.11,1.87-8.06,4.05-12.09,6.08-3.4,1.71-7,3.12-10.16,5.16a141.46,141.46,0,0,1-15.91,8.76,27.49,27.49,0,0,0-8.81,6.18,2.62,2.62,0,0,0-.76,1.43,24.47,24.47,0,0,0,.4,4.36c.57,3,2.53,5.31,4.23,7.66a105.32,105.32,0,0,0,7.48,8.89c3.93,4.33,7.87,8.66,12,12.77a108.82,108.82,0,0,0,8.65,7.37c1.78,1.43,3.85,2.51,5.56,4a44.6,44.6,0,0,0,9,6A69.68,69.68,0,0,0,92.28,212c4.73,1.85,9.51,3.57,14.28,5.32a3.25,3.25,0,0,0,1.44.22,15.93,15.93,0,0,0,2.11-.54,6.71,6.71,0,0,0-.77-2.14c-3.35-3.89-5.27-8.61-7.3-13.18a57.75,57.75,0,0,1-4.64-15.28c-.5-3.56-1.44-7.11-1.57-10.68-.17-5,.17-9.93.43-14.89a14.85,14.85,0,0,1,.95-4.72,78.11,78.11,0,0,1,4.29-9.45,52.82,52.82,0,0,1,5.1-7.21,70.8,70.8,0,0,1,6.07-6.87c2.42-2.35,5.1-4.44,7.7-6.6.61-.51.86-1,.2-1.54A11.38,11.38,0,0,0,118.91,123.51Zm57.42,98c.71-.06,1.43-.08,2.13-.18,3.82-.54,7.65-1.05,11.45-1.68a64.05,64.05,0,0,0,7.4-1.58,60.08,60.08,0,0,0,6.82-2.53c3-1.25,5.9-2.52,8.74-4,3.15-1.64,6.18-3.52,9.25-5.31,2.07-1.21,4.2-2.34,6.17-3.69s3.94-3.06,5.91-4.58c3.94-3.05,7.89-6.08,11.82-9.14,1.23-1,2.32-1.94,2.09-3.82a7.51,7.51,0,0,0-1.52-4.37c-3.73-4.31-7.56-8.57-11.11-13a113.09,113.09,0,0,0-10-11.61c-1.08-1-1.84-2.37-2.84-3.48-1.35-1.52-2.78-3-4.19-4.42-2.94-3-5.78-6.16-9.29-8.57a45.54,45.54,0,0,0-11.81-5.81Q192,132,186.65,130.36a2.81,2.81,0,0,0-1.12-.08c-1.32.12-1.8,1.05-1.12,2.18.52.85,1.1,1.66,1.59,2.53a49.48,49.48,0,0,1,2.91,5.29c1.06,2.48,1.87,5.06,2.76,7.62.61,1.74,1.21,3.49,1.72,5.26s.85,3.3,1.24,5a31.1,31.1,0,0,1,1,4.7c.29,3.68.3,7.37.54,11.05.35,5.31-1.31,10.19-3.67,14.71-2.69,5.15-6,10-9.06,14.92a3.75,3.75,0,0,1-.35.44q-5.82,6.9-11.62,13.82a1,1,0,0,0,0,1C172.64,220.4,173.9,222,176.33,221.51Z"/><path d="M133.54,0l46.54,2.88c-3.41,15.83-6.8,31.55-10.21,47.36-2.72-.12-5.34-.23-8-.37l-10.72-.59c-3.64-.2-7.29-.42-10.94-.6-.92,0-1.23-.48-1.32-1.32q-1.14-11.28-2.31-22.56T134.18,2a6.77,6.77,0,0,0-.06-1A5.23,5.23,0,0,0,133.54,0Z"/><path d="M263.86,90.15c-8.16-8.22-16.2-16.44-26.23-22.45l24.31-33.87-.56-.95c.38,0,.89-.13,1.13.06C269.73,38.56,277.21,43.85,284,50c4.67,4.28,9.42,8.47,14.13,12.7.41.37.81.77,1.36,1.28Z"/><path d="M30.61,24.24c1.56,3.6,3.06,7.07,4.55,10.55q3.56,8.24,7.1,16.48,2.7,6.25,5.42,12.5c.23.54.4.94-.31,1.37C41.07,69,34.8,73,28.38,76.94L1.65,45.67l.05.83-.2.13C1,45.92.49,45.23,0,44.49a.88.88,0,0,1,.09-.68c0-.08.37,0,.55,0a4,4,0,0,0,1.16-.4q12-8,24-16C27.43,26.32,29,25.3,30.61,24.24Z"/></g></g></svg>