<svg xmlns="http://www.w3.org/2000/svg" viewBox="0 0 140 209.83"><g id="Layer_2" data-name="Layer 2"><g id="Layer_1-2" data-name="Layer 1"><path d="M0,65.76c.17-3.27.19-6.55.56-9.8A87.14,87.14,0,0,1,2.25,45.78c1.07-4.57,2.23-9.14,4.51-13.32a32.94,32.94,0,0,1,6.74-8.6c3-2.78,6-5.69,9.11-8.36a49.85,49.85,0,0,1,9.73-6.78,54.14,54.14,0,0,1,14.81-5A141,141,0,0,0,61.9.61c3.6-1,7-.56,10.4.11C77.62,1.77,83,2.85,88.15,4.39A73.6,73.6,0,0,1,98.46,8.85c3.17,1.5,6.31,3.11,9.38,4.81,5.71,3.17,11.21,6.66,15.74,11.47,2,2.14,4.12,4.21,6.06,6.41a25.35,25.35,0,0,1,5.54,9.26c.9,2.92,1.95,5.81,2.69,8.77a42.91,42.91,0,0,1,1,6.88c.45,6,.85,12,1.1,18a59.48,59.48,0,0,1-.41,7.41c-.49,6-3.29,11.28-5.46,16.74-1.62,4.08-3.53,8.05-5.27,12.08-2.84,6.61-5.72,13.21-8.46,19.86-1.48,3.6-2.74,7.3-4,11a26.47,26.47,0,0,0-1.16,11.18,81.54,81.54,0,0,0,1.18,8.68,21,21,0,0,0,1.81,4.93,9.66,9.66,0,0,1,.21,7.81A21.72,21.72,0,0,0,117,182a9.38,9.38,0,0,0,1.11,3.69,7.61,7.61,0,0,1,.39,6.48c-.65,1.58.2,3,.12,4.52a9.07,9.07,0,0,1-.33,2.61,13.11,13.11,0,0,1-4.73,5.69,4.88,4.88,0,0,1-2,.65c-3.92.79-7.85,1.53-11.77,2.33a73.74,73.74,0,0,1-7.53,1.61c-3.24.32-6.53.19-9.79.23-1.13,0-2.26-.1-3.39-.06a8.18,8.18,0,0,1-8-4.8,106.76,106.76,0,0,1-5.35-12.09,55.76,55.76,0,0,1-2.89-13.81,84.39,84.39,0,0,0-1.26-8.68,60.67,60.67,0,0,0-2.41-9.27,64.68,64.68,0,0,0-4.1-7.87c-.6-1.1-1.31-2.14-2-3.2a22,22,0,0,0-7.78-7,69.09,69.09,0,0,1-13.57-10.58c-4.53-4.55-9.16-9-13.76-13.5-2.78-2.71-4.45-6.12-6.11-9.53-1.34-2.75-2.71-5.5-3.87-8.32-1.56-3.79-2.88-7.67-4.4-11.47s-2.18-7.84-3-11.83a23.71,23.71,0,0,1-.32-4.39c-.05-2.55,0-5.11,0-7.67Z"/></g></g></svg>