<svg xmlns="http://www.w3.org/2000/svg" viewBox="0 0 92.51 49.38"><g id="Layer_2" data-name="Layer 2"><g id="Layer_1-2" data-name="Layer 1"><path d="M69.68,10.54,92.49,20.1c.18,1.77-1.41,2-2.2,2.88a31.54,31.54,0,0,1-4,3.2c-1.77,1.36-3.59,2.67-5.33,4.08s-3.12,2.85-4.79,4.12c-3.29,2.51-6.66,4.91-10,7.35s-6.52,4.78-9.77,7.18a2.3,2.3,0,0,1-2.4.24c-2.82-1.1-5.66-2.1-8.51-3.08-2.16-.74-4.36-1.34-6.5-2.11-1.51-.54-1.56-1.09-.43-2.25l3.56-3.66c4.8-4.93,9.54-9.91,14.41-14.78,3.49-3.48,7.15-6.79,10.71-10.19C68.08,12.26,68.88,11.37,69.68,10.54Z"/><path d="M44.13,3.43l-.29.14L56,6.74a8,8,0,0,1-1,1.39q-4.12,3.49-8.29,6.94C44.31,17,41.94,19,39.6,20.91s-4.44,3.76-6.66,5.63c-2.46,2.07-4.94,4.11-7.4,6.18A34.47,34.47,0,0,0,22,35.81a4.48,4.48,0,0,1-4.88,1.38C11.76,36,6.33,34.92.92,33.79a1.4,1.4,0,0,1-.9-.5c-.09-.21.15-.68.37-.92,3-3.38,6.07-6.72,9.08-10.12,1-1.09,1.76-2.35,2.75-3.44,1.26-1.39,2.64-2.69,4-4C18.59,12.37,21,10,23.4,7.54s4.67-4.91,7-7.34A1.08,1.08,0,0,1,31.32,0c2.42.65,4.82,1.37,7.24,2C40.46,2.56,42.38,3,44.13,3.43Z"/></g></g></svg>