<svg xmlns="http://www.w3.org/2000/svg" viewBox="0 0 192.84 144.44"><g id="Layer_2" data-name="Layer 2"><g id="Layer_1-2" data-name="Layer 1"><path d="M73.64,0h15.6C92,0,94.71,0,97.45.09s5.29.18,7.94.21c3.87,0,7.75,0,11.62,0,.88,0,1.75-.2,2.63-.22s1.89.09,2.83.1c3.89.07,7.77.12,11.66.17,1.43,0,2.85,0,4.27.05a2.89,2.89,0,0,1,1.36.64c3.06,2.21,6.14,4.4,9.16,6.68,2.86,2.16,5.64,4.41,8.48,6.61,1.5,1.15,3,2.25,4.54,3.41,2.6,2,5.17,4.09,7.77,6.12,2.2,1.72,4.42,3.41,6.62,5.12a17.51,17.51,0,0,1,2,1.7,3.34,3.34,0,0,1,.64,1.37q.74,2.54,1.41,5.09c.74,2.78,1.44,5.56,2.18,8.33.64,2.35,1.32,4.69,2,7,.73,2.68,1.47,5.36,2.13,8.05,1,4,1.93,8,2.87,12,.81,3.43,1.62,6.85,2.4,10.28.34,1.5.65,3,.87,4.52a3.63,3.63,0,0,1-.28,1.57c-.51,1.61-1.07,3.19-1.59,4.79-.92,2.86-1.82,5.73-2.72,8.6-1,3.08-1.89,6.16-2.85,9.24-.88,2.8-1.78,5.6-2.68,8.4-.74,2.32-1.48,4.65-2.27,7a1.44,1.44,0,0,1-.81.76c-5.23,1.88-10.48,3.71-15.73,5.56-4.91,1.72-9.82,3.46-14.73,5.17-2.88,1-5.77,2-8.65,3s-5.54,1.9-8.32,2.8a5.43,5.43,0,0,1-1.88.23c-2.35-.13-4.69-.37-7-.49-3.22-.18-6.44-.26-9.65-.43-4.48-.22-9-.48-13.45-.74l-11.29-.65q-7-.41-14.06-.79c-2.31-.13-4.62-.2-6.93-.34-4.66-.28-9.31-.59-14-.87-1-.06-2,0-3-.07-2.8-.11-5.6-.2-8.4-.37a2.84,2.84,0,0,1-1.38-.63q-3.39-2.53-6.73-5.15c-1-.81-2-1.68-3-2.53-2-1.7-4-3.39-5.93-5.11s-3.67-3.33-5.52-5-3.7-3.25-5.57-4.86-3.78-3.26-5.67-4.88-3.85-3.25-5.74-4.91a28.61,28.61,0,0,1-2.41-2.39c-.81-.91-.42-2.06-.4-3.1,0-1.48.22-3,.3-4.43s.1-3.13.2-4.7c.14-2.16.37-4.32.5-6.48.25-4.23.45-8.45.67-12.68.13-2.43.29-4.87.37-7.3.06-1.56-.06-3.12,0-4.67.13-2.15.4-4.3.57-6.45.09-1.08.08-2.18.11-3.27.06-2.46.1-4.92.2-7.39a1.48,1.48,0,0,1,.48-.94q4.95-4.3,9.94-8.56c2.1-1.79,4.26-3.52,6.37-5.3,2.46-2.08,4.88-4.2,7.34-6.28,2.1-1.78,4.2-3.55,6.34-5.28,2-1.6,4-3.15,6-4.69,3-2.31,6-4.66,9.07-6.86,2.8-2,5.72-3.82,8.61-5.69A1.72,1.72,0,0,1,58.12,0H73.64Zm-20,39.73a29.53,29.53,0,0,0-9-.28c-3.13.42-6.28.8-9,2.6-1.14.75-2.25,1.57-3.45,2.2-3.3,1.72-5.23,4.64-6.65,7.86a80.63,80.63,0,0,0-3.24,9.1,18,18,0,0,0-.75,4.94,15.39,15.39,0,0,0,.64,4c.72,3,1.63,5.84,4.2,7.84a8.21,8.21,0,0,1,1.08,1.23c-1.28,1.61-2.57,3.09-3.71,4.69a8.9,8.9,0,0,0-1.77,6,31.89,31.89,0,0,0,.41,4.49,7.51,7.51,0,0,0,1.46,3.26A17.71,17.71,0,0,0,28,101.2a25.72,25.72,0,0,0,5.58,2.3,37.59,37.59,0,0,0,11,1.45h2.59c.3,1.17.52,2.25.86,3.3a15.1,15.1,0,0,0,4.1,6.67,11.89,11.89,0,0,0,6.31,2.91c1.88.3,3.82.26,5.72.41,5,.39,9.89.25,14.65-1.52,1.55-.57,1.59-.52,2.65.74a13.49,13.49,0,0,0,8,4.84c2.76.55,5.49,1.31,8.21,2a12.2,12.2,0,0,0,6.77.31c2.21-.69,4.4-1.46,6.55-2.31a20,20,0,0,0,3.43-1.87c2.36-1.57,4.66-3.24,7-4.83a1.46,1.46,0,0,1,1.09-.06,42.41,42.41,0,0,0,5.22,1.71,23.74,23.74,0,0,0,8-.44,37.45,37.45,0,0,0,8.73-2.58,35.75,35.75,0,0,0,8.07-4.19,9.3,9.3,0,0,0,3.7-4.83,12.18,12.18,0,0,0,.17-7.27,1.17,1.17,0,0,1,.24-1c.91-.66,1.89-1.21,2.86-1.79a13,13,0,0,0,5.11-4.85c.6-1.14,1.1-2.34,1.64-3.52C167.4,84,168.88,81.3,168.9,78a20.09,20.09,0,0,0-1.05-7.13,13.19,13.19,0,0,0-5.25-6.12,1.48,1.48,0,0,1-.64-1,20.85,20.85,0,0,0-3-10.23,3.24,3.24,0,0,1-.35-1.22,8.58,8.58,0,0,0-1.91-5,28.33,28.33,0,0,0-9.41-7.2c-2.22-1.12-4.59-1.95-6.81-3.06a20.19,20.19,0,0,0-11.78-2.23,4.86,4.86,0,0,1-1.71.17c-1.59-.42-3.15-1-4.71-1.49s-3.09-1.19-4.69-1.55c-2.31-.52-4.66-.85-7-1.22-1.49-.24-3-.48-4.49-.57a16.49,16.49,0,0,0-6.15,1.3c-1.36.47-2.88.66-3.74,2.12a4.9,4.9,0,0,1-.13-.95,4.18,4.18,0,0,0-.14-.94c-1.73-5.22-5.44-8.34-10.58-9.93-1.74-.54-3.51-.2-5.27-.21a21.46,21.46,0,0,0-8.3,1.93c-2.92,1.19-5.78,2.53-8.68,3.79a15.72,15.72,0,0,0-8.7,9.22C54.07,37.57,53.89,38.63,53.59,39.76Z"/></g></g></svg>