<svg xmlns="http://www.w3.org/2000/svg" viewBox="0 0 141.33 161.96"><g id="Layer_2" data-name="Layer 2"><g id="Layer_1-2" data-name="Layer 1"><path d="M28.33,162c-3.09-.37-7.2-.63-11.2-1.45a32.11,32.11,0,0,1-7.67-2.9,82,82,0,0,1-7.85-4.67c-2.24-1.43-1.91-3.77-.42-5.29a2,2,0,0,1,1.25-.31c3.23-.16,6.48-.09,9.68-.48a33.73,33.73,0,0,0,13.5-4.7,33.56,33.56,0,0,0,10.94-10c.57-.86,1.19-1.7,1.76-2.58A1.84,1.84,0,0,0,38,127c-2.26-2.37-4.39-4.86-6.73-7.15A68.34,68.34,0,0,1,20,105.29c-.54-.92-.78-2-1.35-2.93-2.32-3.7-3.42-7.88-4.87-11.93a87.66,87.66,0,0,1-3-9.21C9.39,75.38,7.57,69.64,7.21,63.58A68.76,68.76,0,0,1,7.51,50a4.62,4.62,0,0,1,.35-1.07,51.32,51.32,0,0,1,4.68-10c1.36-2.06,2.84-4,4.26-6.07a7.14,7.14,0,0,0,.68-1.17,21.44,21.44,0,0,1,4.75-6.37c2.62-2.53,4.87-5.46,7.57-7.9a39.79,39.79,0,0,1,7.4-5.3C41.28,9.86,45.51,7.85,49.79,6a74,74,0,0,1,12-4.34C65.8.72,70-.31,74.23.09a14.15,14.15,0,0,1,1.46.14c4.15.84,8.37,1.31,12.4,2.8,2.3.85,4.85,1,7.27,1.57a10.29,10.29,0,0,1,2.53.89c3.88,2,7.74,4.06,10.86,7.18,2.68,2.69,5.11,5.64,7.84,8.27a39.81,39.81,0,0,1,6.53,8.17c.95,1.57,2.4,2.82,3.41,4.35,1.28,1.94,2.23,4.1,3.53,6a81.56,81.56,0,0,1,7.24,13.59,56.45,56.45,0,0,1,3.61,12.06A39.9,39.9,0,0,1,141,75.94c-.33,4.09-1.57,8-2.21,12-.95,6-3.54,11.3-5.64,16.83-2.53,6.69-7,12.18-11.44,17.63a101.37,101.37,0,0,1-8.29,8.56,44.47,44.47,0,0,1-4.48,3.58c-4.57,3.43-9,7-13.8,10.17a99.59,99.59,0,0,1-11.2,6A78.53,78.53,0,0,1,74,155a122.4,122.4,0,0,1-13.34,3.54c-4.17.88-8.43,1.4-12.67,1.93-3.66.47-7.33.77-11,1.06C34.47,161.75,31.91,161.8,28.33,162Z"/></g></g></svg>