<svg xmlns="http://www.w3.org/2000/svg" viewBox="0 0 26 26"><defs><style>.cls-1{fill:#fcfefb;}.cls-2{fill:#44fe22;}.cls-3{fill:#3afe15;}</style></defs><g id="Layer_2" data-name="Layer 2"><g id="Layer_1-2" data-name="Layer 1"><path class="cls-1" d="M0,10.65V0H26V26H14.86a1.39,1.39,0,0,1,.39-.22A12.89,12.89,0,1,0,.48,9.58,9.23,9.23,0,0,1,0,10.65Z"/><path class="cls-2" d="M0,10.65A9.23,9.23,0,0,0,.48,9.58a12.89,12.89,0,1,1,14.77,16.2,1.39,1.39,0,0,0-.39.22H10.65a3.91,3.91,0,0,0-.63-.28A13,13,0,0,1,.28,16,3.91,3.91,0,0,0,0,15.35Zm24.76,2.46A11.88,11.88,0,1,0,12.89,25,11.9,11.9,0,0,0,24.76,13.11Z"/><path class="cls-1" d="M0,15.35A3.91,3.91,0,0,1,.28,16,13,13,0,0,0,10,25.72a3.91,3.91,0,0,1,.63.28H0Z"/><path class="cls-3" d="M12.93,4.21A8.92,8.92,0,1,1,4,13,8.93,8.93,0,0,1,12.93,4.21Z"/></g></g></svg>