<svg xmlns="http://www.w3.org/2000/svg" viewBox="0 0 26 26"><defs><style>.cls-1{fill:#44fe21;}.cls-2{fill:#3cfe17;}</style></defs><g id="Layer_2" data-name="Layer 2"><g id="Layer_1-2" data-name="Layer 1"><path class="cls-1" d="M15,26H10.5a11.4,11.4,0,0,0-1.07-.49,12.89,12.89,0,0,1-9-9c-.13-.42-.31-.82-.47-1.23V10.5A11.4,11.4,0,0,0,.49,9.43a12.91,12.91,0,0,1,9-9c.42-.13.82-.31,1.23-.47H15a2.66,2.66,0,0,0,.52.23,12.64,12.64,0,0,1,9,6.89A33.92,33.92,0,0,1,26,11v4.5c-.17.4-.38.78-.51,1.19a12.81,12.81,0,0,1-6.93,8A35.78,35.78,0,0,1,15,26ZM13,1A12,12,0,1,0,25,13,12,12,0,0,0,13,1Z"/><path class="cls-2" d="M13,8a5,5,0,1,1-5,5A5,5,0,0,1,13,8Z"/></g></g></svg>