<svg width="22" height="24" viewBox="0 0 22 24" fill="none" xmlns="http://www.w3.org/2000/svg">
<path d="M0 18.5137L3.9619 19.7488L5.36752 18.3814L2.70933 15.7956L0 18.5137ZM4.94088 9.25616C4.73214 9.43537 4.58082 9.66921 4.50496 9.92979C4.4291 10.1904 4.43191 10.4667 4.51305 10.7257L5.03049 12.3778L3.01108 14.3426L6.82667 18.0543L8.8433 16.0926L10.538 16.5971C11.0824 16.7591 11.674 16.5967 12.0507 16.1813L13.4602 14.5752L6.58718 7.88919L4.94088 9.25616V9.25616ZM20.9324 3.05773L18.4265 0.620017C17.614 -0.170312 16.3099 -0.210041 15.4479 0.529374L7.55545 7.08498L14.287 13.6336L21.0256 5.95561C21.7861 5.11706 21.7453 3.84845 20.9324 3.05773V3.05773Z" fill="black"/>
<line x1="-9.10654e-08" y1="23.0002" x2="21.57" y2="23.0002" stroke="black" stroke-width="2"/>
</svg>
