<svg id="Layer_1" data-name="Layer 1" xmlns="http://www.w3.org/2000/svg" viewBox="0 0 348.79 381.52"><path d="M272.28,206.26c-1.23,3.7-2.19,7.07-3.47,10.32-2.58,6.57-5.35,13.06-8,19.6-1.48,3.64-2.89,7.31-4.33,11l-1.34,3.34q14.65,10.08,29.38,20.2c9.79,6.73,19.82,13.12,29.54,19.95l-.13.39c-1.13.27-2.25.59-3.39.81-4.31.84-8.62,1.63-12.93,2.49-3.36.66-6.7,1.42-10.07,2.1s-6.86,1.39-10.31,2a3.13,3.13,0,0,1-2-.58c-1.41-.9-2.74-1.93-4.09-2.91-3-2.14-5.9-4.31-8.89-6.42-1.42-1-3-1.86-4.39-2.85s-3-2.25-4.52-3.27c-3-1.95-6-3.81-9-5.7-1-.63-2.1-1.16-3.07-1.86s-1.23-.27-1.58.59c-1.13,2.75-2.17,5.55-3.53,8.19a83.3,83.3,0,0,1-11.59,16.59c-4.29,4.9-8.63,9.75-13.08,14.51a22.55,22.55,0,0,1-4.44,3.34c-4.83,3.07-9.6,6.28-14.62,9a76.94,76.94,0,0,1-12.22,5.2,135.41,135.41,0,0,1-14.58,3.86,34.1,34.1,0,0,1-12.42.11c-4.76-.72-9.53-1.32-14.29-2-3.44-.53-6.88-1.06-10.27-1.82a54.26,54.26,0,0,1-18.4-8.26c-5.12-3.46-8.92-8.11-12.19-13.26-1.79-2.83-3.64-5.63-5.24-8.58a63.09,63.09,0,0,1-3.26-7.43,18.09,18.09,0,0,1-.56-3.42c-.41-2.23-.9-4.45-1.28-6.69-.51-2.92-1-5.85-1.41-8.78-1.21-8.15-1.15-16.37-1-24.57a87.2,87.2,0,0,1,1.5-13,73.87,73.87,0,0,1,2.32-7.84c.39-1.32.55-2.72,1-4,1.48-3.95,3.09-7.84,4.62-11.77a78.79,78.79,0,0,1,6.39-12.84q5.49-9,11.1-17.88a1.42,1.42,0,0,0-.24-2.12c-3.76-3.52-7.53-7.05-11.23-10.64q-6.36-6.16-12.6-12.44c-2.36-2.37-4.63-4.84-6.86-7.34-2.62-2.93-5.23-5.88-7.69-8.95-2.09-2.6-4-5.38-5.9-8.1a27.21,27.21,0,0,1-3.15-4.78c-1.28-3-2.22-6.1-3.24-9.19a51.22,51.22,0,0,1-2.18-17.65,63.63,63.63,0,0,1,1.21-9.71,68.14,68.14,0,0,1,2.37-9.69,76.75,76.75,0,0,1,4.39-10.37,54.41,54.41,0,0,1,5.6-8.75,65,65,0,0,1,6.36-6.27c2.45-2.33,4.88-4.69,7.4-7a40.59,40.59,0,0,1,12-7.15c2.15-.87,4.28-1.82,6.45-2.63a15.16,15.16,0,0,1,2.93-.65c2.11-.36,4.22-.67,6.33-1a57.48,57.48,0,0,1,15.39-.23c1.72.18,3.45.2,5.18.32a34.78,34.78,0,0,1,11.62,2.9c3.74,1.63,7.4,3.46,11.06,5.27a27.67,27.67,0,0,1,8.39,6,47,47,0,0,1,4.19,5.94c2.5,3.82,5,7.64,7.37,11.54,1.57,2.6,2.91,5.35,4.38,8a31.2,31.2,0,0,1,3.58,14,97,97,0,0,1-.06,11,73.92,73.92,0,0,1-1.4,8.42c-.37,1.93-.77,3.87-1.28,5.77-.58,2.19-1.18,4.38-2,6.49a102.2,102.2,0,0,1-4.42,10.82,101.1,101.1,0,0,1-6.9,11.29c-2.73,3.94-6,7.53-8.7,11.46-3.14,4.53-6,9.29-9,13.93-.48.74,0,1,.46,1.34,2,1.5,4,3,5.91,4.46,2.49,1.9,4.94,3.84,7.44,5.72,2.25,1.68,4.55,3.3,6.82,4.95,3.48,2.53,6.94,5.07,10.43,7.58,4.28,3.09,8.61,6.12,12.88,9.23s8.7,6.52,13.09,9.73c3.26,2.39,6.58,4.7,9.88,7q4.41,3.11,8.84,6.16a4.51,4.51,0,0,0,1.07.6c.77.29,1.4.46,1.79-.69.91-2.63,2-5.19,3-7.8,1.11-2.91,2.17-5.84,3.31-8.74a1.31,1.31,0,0,1,.9-.68c3.26-.49,6.53-.9,9.8-1.38,3-.45,6-1,9-1.45,3.67-.57,7.33-1.15,11-1.71C268.91,206.72,270.46,206.51,272.28,206.26ZM108.75,261.44c.28,2.2.49,5.35,1.13,8.42a79,79,0,0,0,2.77,9.9,13.94,13.94,0,0,0,4,6.29,14.38,14.38,0,0,1,1.59,1.42c1.34,1.54,2.53,3.2,3.94,4.68a19.79,19.79,0,0,0,7.88,5.5c3.12,1.05,6.25,2.12,9.41,3a105.77,105.77,0,0,0,10.45,2.63,59.65,59.65,0,0,0,15.28.75c5.64-.46,11.17-1.3,16.31-3.82,4.47-2.18,8.72-4.64,12-8.47,2.07-2.4,4.24-4.71,6.33-7.1,2.56-2.91,5.3-5.69,7.56-8.82a118.51,118.51,0,0,0,10-16,1,1,0,0,0-.35-1.48c-2.69-1.92-5.37-3.84-8-5.83-4.44-3.34-8.81-6.78-13.27-10.09-3.54-2.62-7.14-5.14-10.75-7.65-3.24-2.25-6.6-4.31-9.77-6.65-4.26-3.13-8.38-6.45-12.57-9.66s-8.16-6.32-12.35-9.33c-5-3.6-10.19-7-15.25-10.54a1.28,1.28,0,0,0-2.06.3c-1.35,1.79-2.66,3.61-4.06,5.36a58,58,0,0,0-6.69,10.52c-2.15,4.32-4,8.78-5.88,13.24-1.1,2.64-2,5.36-2.91,8.08-.84,2.54-1.62,5.1-2.28,7.69a71,71,0,0,0-1.66,7.87C109.12,254.6,109,257.54,108.75,261.44Zm43.92-158.18c-.4-3-.64-5.9-1.22-8.76-.9-4.38-2.29-8.61-5.09-12.19-2.11-2.69-4.05-5.5-7.14-7.31-4.63-2.74-9.29-5.18-14.91-4.72-.67,0-1.35-.11-2-.08-1.86.08-3.8-.12-5.54.39a32.36,32.36,0,0,0-13.17,8A31.46,31.46,0,0,0,96,88.68c-1.44,3.25-3,6.49-3.24,10.08a59.73,59.73,0,0,0,.07,10.36,66.49,66.49,0,0,0,2.22,10.5c1.42,5.08,4.38,9.33,7.82,13.25q5.74,6.54,11.56,13a74.86,74.86,0,0,0,9.61,9c.57.44,1.09.6,1.67,0,1.7-1.78,3.44-3.51,5.12-5.3,2.14-2.26,4.31-4.49,6.33-6.85,3.07-3.58,6.15-7.2,8.07-11.56,1.48-3.37,2.67-6.87,3.94-10.33a34.2,34.2,0,0,0,1.34-4.28c.43-1.89.71-3.82,1-5.74C151.94,108.29,152.3,105.77,152.67,103.26Z"/></svg>