<svg id="Layer_1" data-name="Layer 1" xmlns="http://www.w3.org/2000/svg" viewBox="0 0 257.65 199.21"><path d="M82.74,33c5.79,13.36,11.49,26.55,17.2,39.73l.19-.25a7.36,7.36,0,0,1,1.46.88c1.52,1.45,1.68,1.44,3.41.69,2.46-1,5-2,7.46-3s5.25-2,7.88-3c2.23-.85,4.47-1.64,6.69-2.52,2.87-1.14,5.71-2.36,8.58-3.51,2.71-1.09,5.44-2.11,8.15-3.2,2.88-1.16,5.74-2.38,8.62-3.54,2.43-1,4.89-1.88,7.32-2.84s4.9-2,7.36-3c2.89-1.14,5.81-2.24,8.71-3.38,2.41-1,4.79-2,7.19-2.93s5.06-2,7.58-3c2-.79,4-1.62,6-2.45.45-.18.89-.57,1.34-.58a1.36,1.36,0,0,1,1,.68c1.72,4,3.38,8,5,12,1.22,2.93,2.41,5.88,3.65,8.81,1.06,2.47,2.21,4.9,3.27,7.37s2,4.89,3,7.33a18,18,0,0,0,1.41,3.27c.75,1.13,0,1.31-.73,1.55-1.71.6-3.45,1.13-5.17,1.7l-15.9,5.33c-3.71,1.25-7.42,2.49-11.12,3.78-5,1.74-10,3.53-15,5.3l-9.72,3.47c-3.62,1.29-7.23,2.61-10.86,3.87-6.19,2.16-12.39,4.27-18.58,6.44-2.09.73-4.13,1.6-6.23,2.34-1.76.62-3.56,1.14-5.35,1.71-.46.14-.9.31-1.64.57.41,1.4.76,2.79,1.22,4.15.68,2,1.41,4,2.16,6,.55,1.47,1.22,2.89,1.75,4.37.82,2.35,1.5,4.74,2.35,7.07s1.76,4.3,2.58,6.48c.69,1.84,1.27,3.73,1.92,5.58.72,2.07,1.48,4.13,2.2,6.19.27.76.5,1.53.71,2.3.07.25.14.66,0,.76a1,1,0,0,1-.82.11c-3-.94-6-1.93-9.09-2.87-3.25-1-6.54-1.92-9.78-3-3.92-1.26-7.78-2.72-11.72-3.91-5.18-1.56-10.42-3-15.63-4.42-3.34-.95-6.66-1.95-10-2.89-4.13-1.16-8.27-2.27-12.4-3.44-3.48-1-6.94-2.05-10.42-3.08-4.3-1.28-8.59-2.56-12.9-3.82q-3.73-1.09-7.48-2.13c-1.73-.48-1.81-.79-.75-2.28,1.91-2.69,3.76-5.41,5.63-8.13,1.38-2,2.8-4,4.13-6s2.5-4.08,3.76-6.11c1.36-2.21,2.78-4.38,4.08-6.62,1.84-3.17,3.57-6.42,5.4-9.61C54.42,83,57,78.77,59.47,74.43c1.18-2.08,2.13-4.28,3.28-6.37,1.57-2.87,3.26-5.67,4.86-8.53C69.44,56.27,71.22,53,73,49.72c1.42-2.53,2.88-5,4.29-7.58s2.94-5.37,4.43-8A8.57,8.57,0,0,1,82.74,33Z"/></svg>