<svg id="Layer_1" data-name="Layer 1" xmlns="http://www.w3.org/2000/svg" viewBox="0 0 175.9 146.26"><path d="M56,104.71,78.35,76.53,41,64.77l5-17,7.65,1.65,29.48,6.44c1.34.29,1.36.25,1.37-1.19q.08-15.48.17-31V22.24l22.06,2.25c-.14,1.45-.25,2.86-.41,4.25q-.63,5.6-1.29,11.19c-.42,3.54-.86,7.07-1.28,10.62s-.8,7.08-1.2,10.62c0,.15,0,.3,0,.45-.24,2.19-.2,2.29,2,2.11,3.63-.31,7.25-.73,10.88-1.07s7.26-.62,10.89-1,7.17-.69,10.76-1.05l.34,0c1.84-.19,1.85-.19,2.41,1.55,1.83,5.61,3.65,11.23,5.53,17l-34.17,3.9c.74,3.15,1.43,6.12,2.13,9.09q2.75,11.63,5.49,23.25c.17.7,0,1.06-.74,1.32q-7.33,2.52-14.62,5.14c-1,.35-1.21.08-1.36-.88-.33-2.18-.82-4.33-1.22-6.5-.22-1.2-.35-2.42-.55-3.62-.43-2.51-.89-5-1.32-7.53-.18-1-.34-2-.48-3-.18-1.29-.26-2.6-.49-3.88-.39-2.23-.86-4.45-1.28-6.68-.12-.61-.16-1.24-.26-2-9,9.56-15.89,20.5-23.77,30.88C66.26,115,60.26,111,56,104.71Z"/></svg>