<svg id="Layer_1" data-name="Layer 1" xmlns="http://www.w3.org/2000/svg" viewBox="0 0 205.97 198.19"><path d="M94.35,39.48C119,71.6,144.16,103,166.72,136.57c-.55.11-1.14.25-1.74.34l-16.4,2.34c-3.76.54-7.52,1-11.27,1.63a1.3,1.3,0,0,1-1.53-.72q-10.55-16.36-21.12-32.72-7.17-11.1-14.31-22.2c-.23-.37-.52-.71-.93-1.26l-2.06,4.88Q89,108.6,80.75,128.32c-3.11,7.37-6.23,14.74-9.29,22.13a2.22,2.22,0,0,1-2,1.48c-6.85,1.13-13.7,2.31-20.54,3.48L33.73,158c-.25,0-.52,0-.85.06C52,117.83,73.65,79,94.35,39.48Z"/></svg>