<svg id="Layer_1" data-name="Layer 1" xmlns="http://www.w3.org/2000/svg" viewBox="0 0 223.13 214.29"><path d="M74.94,187.1c-3.09-.38-7.2-.64-11.2-1.45a31.72,31.72,0,0,1-7.67-2.91,84.13,84.13,0,0,1-7.86-4.66c-2.23-1.44-1.91-3.78-.41-5.3a2,2,0,0,1,1.24-.31c3.23-.16,6.49-.08,9.69-.48a34,34,0,0,0,13.5-4.69,33.77,33.77,0,0,0,10.93-10c.58-.86,1.19-1.7,1.76-2.57a1.86,1.86,0,0,0-.27-2.55c-2.26-2.37-4.39-4.86-6.73-7.15A68.53,68.53,0,0,1,66.6,130.43c-.54-.93-.79-2-1.35-2.93-2.32-3.7-3.43-7.89-4.87-11.94a86.22,86.22,0,0,1-3-9.21c-1.36-5.83-3.17-11.58-3.53-17.64a68,68,0,0,1,.3-13.61A5.12,5.12,0,0,1,54.46,74a52.19,52.19,0,0,1,4.68-10C60.5,62,62,60,63.41,58a8.09,8.09,0,0,0,.68-1.17,21.63,21.63,0,0,1,4.74-6.38c2.63-2.53,4.88-5.46,7.58-7.9a40.19,40.19,0,0,1,7.39-5.3C87.88,35,92.11,33,96.39,31.15a74.43,74.43,0,0,1,12-4.34c4.06-1,8.21-2,12.49-1.59a11.68,11.68,0,0,1,1.45.15c4.15.83,8.37,1.3,12.4,2.79,2.3.85,4.85,1,7.27,1.57a10.29,10.29,0,0,1,2.53.89c3.88,2,7.75,4.06,10.86,7.18,2.69,2.69,5.11,5.64,7.85,8.27a40.38,40.38,0,0,1,6.52,8.17c.95,1.57,2.4,2.82,3.41,4.35,1.28,1.94,2.23,4.1,3.53,6A81.56,81.56,0,0,1,183.9,78.2a55.91,55.91,0,0,1,3.62,12.06,40.73,40.73,0,0,1,.11,10.81c-.34,4.09-1.58,8-2.22,12-.95,5.95-3.54,11.3-5.63,16.83-2.53,6.69-7,12.18-11.44,17.63a103,103,0,0,1-8.29,8.56,45.75,45.75,0,0,1-4.49,3.58c-4.57,3.43-9,7-13.79,10.17a99,99,0,0,1-11.21,6,79,79,0,0,1-9.92,4.3,125.39,125.39,0,0,1-13.34,3.55c-4.18.87-8.44,1.39-12.68,1.93-3.65.46-7.33.76-11,1.05C81.07,186.88,78.51,186.93,74.94,187.1Z"/></svg>