<svg id="Layer_1" data-name="Layer 1" xmlns="http://www.w3.org/2000/svg" viewBox="0 0 495.48 188.28"><path d="M79.51,35.19c3.53.22,7.06.35,10.58.68a56.33,56.33,0,0,1,18.39,5,58.14,58.14,0,0,1,15.17,10.41,13.9,13.9,0,0,1,2.37,4,63,63,0,0,1,3.41,7.14,58.71,58.71,0,0,1,2,7.91c.62,3,1.15,6,1.57,9.08.56,4,.88,8-.12,12-1.62,6.48-3,13-4.54,19.51a21,21,0,0,1-5.44,9.69c-3.36,3.58-6.71,7.17-10.09,10.73a17.29,17.29,0,0,1-8.31,4.52L96.14,138a54.8,54.8,0,0,1-12.69,1.8,33.7,33.7,0,0,1-8.82-.84c-3.55-.84-7.24-1.33-10.47-3.22-1.9-1.11-3.84-2.19-5.62-3.48-3.58-2.59-7.2-5.15-10.57-8a35.84,35.84,0,0,1-9.24-11.16c-1.75-3.54-3.4-7.13-5-10.75a39,39,0,0,1-2.4-6.52,32.39,32.39,0,0,1-.46-12.64c.38-2.4.54-4.85,1.07-7.22.79-3.52,1.24-7.1,2.54-10.52a91.83,91.83,0,0,1,8-15.28,20.63,20.63,0,0,1,8.73-8.26,107.26,107.26,0,0,1,11-4.27c2.06-.71,4.28-.9,6.39-1.46C72.23,35.24,75.86,35.33,79.51,35.19Z"/><path d="M353.58,103c.24-4.71.22-8.11.65-11.46a34.6,34.6,0,0,1,1.91-6.74,42.3,42.3,0,0,1,5.41-11.12,64.59,64.59,0,0,1,6.75-7.49c2.12-2.11,4.42-4,6.68-6,1.55-1.33,3-2.86,5.11-3.35,1.48-.34,2.94-.84,4.43-1.08,3.46-.55,6.92-1,10.4-1.45,2.3-.27,4.63-.33,6.95-.49,1.72-.11,3.44-.25,5.16-.34a34.2,34.2,0,0,1,9.14,1,33,33,0,0,1,5.61,2.1,56.67,56.67,0,0,1,8,3.76c4,2.5,8.09,4.9,10.58,9.18,1.53,2.64,3.5,5,4.93,7.71a48.86,48.86,0,0,1,3.4,8.15c1.17,3.71,1,7.62,1.05,11.47.08,3.33.15,6.69-.1,10a40.92,40.92,0,0,1-1.44,8.06c-1.18,4-2.56,8-4.13,12-.57,1.41-1.93,2.53-3,3.72-1.81,2-3.6,4.13-5.52,6a41.76,41.76,0,0,1-11.66,7.79,58.55,58.55,0,0,1-14,4.69,34.72,34.72,0,0,1-6,.27,23.32,23.32,0,0,1-4.5,0,46.43,46.43,0,0,1-7.87-1.85A101.07,101.07,0,0,1,381.05,143c-3.84-1.87-7.6-3.94-11.29-6.1a12.93,12.93,0,0,1-2.82-2.85c-3.62-4.14-6.94-8.51-9-13.65-1.15-2.88-2-5.9-2.93-8.86a10.14,10.14,0,0,1-.45-1.61C354.15,107.16,353.78,104.42,353.58,103Z"/><path d="M200.69,94.93a47.48,47.48,0,0,1,15.66-34.65c2.52-2.19,4.9-4.55,7.52-6.61a28.82,28.82,0,0,1,5.55-3.32,50.07,50.07,0,0,1,6.11-2.23c1-.32,2.13-.37,3.19-.59,2-.39,3.91-.81,5.86-1.22a3.44,3.44,0,0,1,.56-.09c2.32-.17,4.65-.22,7-.52,2.65-.34,4.9.69,7.16,1.73,3.3,1.52,6.62,3,9.83,4.7s6.6,3.55,9.73,5.6a25.89,25.89,0,0,1,4.2,4.05,47.63,47.63,0,0,1,4,4.52,37.62,37.62,0,0,1,4.2,6.56c1.74,3.87,3.1,7.9,4.55,11.9a14.57,14.57,0,0,1,.65,3.23c.46,3.83,1.27,7.63.32,11.52a31.6,31.6,0,0,1-4,9c-3.92,6.35-7.91,12.66-12,18.88a83.34,83.34,0,0,1-6.17,7.89,8.22,8.22,0,0,1-2.75,1.69,68,68,0,0,1-7.38,3.36,26,26,0,0,1-6.39,1.18,78.38,78.38,0,0,1-9.81.23,49.94,49.94,0,0,1-7.64-1.28c-4.33-.93-8.61-2.07-12.95-2.92-5.59-1.1-9.65-4.67-13.64-8.3a50.34,50.34,0,0,1-5.42-6c-2.2-2.77-3.39-6.08-4.48-9.39a100.52,100.52,0,0,1-3.14-10.65c-.5-2.36-.24-4.87-.32-7.31C200.61,95.61,200.67,95.27,200.69,94.93Z"/></svg>