<svg id="Layer_1" data-name="Layer 1" xmlns="http://www.w3.org/2000/svg" viewBox="0 0 116.76 98.02"><path d="M83.1,31.91l22.82,9.55c.14,1.76-1.43,2-2.23,2.88a34.21,34.21,0,0,1-4,3.2c-1.77,1.36-3.59,2.67-5.34,4.06-1.48,1.19-2.84,2.53-4.35,3.69C86.57,57.9,83.11,60.46,79.65,63c-3.25,2.39-6.53,4.75-9.79,7.13a2.33,2.33,0,0,1-2.49.28c-2.77-1.08-5.59-2.07-8.4-3-2.26-.78-4.56-1.43-6.81-2.24-1.21-.44-1.28-.93-.39-1.89,1.2-1.3,2.44-2.56,3.68-3.82,4.79-4.88,9.54-9.8,14.39-14.63,3.53-3.52,7.21-6.9,10.81-10.36C81.5,33.61,82.3,32.73,83.1,31.91Z"/><path d="M57.51,24.82l-.35.12,12.25,3.2a8.84,8.84,0,0,1-1.06,1.38q-4.12,3.5-8.29,6.92c-2.35,2-4.72,3.87-7.06,5.83s-4.5,3.88-6.78,5.79-4.86,4-7.27,6a32.45,32.45,0,0,0-3.51,3.09,4.49,4.49,0,0,1-4.89,1.36c-5.39-1.22-10.82-2.26-16.23-3.39-.33-.07-.78-.25-.89-.51s.16-.67.38-.92c3-3.37,6.07-6.7,9.08-10.08,1-1.1,1.76-2.36,2.75-3.44,1.26-1.39,2.63-2.69,4-4C32.31,33.43,35,30.73,37.72,28c2.07-2.11,4.07-4.28,6.13-6.4a.94.94,0,0,1,.78-.18c2.46.66,4.89,1.38,7.35,2C53.88,24,55.8,24.39,57.51,24.82Z"/></svg>