<svg id="Layer_1" data-name="Layer 1" xmlns="http://www.w3.org/2000/svg" viewBox="0 0 252.21 511.78"><path d="M40,50.29c1.85-.36,3.61-.72,5.37-1,3.94-.73,7.88-1.44,11.82-2.16l13.23-2.45,22-4.06q8.5-1.57,17-3.18l14.56-2.72c5.66-1.06,11.33-2.09,17-3.16,5.18-1,10.35-2,15.54-3,4.56-.85,9.13-1.62,13.69-2.45,4.08-.74,8.18-1.39,12.22-2.31,2.37-.54,2.62-.79,2.7,2.1.14,5.38.51,10.76.77,16.14,0,.79,0,1.58.07,2.37q.49,12.48,1,25c.13,3.13.28,6.25.43,9.37q.44,9,.9,17.94c.28,5.64.55,11.28.9,16.91.36,5.94.84,11.87,1.21,17.8.25,3.91.37,7.83.61,11.74.37,6.2.8,12.4,1.16,18.6.26,4.4.42,8.8.65,13.2.27,5.42.66,10.83.84,16.24.25,7.91.34,15.83.54,23.74.11,4.18.34,8.35.44,12.53.18,8.13.35,16.26.44,24.4.1,9.26.18,18.54.14,27.8-.07,13-.27,26-.4,39,0,2.73,0,2.78-2.66,3.37-10.92,2.47-21.86,4.9-32.79,7.36-8.12,1.83-16.25,3.66-24.36,5.54-1,.24-1.59,0-1.92-1q-9.41-26.43-18.81-52.88c-4.94-13.94-9.93-27.85-14.71-41.84-2.33-6.83-4.24-13.8-6.32-20.71q-6.33-21-12.65-41.91c-5-16.8-10.23-33.56-15-50.42C59.34,104.1,51.16,82.67,43.73,61c-1.1-3.22-2.24-6.43-3.36-9.64C40.26,51,40.17,50.72,40,50.29Z"/><path d="M199.81,444.85l-6.29-.77c-2.94-.37-5.87-.75-8.81-1.11-4.21-.51-8.42-1-12.64-1.5-5.23-.58-10.47-1.1-15.7-1.67-3.73-.42-7.45-.9-11.18-1.31q-4.63-.51-9.29-.94c-.73-.07-1.11-.1-1-1.1.34-3.29.53-6.59.74-9.89.46-7,.88-14,1.33-21.06q.36-5.64.79-11.26.45-5.85,1-11.69.6-6.8,1.25-13.58c.27-2.88.58-5.75.85-8.63.06-.61.19-.83.9-.73q7.53,1,15.07,1.85c4.66.54,9.32,1,14,1.59,4.13.49,8.24,1.06,12.37,1.57,3.35.41,6.7.76,10,1.16,4.2.5,8.4,1,12.6,1.56,1.33.16,2.67.35,4,.45a.87.87,0,0,1,.91,1.11q-1,8.43-2.1,16.85c-.44,3.53-.91,7.05-1.36,10.58-.62,4.8-1.22,9.6-1.87,14.39s-1.37,9.57-2,14.36c-.5,3.5-1,7-1.48,10.48q-.62,4.11-1.37,8.2C200.41,444.19,200,444.56,199.81,444.85Z"/></svg>