<svg id="Layer_1" data-name="Layer 1" xmlns="http://www.w3.org/2000/svg" viewBox="0 0 370.75 351.55"><path d="M192.62,305.68c-4-.23-8-.44-12.05-.68-4.77-.29-9.54-.57-14.31-.91a92.38,92.38,0,0,1-20.45-3.77c-2.72-.83-5.49-1.5-8.17-2.44a71.1,71.1,0,0,1-6.63-2.8,83.93,83.93,0,0,1-7.83-3.9c-3.4-2-6.7-4.26-9.92-6.57-4.18-3-8.21-6.2-12.35-9.26a84,84,0,0,1-10.81-9.92c-2.44-2.56-4.85-5.15-7.16-7.82-1.49-1.73-2.82-3.6-4.16-5.46-2-2.8-4-5.64-5.92-8.47-2.22-3.21-4.47-6.38-6.62-9.64-2.89-4.39-5.76-8.8-8.53-13.27-2.37-3.82-4.6-7.73-6.84-11.63a6.66,6.66,0,0,1-.76-4.58c.32-1.88.37-3.82.75-5.69a8.66,8.66,0,0,1,3-4.91c1-.89,1.81-2.09,2.91-2.87,4.84-3.46,9.75-6.82,14.65-10.2,2.11-1.45,4.19-2.94,6.37-4.28,3.63-2.22,7.29-4.38,11-6.47,3-1.66,6-3.2,9-4.74,3.61-1.82,7.21-3.66,10.87-5.35s7.36-3.31,11.11-4.79,7.76-2.89,11.69-4.19c4.2-1.39,8.43-2.66,12.67-3.92,2.76-.83,5.53-1.66,8.34-2.3,3.78-.88,7.58-1.7,11.41-2.32s7.53-.8,11.25-1.44,7.66-.26,11.48-.26a51.85,51.85,0,0,1,7.78,1c3.19.49,6.37,1,9.53,1.57,1.8.33,3.56.82,5.34,1.24,2,.49,4.06.91,6,1.51a66.74,66.74,0,0,1,8.15,2.76c4.57,2.05,9,4.39,13.49,6.6a92.53,92.53,0,0,1,12.71,8.17c4.75,3.41,9.36,7,14,10.61,3.82,3,7.64,5.93,11.31,9.08,2.26,1.94,4.25,4.21,6.35,6.34,2.62,2.67,5.26,5.33,7.84,8,3,3.15,5.9,6.35,8.86,9.53,2,2.19,4.08,4.36,6.1,6.56,1.34,1.46,3,2.79,3.88,4.49a116.71,116.71,0,0,0,6.45,10.19,18.58,18.58,0,0,1,3,7.77,3.24,3.24,0,0,1-.21,1.75c-1,2-2.18,4-3.18,6.09s-2.79,3-4.38,4.28c-4.12,3.33-8.23,6.66-12.39,9.95-6,4.78-12.07,9.57-18.16,14.28a193.93,193.93,0,0,1-18.72,12.93c-4.12,2.47-8.2,5-12.36,7.41a66.89,66.89,0,0,1-13.44,6.29c-3.18,1-6.44,1.76-9.7,2.51-3.58.82-7.18,1.6-10.81,2.2-2.85.47-5.74.71-8.63.94-3.15.25-6.3.39-9.46.54-1.13.05-2.26,0-3.39,0ZM156,175.33l-.11.29c-2.63.18-5.26.34-7.89.53-2,.16-4,.33-6.06.55a38,38,0,0,0-10,2c-3,1.18-6.09,2-9,3.32-4.1,1.86-8.06,4.05-12.09,6.08-3.39,1.71-7,3.12-10.15,5.16A143.07,143.07,0,0,1,84.72,202a27.18,27.18,0,0,0-8.81,6.18,2.52,2.52,0,0,0-.76,1.43,24.47,24.47,0,0,0,.4,4.36c.57,3,2.53,5.31,4.23,7.66a103.62,103.62,0,0,0,7.48,8.88c3.93,4.33,7.87,8.66,12,12.78a108.7,108.7,0,0,0,8.65,7.36c1.78,1.43,3.85,2.52,5.56,4a45,45,0,0,0,9,6,72.07,72.07,0,0,0,6.86,3.16c4.73,1.85,9.51,3.56,14.27,5.31a3.13,3.13,0,0,0,1.44.22,14.6,14.6,0,0,0,2.12-.53,6.62,6.62,0,0,0-.77-2.14c-3.35-3.9-5.27-8.61-7.3-13.19a57.68,57.68,0,0,1-4.64-15.27c-.51-3.57-1.45-7.11-1.57-10.69-.18-4.95.17-9.93.43-14.89a15.12,15.12,0,0,1,.94-4.72,81.94,81.94,0,0,1,4.29-9.44,54.53,54.53,0,0,1,5.11-7.22,72,72,0,0,1,6.07-6.87c2.42-2.35,5.1-4.43,7.7-6.6.61-.51.85-1,.19-1.53A11.82,11.82,0,0,0,156,175.33Zm57.42,98c.72-.05,1.43-.07,2.14-.17,3.82-.55,7.65-1.05,11.45-1.69a66.19,66.19,0,0,0,7.4-1.57,60.08,60.08,0,0,0,6.82-2.53c2.95-1.25,5.9-2.53,8.74-4,3.15-1.64,6.17-3.52,9.25-5.3,2.07-1.21,4.2-2.34,6.17-3.7s3.93-3.05,5.9-4.58c3.94-3.05,7.9-6.08,11.83-9.14,1.23-.95,2.31-1.93,2.09-3.81a7.48,7.48,0,0,0-1.52-4.37c-3.74-4.32-7.56-8.57-11.11-13a113.14,113.14,0,0,0-10-11.6c-1.08-1-1.84-2.37-2.84-3.49-1.35-1.51-2.78-3-4.2-4.41-2.93-3-5.77-6.17-9.28-8.57a45.89,45.89,0,0,0-11.81-5.82q-5.33-1.69-10.66-3.35a3,3,0,0,0-1.12-.08c-1.33.12-1.8,1.06-1.12,2.19.52.85,1.1,1.66,1.59,2.52A53.48,53.48,0,0,1,226,192.1c1.06,2.48,1.87,5.07,2.76,7.62.61,1.75,1.21,3.49,1.72,5.27.48,1.63.84,3.3,1.24,5a31,31,0,0,1,1,4.69c.28,3.68.3,7.38.54,11.06.35,5.31-1.31,10.19-3.68,14.71-2.69,5.14-6,10-9.05,14.92a4.82,4.82,0,0,1-.35.44c-3.88,4.6-7.77,9.19-11.62,13.81a1,1,0,0,0,0,1C209.7,272.22,211,273.81,213.38,273.33Z"/><path d="M170.6,51.83l46.54,2.87c-3.41,15.84-6.8,31.56-10.21,47.37l-8-.37-10.72-.59c-3.65-.21-7.29-.43-10.94-.6-.92,0-1.24-.48-1.32-1.32q-1.14-11.28-2.31-22.56c-.8-7.59-1.63-15.18-2.44-22.77a5.56,5.56,0,0,0,0-1A5.48,5.48,0,0,0,170.6,51.83Z"/><path d="M300.92,142c-8.16-8.22-16.21-16.44-26.23-22.44L299,85.66l-.57-1c.39,0,.9-.14,1.14.05,7.21,5.63,14.7,10.91,21.47,17.1,4.67,4.27,9.41,8.46,14.12,12.69.42.38.82.78,1.36,1.29Z"/><path d="M67.67,76.07l4.55,10.54q3.56,8.25,7.1,16.48,2.7,6.25,5.41,12.5c.24.55.41.94-.3,1.38-6.3,3.88-12.57,7.8-19,11.8L38.71,97.5l0,.83-.2.13c-.49-.71-1-1.41-1.46-2.14a.84.84,0,0,1,.09-.68c.05-.09.37,0,.55,0a4.1,4.1,0,0,0,1.16-.41q12-8,24-16C64.49,78.14,66.06,77.13,67.67,76.07Z"/></svg>