<svg id="Layer_1" data-name="Layer 1" xmlns="http://www.w3.org/2000/svg" viewBox="0 0 262.6 226.19"><defs><style>.cls-1{fill:#fff;}</style></defs><path d="M232.66,67.5c-1.54,4.17-3,8-4.39,11.88l-4.79,13.11c-.07.2-.25.4-.26.61-.19,2.31-1.87,2.42-3.64,2.61-4.11.44-8.21,1-12.31,1.48l-10,1.21c-1.27.16-2.55.27-3.8.48a1.32,1.32,0,0,0-.78.64Q185.36,113.7,178,127.89c-.19.35-.35,1-.19,1.18a2,2,0,0,0,1.38.47c5.61-.55,11.21-1.15,16.82-1.76,4.59-.5,9.18-1,13.77-1.53a10.92,10.92,0,0,1,1.17,0c-.6,2-1.18,3.93-1.78,5.87-1.72,5.53-3.44,11.07-5.21,16.59-.15.49-.56,1.16-1,1.27-5.8,1.47-11.6,3-17.46,4.23-6.21,1.27-12.48,2.24-18.74,3.19a3.41,3.41,0,0,0-3,2.44c-4.65,11.45-9.42,22.85-14,34.32-.73,1.82-2.11,1.55-3.38,1.7-6.42.73-12.85,1.38-19.28,2-1.41.15-2.82.25-4.48.4,4.15-11.83,8.25-23.5,12.34-35.13-2.24,0-4.26-.07-6.27,0-3.27.14-6.54.38-9.8.6s-6.46.44-9.68.72a1.38,1.38,0,0,0-1,.72q-3.49,8.11-6.89,16.28c-2.51,6-5,12.07-7.46,18.1a6.61,6.61,0,0,0-.28.74c-.3,1.22-1,1.64-2.33,1.71-3.71.21-7.41.67-11.11,1l-8.09.73-11.68,1.06a2.56,2.56,0,0,1-.52,0c.11-.42.17-.78.29-1.12,3.16-8.89,6.3-17.79,9.49-26.67,1-2.63,2.15-5.19,3-7.84.5-1.48,0-2.64-1.89-2.46-3.56.33-7.11.72-10.67,1.06s-7.12.62-10.67.95-7.34.73-11,1.07c-2.46.23-4.93.43-7.5.65.54-2.07,1.05-4,1.56-6,1.43-5.55,2.88-11.09,4.26-16.64a1.41,1.41,0,0,1,1.42-1.25c5.9-.66,11.8-1.35,17.69-2,5.6-.63,11.2-1.23,16.8-1.86,3.69-.42,7.38-.88,11.07-1.35a1.28,1.28,0,0,0,.9-.58q6.29-15,12.5-30.12a1.19,1.19,0,0,0,0-.33c-1.91-1-3.91-.39-5.86-.27-3.19.19-6.37.53-9.55.8l-9.89.83c-3.15.26-6.3.49-9.45.75l-9.67.81c-2.5.21-5,.39-7.61.59.38-1.61.71-3.07,1.07-4.51.22-.83.53-1.64.75-2.47.41-1.6.78-3.21,1.19-4.81.35-1.38.72-2.76,1.08-4.14A42.48,42.48,0,0,0,51,91.35c.18-1.8,1.25-1.65,2.33-1.74,5.06-.42,10.12-.77,15.18-1.19s10-.75,15-1.32C89,86.46,94.49,85.6,100,84.84c2.41-.33,4.83-.65,7.25-.93.89-.1,1.23-.62,1.54-1.37q6.18-15,12.4-30,4.09-9.9,8.15-19.82a2.18,2.18,0,0,1,1.82-1.49c8.64-1.46,17.27-3,25.91-4.48.41-.07.82-.09,1.41-.15-.32,1-.62,2-.94,3q-7.84,23.52-15.7,47a6.59,6.59,0,0,0-.28,1.08c-.23,2,.12,2.37,2,2.2,5.66-.49,11.31-1,17-1.55,3-.29,6-.69,9.08-.89A1.93,1.93,0,0,0,171.49,76c2.1-4.88,4.21-9.75,6.29-14.64q8.47-19.95,17-39.9A1.85,1.85,0,0,1,196,20.6c5.9-1.07,11.8-2.09,17.71-3.11q6.71-1.17,13.4-2.32a8.57,8.57,0,0,1,1.26,0c-.78,1.76-1.52,3.42-2.27,5.08Q215.85,42.77,205.65,65.3a5,5,0,0,0-.35,1.63,1.35,1.35,0,0,0,1.43,1.6c5.54-.12,11.07-.22,16.6-.42C226.37,68,229.4,67.72,232.66,67.5ZM130.4,103.37c-4.44,10.68-8.81,21.27-13.26,31.82-.55,1.31-.22,1.76,1.2,1.66,2.67-.19,5.34-.27,8-.49s5.37-.52,8-.86c3.34-.42,6.67-.94,10-1.39a3.47,3.47,0,0,0,3.08-2.1c3.67-7.84,7.49-15.62,11.21-23.43.82-1.72,1.51-3.5,2.18-5.29.4-1.06.22-1.24-.93-1.26-.86,0-1.73,0-2.6,0-4.14,0-8.29-.3-12.42-.08C140.08,102.21,135.28,102.88,130.4,103.37Z"/><path class="cls-1" d="M130.4,103.37c4.88-.49,9.68-1.16,14.51-1.42,4.13-.22,8.28,0,12.42.08.87,0,1.74,0,2.6,0,1.15,0,1.33.2.93,1.26-.67,1.79-1.36,3.57-2.18,5.29-3.72,7.81-7.54,15.59-11.21,23.43a3.47,3.47,0,0,1-3.08,2.1c-3.33.45-6.66,1-10,1.39-2.68.34-5.36.64-8,.86s-5.33.3-8,.49c-1.42.1-1.75-.35-1.2-1.66C121.59,124.64,126,114.05,130.4,103.37Z"/></svg>