<svg id="Layer_1" data-name="Layer 1" xmlns="http://www.w3.org/2000/svg" viewBox="0 0 193.24 287.41"><path d="M160.29,87.86l.07-1.2h.21c0,1.12-.07,2.25,0,3.37.15,1.9.39,3.8.6,5.78l.13-.56h.11V109l-.29-.42c0,.07-.09.14-.09.2a11.87,11.87,0,0,1-1.3,5.65,24.86,24.86,0,0,0-.55,2.83c-.36,1.28-.82,2.54-1.26,3.81s-.89,2.7-1.45,4c-1.14,2.64-2.41,5.23-3.53,7.88-.86,2.07-1.3,4.38-2.45,6.25-.64,1-.4,2.64-1.93,3.23-.43.17-.54,1.09-.87,1.62-1,1.69-2.13,3.33-3.15,5-.46.78-.75,1.67-1.18,2.47a7.92,7.92,0,0,1-1.09,1.58,80.9,80.9,0,0,1-6.63,7,52.65,52.65,0,0,1-13.13,8.33c-2.46,1.06-5.06,1.79-7.61,2.62-4.82,1.56-9.65,3.08-14.47,4.63-1.94.62-3.9,1.2-5.79,1.94a25.14,25.14,0,0,0-9.92,6.82,1.58,1.58,0,0,0-.37.86c0,1.27-1.51,2-1.15,3.46.06.2-.27.48-.38.74a7.92,7.92,0,0,0-.48,1.22c-.33,1.27-.58,2.57-1,3.81-.08.25-.75.51-1.08.45-4.3-.82-8.58-1.74-12.88-2.56-3.28-.62-6.57-1.11-9.85-1.7-2.08-.38-4.13-.85-6.2-1.25-1.45-.28-2.91-.52-4.31-.77,0-1.11,0-2,0-2.95a6.38,6.38,0,0,1,1.23-4.22c.62-.77.66-2,1-2.95.52-1.31,1.15-2.57,1.7-3.86.13-.3.1-.66.33-.88a9.61,9.61,0,0,0,1.09-1.7,6.3,6.3,0,0,1,1.64-2.31,1.7,1.7,0,0,0,.59-1.06c.15-1.49,1.37-2.3,2.13-3.37a29.54,29.54,0,0,1,3.46-3.88,9.83,9.83,0,0,1,3-1.6,40.35,40.35,0,0,0,4.72-2.3c1.12-.7,2.11-1.52,3.54-1.31.18,0,.45.08.55,0,1.49-1.5,3.6-1.12,5.37-1.77,1.15-.42,2.41-.51,3.55-1,1.41-.55,3-.47,4.28-1a17.54,17.54,0,0,1,3.78-.93,9,9,0,0,0,1-.3l4.09-1.21c1.22-.36,2.45-.68,3.66-1.07.71-.22,1.37-.57,2.08-.79a7,7,0,0,1,1.35-.17L101,148l4.16-1.72-.23-.17a32.28,32.28,0,0,0,6.38-3.07,38.31,38.31,0,0,0,5.56-4,13.81,13.81,0,0,0,3.47-4c.3-.61,1.24-.89,1.69-1.47,1.28-1.64,2.52-3.32,3.64-5.08a23.39,23.39,0,0,0,2.87-5.19c.44-1.34,2-2.06,1.76-3.76-.07-.52.8-1,.9-1.82a25,25,0,0,1,1.05-3.83c0-.15,0,0,.07.22.07-.1.15-.15.14-.2a6.83,6.83,0,0,1,.91-4c0-.08,0-.22,0-.33,0-3.73,0-7.46-.19-11.19v2.29H133c0-.69.05-1.39,0-2.08a19.77,19.77,0,0,0-2.17-8.9c-.74-1.13-.87-2.65-1.48-3.89a29.47,29.47,0,0,0-2.24-3.45,26.12,26.12,0,0,0-2.32-3.08A48.21,48.21,0,0,0,120.17,75a34.85,34.85,0,0,0-3.89-2.38c-.91-.56-1.79-1.17-2.73-1.67a19.63,19.63,0,0,0-8.79-2.65c-3.45-.08-6.89-.38-10.34-.41a24.94,24.94,0,0,0-10.93,2.45c-2,.95-4,2-5.91,3.08-1.58.92-3.16,2.09-3.65,3.85a14,14,0,0,1-1.39,2.64A24.15,24.15,0,0,0,71.48,83c-.13.39-.34.75-.51,1.13l-.16-.08a28.36,28.36,0,0,1-1.63,3.32c-.8,1.23-.88,1.16-2.7.86-3.69-.6-7.38-1.25-11.09-1.78s-7.53-.93-11.3-1.37c-.6-.07-.89-.2-.7-.9.13-.5-.08-1.09.06-1.57.44-1.52.94-3,1.47-4.52C45.29,77,45.73,76,46.16,75a4.19,4.19,0,0,1,.42-.7c.14-.2.4-.37.44-.58A23.88,23.88,0,0,1,49.71,67c.85-1.69,1.47-3.5,2.39-5.14A37.26,37.26,0,0,1,55,57.68a24.48,24.48,0,0,1,5.93-5,2.93,2.93,0,0,0,.61-.73c.1-.14.12-.43.23-.47,2.22-.72,3.64-2.8,5.76-3.57,1.37-.5,2.47-1.37,3.76-2,1.65-.74,3.27-1.56,5-2.22,1.42-.56,3-.78,4.34-1.46a23.26,23.26,0,0,1,5.9-1.8,31.93,31.93,0,0,0,3.72-1.26.85.85,0,0,1,.22,0c1.2-.15,2.41-.29,3.61-.47s2.29-.41,3.45-.62l-.6-.1v-.09h11.28l0,.06-1,.15v.11l.4,0c2.23.16,4.46.27,6.68.49,1.12.11,2.23.43,3.2.62l-.54.18c.48,0,.74.09,1,.08a12,12,0,0,1,4.49.86c1.68.59,3.45.93,5.17,1.43.69.21,1.32.58,2,.85a21.63,21.63,0,0,1,2.55,1c2,1,3.9,2.12,5.78,3.3a14.57,14.57,0,0,1,1.87,1.82c.94.86,2,1.63,2.86,2.53s1.35,1.9,2.21,2.61c1.6,1.3,2.29,3.26,3.73,4.67.52.51.66,1.42,1.2,1.89,1,.85,1.28,2.1,2,3.08a20.15,20.15,0,0,1,1.55,2.57c.64,1.18,1.3,2.36,1.83,3.59a13,13,0,0,1,1.4,3.26,7.32,7.32,0,0,0,1.08,2,8.29,8.29,0,0,1,.65,1.5,18.17,18.17,0,0,0,1,3.51c.7,1.3.2,2.59.4,3.86S160.1,86.65,160.29,87.86Z"/><path d="M77.09,215l.14-.48.69,6.87c.09-.18.13-.28.17-.38s.14,0,.14.09c.17,1.74.32,3.48.5,5.22.13,1.25,0,2.65.54,3.7s.16,1.95.35,2.89.43,2.18.63,3.25a.35.35,0,0,0,.09-.15.55.55,0,0,1,.15-.32v3.53l.18,0,.17-.91c0,.05.1.09.1.13.17,3,.16,3-2.78,3.46-4.13.7-8.25,1.47-12.38,2.22-5,.9-10,1.82-15,2.7a11.82,11.82,0,0,1-1.89,0v-2h-.2l-.12,1-.69-13.17h-.09l-.1,1H47.5v-5.58c0-.27.06-.74,0-.76-.84-.28-.26-.95-.42-1.4a3,3,0,0,1,0-.79,53.09,53.09,0,0,0-.57-7.59c-.22-1.06-.14-2.1-.34-3.12,0-.08,0-.15,0-.23-.17-.86-.17-.86.35-1.4l5.2-.47,0-.1-1.45-.13V212c1.73,0,3.47.05,5.21,0a13.74,13.74,0,0,0,4.28-.52c1.12-.44,2.23,0,3.21-.4,2.4-.92,4.86,0,7.29-.53,0,.05,0,0,0,0l-1.06-.33h4.6v-.24l-1.29-.06v-.16c1.08,0,2.16,0,3.23,0,.82,0,1.15.59,1.15,1.35,0,1.28,0,2.55,0,3.83Z"/></svg>