<svg id="Layer_1" data-name="Layer 1" xmlns="http://www.w3.org/2000/svg" viewBox="0 0 286.75 166.65"><path d="M240.07,65.31l22.82,9.54c.18,1.77-1.41,2-2.2,2.87a33,33,0,0,1-4,3.2c-1.78,1.36-3.6,2.66-5.33,4.07s-3.13,2.84-4.8,4.11c-3.29,2.5-6.66,4.89-10,7.33l-9.78,7.16a2.28,2.28,0,0,1-2.4.24c-2.81-1.09-5.66-2.09-8.51-3.07-2.15-.74-4.36-1.33-6.5-2.11-1.5-.54-1.56-1.08-.43-2.24l3.57-3.65c4.79-4.92,9.54-9.89,14.4-14.74,3.49-3.48,7.15-6.78,10.72-10.17C238.48,67,239.27,66.14,240.07,65.31Z"/><path d="M214.52,58.22l-.28.14,12.13,3.17a7.73,7.73,0,0,1-1,1.38c-2.77,2.35-5.57,4.68-8.37,7-2.32,1.92-4.66,3.81-7,5.75s-4.46,3.83-6.71,5.72c-2.43,2-4.91,4-7.35,6.06a33.43,33.43,0,0,0-3.51,3.09,4.49,4.49,0,0,1-4.88,1.37c-5.39-1.23-10.82-2.26-16.23-3.39-.34-.07-.79-.25-.9-.5s.15-.68.36-.92c3-3.37,6.07-6.7,9.08-10.08,1-1.1,1.76-2.36,2.74-3.44,1.27-1.39,2.65-2.68,4-4,2.4-2.41,4.83-4.8,7.21-7.24s4.67-4.9,7-7.32a1.06,1.06,0,0,1,.88-.17c2.42.65,4.83,1.36,7.25,2C210.85,57.35,212.77,57.79,214.52,58.22Z"/><path d="M90.5,86a5.83,5.83,0,0,1-1.31.91q-5.88,1.86-11.78,3.62c-1.87.57-3.77,1-5.63,1.64a1.94,1.94,0,0,1-2.51-.65c-1.32-1.8-2.7-3.57-4.08-5.34-2-2.55-4-5.07-6-7.65-1.55-2-3-4.12-4.54-6.17S51.54,68.23,50,66.18c-1.4-1.84-2.84-3.66-4.24-5.5A1.17,1.17,0,0,1,46.3,59c1.35-.43,2.7-.83,4-1.29,1.82-.61,3.61-1.28,5.43-1.89,1.52-.5,3.07-.92,4.6-1.42a27.91,27.91,0,0,0,3.21-1.16,1.33,1.33,0,0,1,1.83.42c1.73,2.18,3.44,4.38,5.18,6.55,1.47,1.84,3,3.66,4.47,5.48,1.16,1.41,2.39,2.77,3.5,4.21,1.6,2.08,3.13,4.22,4.68,6.34.94,1.29,1.84,2.6,2.76,3.89,1.16,1.65,2.33,3.29,3.46,5a4.35,4.35,0,0,1,.41,1Z"/><path d="M58.78,96.5l-8.42,3.22c-2.41.93-4.83,1.87-7.25,2.79-.68.26-1.4.43-2.06.75s-1.25.06-1.72-.53c-2.27-2.8-4.53-5.6-6.84-8.37q-4.79-5.74-9.62-11.45c-1.8-2.12-3.66-4.2-5.52-6.27s-3.74-4.08-5.59-6.13c-.45-.5-1-1,.28-1.3,2.91-.8,5.76-1.79,8.64-2.7,3.26-1,6.54-2,9.77-3.14.84-.3,1.16.11,1.57.59,2.27,2.72,4.52,5.46,6.81,8.18,1.88,2.23,3.79,4.43,5.68,6.65s3.57,4.2,5.34,6.31l6.83,8.17c.53.64,1.1,1.26,1.57,2A5.72,5.72,0,0,1,58.78,96.5Z"/></svg>