<svg id="Layer_1" data-name="Layer 1" xmlns="http://www.w3.org/2000/svg" viewBox="0 0 296.68 225.44"><path d="M58.28,33.92c2,0,4,0,5.91,0s3.81.13,5.71.24c3.32.18,6.64.42,10,.59s6.37.25,9.55.41c4,.2,8,.46,12,.65,2.58.13,5.16.16,7.74.26,1.38.06,2.75.2,4.13.27q3.56.19,7.1.35c4.5.2,9,.35,13.48.58,3,.15,5.92.46,8.88.61s5.91.17,8.86.29c3.42.14,6.83.34,10.25.5,2.57.13,5.14.22,7.71.37,2.89.17,5.77.41,8.66.57s5.91.29,8.87.43c3.49.17,7,.35,10.48.5,2.34.1,4.69.11,7,.24,2.81.15,5.61.41,8.42.56,3.42.18,6.84.28,10.26.46,3.61.19,7.22.47,10.83.64,3.94.18,7.89.25,11.84.4,2.29.09,4.58.22,6.86.37a.77.77,0,0,1,.5.51c0,2.88-.09,5.75-.14,8.62,0,.58,0,1.16,0,1.74-.12,4.41-.22,8.83-.36,13.24q-.26,8.07-.54,16.15-.15,4.29-.34,8.58c-.17,3.44-.38,6.88-.55,10.32-.12,2.4-.2,4.79-.31,7.19-.17,3.76-.39,7.51-.53,11.28-.15,4.32-.24,8.64-.35,13-.13,5-.24,10-.37,14.95,0,2-.11,3.93-.16,5.9-.06,3-.16,6.09-.15,9.14,0,4.55.11,9.1.16,13.66,0,1.41,0,2.83,0,4.42h-4.41c-4.69,0-9.39,0-14.08,0h-18c-4.63,0-9.27.09-13.9.1-2.72,0-5.44-.09-8.15-.06-7.19.08-14.38.2-21.58.31-6.79.12-13.58.27-20.37.37-5.7.08-11.39.11-17.09.16-6.18.06-12.37.09-18.56.18q-9.51.12-19,.33c-4.53.09-9,.22-13.58.35-3.5.1-7,.2-10.52.37-3.35.16-6.69.45-10,.6-2.34.11-4.69.06-7,.11-.71,0-1.43.07-2.14.15s-.8-.12-.76-.71q.36-5.55.69-11.11c.07-1.15.13-2.31.18-3.47.12-2.9.22-5.8.36-8.7.16-3.47.35-6.95.53-10.42.11-2.08.23-4.17.33-6.25.19-3.53.36-7.07.55-10.6.1-2.05.22-4.11.33-6.16.18-3.53.35-7.07.54-10.6.1-2.05.21-4.11.33-6.16l.69-11.46c.07-1.18.13-2.37.18-3.56.12-2.93.22-5.85.36-8.78.16-3.39.35-6.77.53-10.16s.34-6.66.52-10,.35-6.89.53-10.33c.17-3.22.33-6.43.51-9.64C57.78,42.43,58,38.15,58.28,33.92Zm53.75,125c1.84-1,3.56-1.9,5.14-2.95,4.83-3.2,9.61-6.47,14.43-9.69a3.88,3.88,0,0,1,1.6-.56c1.23-.15,2.48-.21,3.73-.29l8.33-.52c2.17-.13,4.35-.2,6.52-.38s4.49-.49,6.73-.75c1.24-.15,2.49-.21,3.71-.46,3.76-.77,7.52-1.55,11.25-2.44,2.87-.68,5.71-1.5,8.55-2.32a27.37,27.37,0,0,0,9.81-4.72c1.95-1.59,3.82-3.29,5.71-4.95a38.16,38.16,0,0,0,7.59-8.89,14.65,14.65,0,0,0,2.38-8.33c-.1-2.22-.31-4.45-.49-6.67a16.44,16.44,0,0,0-1.85-6.38c-1.19-2.26-2.67-4.35-3.93-6.57A43.19,43.19,0,0,0,195,84.24a70.7,70.7,0,0,0-7-6.21,24.42,24.42,0,0,0-8.2-4.3c-.74-.23-1.53-.29-2.27-.52-2.27-.72-4.49-1.57-6.78-2.2-2.51-.68-5.06-1.24-7.61-1.72-2.28-.43-4.58-.75-6.88-1a40.24,40.24,0,0,0-4.79-.06c-3.69.08-7.4-.05-11.05.36-4.33.49-8.63,1.39-12.91,2.24-3.48.7-6.94,1.53-10.38,2.43A23.94,23.94,0,0,0,110,76c-2,1.34-4,2.77-5.94,4.29a51.35,51.35,0,0,0-5.14,4.51,29.29,29.29,0,0,0-6,9.92,32.59,32.59,0,0,0-1.94,10.66,32.71,32.71,0,0,0,.31,3.55,21.22,21.22,0,0,0,2.54,9.38,29.25,29.25,0,0,0,4.73,6.42c1.66,1.64,3.26,3.34,4.88,5s3.46,3.7,5.25,5.5a3.48,3.48,0,0,1,1.14,2.14c.26,2.24.64,4.46.88,6.69.33,3.12.57,6.24.85,9.36C111.68,155.21,111.85,157,112,158.89Z"/></svg>