<svg id="Layer_1" data-name="Layer 1" xmlns="http://www.w3.org/2000/svg" viewBox="0 0 1371.07 792"><path d="M276.56,672c-5-42.09-9.79-82.82-14.69-124.24L130.4,550.17C126.92,411,123.47,272.5,120,133.74c12.71-.71,25.11-1.44,37.51-2.09,47-2.47,94.06-5.79,141.14-7.1,37.91-1,75.9.38,113.86.66,42.11.31,84.23.76,126.35.8q220,.18,440.05.12,43.46,0,86.91.07c8.85,0,10.09,1.3,10.33,9.86,2.19,76.84,4.79,153.67,6.47,230.52,1,44.08.43,88.19.57,132.29,0,8.77,0,17.55,0,27.64-8.57,0-16.68-.21-24.78,0q-101.6,3.09-203.17,6.34-116.57,3.74-233.11,7.57-85.86,2.76-171.72,5.39c-20.64.64-41.28,1.2-61.89,2.15-2.34.11-5.12,2-6.78,3.93q-51.06,58.14-101.89,116.49C279.1,669.27,278.32,670.1,276.56,672Zm737-198.72c3-97.76,6-194.78,9-292.31l-842.36,6.42c3.86,97.46,7.7,194.39,11.56,291.88Z"/></svg>