<svg id="Layer_1" data-name="Layer 1" xmlns="http://www.w3.org/2000/svg" viewBox="0 0 869.77 792"><path d="M816.75,419.2l-10,3.42q-102.24,34.56-204.5,69.05c-3.64,1.22-4.67,2.84-4.56,6.7q2.43,82.61,4.49,165.21c0,1.33,0,2.66,0,5.26L455,556,341.4,732.09l-.94-.34c4.25-60.64,8.5-121.27,12.86-183.44-68.63,24.82-140,33.84-210.78,48.09l119.07-139L53.66,399.06l0-1.24,223.09-76.08Q261.92,218.5,247.16,115.81l.94-.45q6.77,7.49,13.53,15Q327,202.87,392.18,275.51c4.85,5.43,9.32,8.6,17.33,5.35,8.54-73.2,17.17-147.12,26-222.61,1.39,2.93,2.17,4.5,2.88,6.09q40.51,90,81,180c3,6.63,3,6.62,10.17,4.59l208.66-59c1.4-.4,2.85-.61,5.27-1.11-1.32,2.19-2.19,3.67-3.1,5.14L645,348.6c-3.88,6.3-2.3,10.52,4.88,13l161.64,55.77Z"/></svg>