<svg id="Layer_1" data-name="Layer 1" xmlns="http://www.w3.org/2000/svg" viewBox="0 0 1008.4 792"><path d="M63.28,113.33c10.53-.85,20.61-1.69,30.7-2.46,47.29-3.62,94.56-7.53,141.89-10.67,20.41-1.36,40.93-1.56,61.39-1.49,23.41.08,46.43-3,69.5-6.34,13.69-2,10.67-3,11.42,9.33,1,17.29,2.53,34.55,3.79,51.83.13,1.8,0,3.63,0,5.93-4.81.36-9.38.86-14,1-29.16,1-57.94,5.36-86.78,9.44-15.62,2.22-31.52,2.5-47.12,4.83-16.39,2.45-32.59,6.19-48.81,9.65-4.25.9-10.75,1.86-11.87,4.58-2.06,5-1.22,11.34-1,17.1.32,7.73,1.39,15.44,1.81,23.17.53,9.58.47,19.2,1.14,28.77,1.31,18.57,3,37.11,4.42,55.67.44,6,.31,12,.52,18,.26,7.44.76,14.87.86,22.31.05,3.93-.86,7.87-.81,11.8.22,18.25.35,36.5,1,54.74.64,17.49,2,35,2.9,52.45.43,7.93.55,15.88,1.05,23.8.45,6.88,1.55,13.72,1.81,20.61.57,14.78.51,29.58,1.24,44.35.56,11.36,1.89,22.67,3,34,.23,2.44,1.62,3.51,4.33,3.5q61.68-.13,123.37-.1h68.6c8.5,0,8.84.25,9.36,8.73.74,12.06,1.19,24.14,2.12,36.19,1.09,14.28,2.55,28.53,3.86,42.79.31,3.44,1,6.91.79,10.32-.07,1.33-1.93,3.49-3.2,3.66-7.16,1-14.38,1.66-21.59,2-6.4.33-12.82,0-19.23.16-19.67.6-39.33,1.32-59,2-19.34.66-38.68,1.28-58,2-6.1.22-12.19.68-18.29,1-23.45,1.11-46.88,2.37-70.34,3.22-14.8.54-29.62.38-44.43.67-2.93.06-4-.82-4.3-3.86-3.64-43.44-6.82-86.92-11.25-130.27C86.4,502,84.75,425.94,81.12,350c-1.62-33.89-4.75-67.7-7.34-101.54-2.68-35-5.54-70-8.33-105-.53-6.64-1.12-13.26-1.62-19.9C63.58,120.29,63.47,117,63.28,113.33Z"/><path d="M638.54,617.67c8.24-.58,15.45-1.37,22.68-1.53,22.75-.48,45.51-.64,68.27-1.07,22.39-.43,44.78-1.39,67.17-1.44,18.21,0,36.43,1,54.65,1.44,5.57.15,9.12-3.24,9.32-8.9.14-3.65,0-7.32-.14-11-.9-18.26-2.34-36.49-2.71-54.76q-1-50.37-1-100.78c0-22.28.52-44.58,1.23-66.85.74-23-1.46-45.8-4.55-68.58-2.22-16.46-2.79-33.13-4.68-49.64-2.13-18.49-5.06-36.89-7.33-55.37-.83-6.74-.82-13.59-1.05-20.39-.25-7.2-3.18-10.21-10.44-10.13-15.43.18-30.87.66-46.3.65q-26.13,0-52.27-.73c-12.57-.35-25.14-1.16-37.69-2-19.47-1.24-38.93-2.63-58.4-4-1.28-.09-2.52-.69-3.8-.9C621,160,621.18,160,620.84,149.26c-.48-15.19-1.38-30.38-2.05-45.57-.11-2.47,0-5,0-8.6,4.45,0,8.76.55,12.87-.11,10.82-1.74,21.49-4.49,32.34-5.93,14.49-1.92,29.07-3.39,43.65-4.33,27.87-1.79,55.77-3.18,83.67-4.49,6.29-.3,12.62.59,18.94.6q55.18.11,110.36,0c3.94,0,5.42,1,6,5.1,2.47,17.77,5.34,35.49,8,53.23a60.66,60.66,0,0,1,.79,7.94c.41,21.58,1,43.16,1,64.74,0,23.91-1,47.83-.7,71.73.19,16.15,2,32.27,2.82,48.42,1.11,21.12,2,42.25,3,63.38.26,5.27.62,10.53,1,15.8.94,13.31,2,26.62,2.83,39.94.27,4.17.08,8.37.16,12.55.66,35.41,1.22,70.82,2.05,106.22.37,16.2,1.25,32.39,1.95,48.59.63,14.54,1.27,29.08,2,43.61.58,11.36,1.4,22.72,1.94,34.08.22,4.79-1.47,6.12-6.09,5.76-4.93-.39-9.87-.71-14.81-.88-26.6-.93-53.19-2.15-79.8-2.56-15.45-.24-30.92,1.27-46.39,1.27-50.48,0-101-.45-151.45-.5-4.46,0-5.7-1.67-6.1-5.61-1.68-16.54-3.32-33.09-5.43-49.58C642.31,635.31,640.25,626.73,638.54,617.67Z"/></svg>