<svg id="Layer_1" data-name="Layer 1" xmlns="http://www.w3.org/2000/svg" viewBox="0 0 1035.51 929.13"><path d="M620,275.43l38.57-34.87q1.77-1.6,3.47-3.3L798.61,100.87c.63-.63,1.3-1.24,2.3-2.19-.28,3.82-.39,7-1.84,10.34-9.53,22.09-19,44.22-28,66.52C752.3,222.08,730,267,709,312.58c-3,6.63-6.18,13.22-9.28,19.83-1,2.2-2,2.45-4,.93q-36.71-27.9-73.37-55.84C621.61,276.89,620.87,276.21,620,275.43Z"/><path d="M226.25,822.15c-1.22-5.41-1.44-10,.12-14.86,12.9-40.77,25.28-81.71,38.41-122.4,5.24-16.26,11.92-32.06,18-48q11.52-30.35,23.08-60.66c.29-.76.62-1.51,1-2.53l78.37,45.2Q305.9,720.33,226.25,822.15Z"/><path d="M565.49,622l-6.72,50.63q-3.67,27.57-7.33,55.16-3.91,29.45-7.84,58.89c-2.41,18.14-4.68,36.3-7.3,54.4-1.23,8.46-3.15,16.81-4.75,25.21a24.82,24.82,0,0,1-1.68,6q-2.79-13.59-5.59-27.2c-8.18-40-15.81-80.17-24.72-120-6.83-30.59-15.27-60.82-23-91.21-1-3.87-2-7.74-3.05-11.88Z"/><path d="M295.49,405.79c-.32,26.85-.65,53.46-1,80.42a37.16,37.16,0,0,1-4.62,0c-6.94-.9-13.86-1.92-20.79-2.85-5.63-.75-11.27-1.45-16.9-2.16-10.68-1.34-21.35-2.75-32-4-8.29-1-16.6-1.7-24.89-2.62-8-.88-15.93-1.93-23.9-2.77-3.7-.39-7.45-.29-11.14-.71-7.63-.86-15.24-2-22.87-2.88-5.55-.65-11.13-1.11-16.69-1.7Q99.34,464.24,78,461.92q-12.45-1.38-24.88-3a3.55,3.55,0,0,1-2.55-1.67c-.58-1.59.77-2,2.13-2.32,9-2.22,17.86-4.76,26.88-6.73,15.07-3.28,30.23-6.21,45.35-9.3,8.68-1.78,17.33-3.64,26-5.34,8.42-1.65,16.89-3.09,25.32-4.72,9.31-1.79,18.6-3.69,27.9-5.55,5.85-1.17,11.7-2.4,17.56-3.53q14.48-2.81,29-5.51l33.64-6.28C288,407.26,291.54,406.55,295.49,405.79Z"/><path d="M741.94,489.18c5.08-26.4,10.1-52.49,15.2-78.95,1.5.37,2.87.59,4.17,1q108.45,36,216.9,72.13c3.82,1.27,7.67,2.44,11.43,3.88a24.64,24.64,0,0,1,4.13,2.64l-.36,1.06Z"/><path d="M708.61,549.56c.53.91,1,1.69,1.43,2.49,19.37,36.05,38.43,72.28,58.21,108.1,12,21.81,25.19,43,37.85,64.45,6.48,11,12.82,22.06,19.56,32.88,3.57,5.73,5.34,12.07,7.51,18.3.77,2.19,1.44,4.41,2.15,6.62l-1,.8a13.17,13.17,0,0,0-1.58-2.59Q742.47,690.13,652.1,599.68c-2.57-2.57-2.57-2.58.3-4.9l54.49-44C707.4,550.41,707.94,550.05,708.61,549.56Z"/><path d="M366,286.59l-49,45.9c-2.19-3.7-4.22-7.26-6.38-10.74-1.88-3.05-3.89-6-5.87-9-2.74-4.12-5.41-8.29-8.28-12.32-4.28-6-8.72-11.9-13.07-17.86q-3.09-4.21-6.07-8.5c-3.1-4.49-6.19-9-9.22-13.53-2.41-3.61-4.65-7.34-7.07-11-4.47-6.61-9.11-13.11-13.48-19.78-2.73-4.16-5-8.61-7.66-12.82-1.57-2.48-3.59-4.66-5.2-7.12-2.78-4.26-5.36-8.65-8.09-12.94s-5.62-8.67-8.46-13q-7.06-10.71-14.18-21.38-8-12.06-16-24.1c-2.9-4.37-5.86-8.7-8.76-13.08a14.45,14.45,0,0,1-1-2.11l.48-.62a11,11,0,0,1,2.88,1.27c1.66,1.41,3,3.12,4.69,4.55,2.74,2.4,5.61,4.64,8.39,7,2.51,2.12,5,4.28,7.46,6.44,2.31,2,4.58,4.09,6.87,6.13,3.7,3.31,7.41,6.6,11.1,9.91,2.68,2.41,5.26,4.92,8,7.25,4.53,3.85,9.23,7.51,13.72,11.42,6.48,5.65,12.81,11.46,19.23,17.16s12.75,11.28,19.15,16.89,12.7,11.15,19.16,16.61c4.34,3.67,9,7,13.29,10.7,4.07,3.48,7.86,7.28,11.84,10.86,5.44,4.91,11,9.66,16.4,14.62,5,4.61,9.75,9.47,14.71,14.1C358.89,280.59,362.34,283.41,366,286.59Z"/><path d="M533.48,265.86l-84.12,1.65q12.61-93.39,25.13-186c2.52-.89,3.52-.43,4.17,1.74q27.06,90.21,54.26,180.38C533.11,264.2,533.24,264.85,533.48,265.86Z"/><path d="M774.27,892.21l12,13.36-.63.57-12-13.32Z"/></svg>