<svg id="Layer_1" data-name="Layer 1" xmlns="http://www.w3.org/2000/svg" viewBox="0 0 740.71 792"><path d="M185.16,225.75c-.38,2.14-.38,4.13-1.09,5.83-4.78,11.51-9.76,22.93-14.59,34.42-3.44,8.21-6.71,16.5-10.12,24.72-2.81,6.75-5.61,13.5-8.61,20.16-2,4.39-4.3,8.62-7,13.93L67.44,217.61l.74-1.36Z"/><path d="M509,641.68c-.67,2.29-.65,5.42-2.18,6.67-2.92,2.4-5.38-.64-7.58-2.37-11.24-8.82-22.4-17.74-33.58-26.63-7.26-5.76-14.49-11.55-21.77-17.27q-11.73-9.23-23.56-18.31c-3.8-2.91-7.75-5.61-11.65-8.39-2.58-1.84-2.54-3.62.38-5,9.91-4.63,19.9-9.08,29.8-13.73,7.61-3.56,15.09-7.41,22.69-11q14.16-6.66,28.44-13c3.78-1.68,5.75,0,6.18,4,.48,4.44,1.61,8.82,2.46,13.22.12.62.33,1.24.39,1.87.56,6.33.94,12.67,1.67,19,1.29,11,2.79,22,4.21,33.06.05.37.23.73.27,1.1.51,5.9,1,11.8,1.51,17.7q.79,9.43,1.61,18.89Z"/><path d="M152.49,412.45l55.88,62.49c-2.44,1.31-4.57,2.91-7,3.68Q141.25,498,81,517.21c-1.54.49-3.09,1-5.2,1.62Z"/><path d="M236.83,530.85c3.84,1.12,7,1.72,10,2.95,15,6.26,30,12.67,44.91,19.06,9.06,3.86,18.09,7.79,27.15,11.64,3.69,1.56,4.1,2.89,1.63,5.93q-8.4,10.34-16.8,20.66c-6.68,8.22-13.27,16.51-20,24.65Q270,632.14,256.08,648.31c-1,1.14-2.88,1.5-4.36,2.22a20.54,20.54,0,0,1-1.53-4.26c-1.43-10.51-2.85-21-4-31.55-.87-7.67-1.19-15.4-2.12-23.06-1-8.51-2.6-17-3.69-25.48-1-7.81-1.67-15.66-2.46-23.5C237.52,539.07,237.24,535.45,236.83,530.85Z"/><path d="M500.37,94.12a18.37,18.37,0,0,1,.29,1.9c.53,23.61,1,47.23,1.59,70.84.23,9,.88,18,1.11,27,.06,2-.83,4-1.28,6a35.89,35.89,0,0,1-5.9-1.49c-8.48-3.66-16.87-7.52-25.32-11.23-10.91-4.79-21.8-9.61-32.78-14.24-8.15-3.43-16.44-6.53-24.62-9.9a17.38,17.38,0,0,1-3.43-2.54,16.58,16.58,0,0,1,2.55-3.06c15.2-11.3,30.48-22.5,45.69-33.79,8.7-6.45,17.32-13,26-19.54,4.06-3.07,8-6.28,12.17-9.22C497.37,94.15,499,94.35,500.37,94.12Z"/><path d="M575.41,247.48c2.67-.47,4.45-1.06,6.23-1.07,17.41,0,34.83-.2,52.23.05,13.65.2,27.29,1,40.94,1.37,7.62.21,15.25,0,22.88.14,1.19,0,2.35.86,3.53,1.32a20.82,20.82,0,0,1-2.13,2.69c-6.79,6.33-13.5,12.75-20.48,18.86-9.28,8.13-18.83,16-28.18,24-3.68,3.17-7.06,6.69-10.72,9.88-3.26,2.84-6.75,5.41-10.07,8.18-2.33,1.93-4.48,4.07-6.81,6a11.5,11.5,0,0,1-4.05,2.59c-2,.52-3.44.28-4.53-2.49-1.88-4.76-4.92-9.07-7.46-13.57-.74-1.31-1.44-2.63-2.15-3.94-2.94-5.48-6-10.92-8.78-16.46-3.16-6.23-5.9-12.68-9.23-18.81S579.45,254.2,575.41,247.48Z"/><path d="M336.89,150.63,232.81,166.45c17.36-34.33,34.46-68.15,51.9-102.61Z"/><path d="M558.41,494.93c1.8-3.51,3.52-7.07,5.43-10.53,5.67-10.26,11.27-20.56,17.18-30.68,6-10.34,12.34-20.51,18.62-30.7,1.77-2.86,4.48-2.87,7.2-.21,6.47,6.35,12.89,12.76,19.38,19.1,8,7.86,16.2,15.59,24.17,23.51,4.83,4.81,9.3,10,14.14,14.79,3.67,3.63,7.73,6.86,11.5,10.39,1.41,1.32,3.88,2.33,2.42,5.5-19.78,0-39.65.26-59.52-.07s-39.69,2.17-59.52.22Z"/></svg>