<svg id="Layer_1" data-name="Layer 1" xmlns="http://www.w3.org/2000/svg" viewBox="0 0 740.71 792"><path d="M628.22,174.47c-1.71,2.09-2.17,2.78-2.75,3.34-19.52,18.83-34.66,41.11-50.33,63.05C483.73,368.93,395.64,499.28,308,629.9c-1.19,1.77-2.39,3.53-4.13,6.08L79.35,387.86c1.58-4.65,4.34-3.77,7.61-2.53,67.41,25.62,134.57,51.8,199.13,84.14,1.16.58,2.35,1.1,3.74,1.75,12.56-13.82,25.12-27.34,37.35-41.15q56.1-63.4,116.58-122.61c16.87-16.46,35.84-30.76,53.89-46,14-11.81,27.49-24.25,42.12-35.2,20.09-15,40.86-29.18,61.72-43.13,6.11-4.1,13.47-6.39,20.39-9.19C623.3,173.35,625.28,174.17,628.22,174.47Z"/></svg>