<svg id="Layer_1" data-name="Layer 1" xmlns="http://www.w3.org/2000/svg" viewBox="0 0 957.34 744.43"><path d="M171.76,689.19c-2.46-48.71-4.85-95.87-7.23-143.06H67.6q-2-254-4-509.53,419.85,6.66,838.69,24.47,3,252.75,6,505.59c-8.67-.89-17.36-2.22-26.1-2.57-22.93-.93-45.88-1.81-68.83-2-106.88-1.09-213.75-2.25-320.63-2.79-73.25-.37-146.51.25-219.76.28-3.85,0-6,1.4-8.13,4.32q-44.31,60.06-88.8,120C174.91,685.26,173.77,686.64,171.76,689.19ZM844.43,109c-1.8-.14-3.09-.3-4.38-.32q-131.32-2.09-262.64-4.15-217.2-3.48-434.4-7c-6.82-.11-6.83-.07-6.83,6.8q-.13,195-.26,389.93c0,5.88,1.07,7.05,7,7.6,1.16.1,2.33.06,3.49.08,55.59.76,111.19,1.7,166.78,2.25,106.19,1.07,212.38,2.62,318.57,2.61,62.91,0,125.81-2.63,188.72-4.09,4.27-.1,8.55-.36,13.15-.56.74-11.75,1.47-23,2.15-34.31,1.77-29.39,4.54-58.77,5.09-88.19,1.65-88.35,2.43-176.71,3.54-265.07C844.45,112.78,844.43,111,844.43,109Z"/></svg>