<svg id="Layer_1" data-name="Layer 1" xmlns="http://www.w3.org/2000/svg" viewBox="0 0 740.71 792"><path d="M71,537.15c-.16-1.34-.32-2.1-.34-2.86-.7-31.76-1.29-63.52-2.11-95.28-1.13-43.72-2.45-87.44-3.67-131.16q-.58-21.19-1.12-42.39c-.64-25.1-1.29-50.21-1.8-75.32,0-1.52.79-3.79,1.94-4.48,14.24-8.49,28.51-16.92,43-25s29.91-13.22,45.7-17.42c13.27-3.52,26.78-6.24,40.29-8.73,6.15-1.13,12.57-1.13,18.87-1.16,25.9-.15,51.85-2,77.45,4.32,19.31,4.78,39.17,7.59,58.17,13.31,28.46,8.57,57.69,12.65,86.77,17.68a366.06,366.06,0,0,0,88.46,4.21,317.46,317.46,0,0,0,45.27-6.17c15.49-3.38,30.54-8.79,45.76-13.4,6-1.84,12-3.94,18-5.9,7.85-2.58,15.71-5.14,24.41-8-.88,5.68-2,11.09-2.5,16.55-2,22.13-6.46,44-5.9,66.42.57,22.92-.83,45.88-.76,68.82q.12,44.65,1.25,89.3c1.06,39.88,2.59,79.76,4,119.63.1,2.9-.68,4.52-3.47,5.71-23.2,9.87-47.08,17.69-72,21.76-28.65,4.68-57.35,10-86.61,7.18-14.85-1.44-29.65-3.51-44.41-5.73-13.45-2-26.87-4.34-40.19-7.06-20.47-4.19-40.72-9.65-61.31-13.06-18.47-3.06-37.27-4.08-55.92-6-4-.41-7.92-.78-11.84-1.41-3.35-.53-5.94-1.93-4.21-6.21-45,26.35-71.58,66.85-90.94,113.55-.57-4.39-1.22-8.77-1.69-13.17q-4-37.3-8-74.62c-1.17-10.84-1.21-11-11.94-11.85-19-1.43-38,.06-55.95,6.26-8,2.74-14.66,9.09-21.87,13.91C78.3,531.72,74.94,534.31,71,537.15Z"/></svg>