<svg id="Layer_1" data-name="Layer 1" xmlns="http://www.w3.org/2000/svg" viewBox="0 0 1069.56 1128.55"><path d="M751.49,1030.22c-2.61.68-5.25,2-7.83,1.92-13-.53-26.06-1.39-39.09-2.24-5-.33-10-.41-14.8-1.54-10.7-2.53-19.88-8.4-28.78-14.61-6.73-4.7-13.67-9.2-18.29-16.28-4.25-6.52-8.83-12.87-12.64-19.64a183.27,183.27,0,0,1-10.47-21.74c-1.94-4.87-2.53-10.28-4-16.56-4.41,0-9.17,0-13.93,0-6.15-.07-12.29-.24-18.43-.32-1.79,0-3.59.14-5.38.21q-27.45,1.17-54.92,2.31c-13,.54-25.93,1.34-38.91,1.42-16.09.11-32.19-.16-48.27-.71-18.38-.63-36.74-1.78-55.12-2.63-15.4-.7-30.83-.9-46.19-2.11A92.34,92.34,0,0,1,312.68,933a148.19,148.19,0,0,1-25.23-10.66c-9-5-18.44-10.18-22.36-21.08-1.57-4.36-4-8.45-6.27-12.53-3.34-6-3.7-12.71-4.53-19.23-1.29-10.31-2.13-20.68-3-31-1.18-14.29-2.08-28.6-3.33-42.88-.95-10.73-2.35-21.41-3.39-32.12-.56-5.78-.83-11.6-1.13-17.4-.58-11.22-.85-22.46-1.69-33.66-1-13.7-2.49-27.37-3.76-41.05,0-.13,0-.26,0-.39-.77-11.86-1.49-23.74-2.32-35.6-.75-10.58-1.68-21.14-2.41-31.71-.2-2.82.21-5.68,0-8.49-1-15.72-2-31.42-3-47.14-.3-4.59-.54-9.19-.79-13.78-.79-14.25-1.45-28.5-2.39-42.73-1.35-20.68-3.21-41.33-4.26-62-.61-11.95,0-24,0-35.94,0-4.87-.32-9.74-.28-14.62.21-25.12.91-50.25.64-75.37-.29-27.37-1.63-54.71-2.14-82.08-.23-11.83.17-23.7.84-35.53a163.07,163.07,0,0,1,7.1-40.76c1.15-3.61,3.77-6.77,5.81-10.07,2.53-4.1,5.09-8.2,7.78-12.2,4-5.93,7.81-12,12.29-17.6,3.94-4.9,8.71-9.13,13.06-13.72,5.87-6.18,13.2-10,21-13,15.76-6,32.11-9.75,48.73-12.47,14.14-2.32,28.2-5.15,42.38-7.17,11.51-1.65,23.15-2.42,34.73-3.62,6.47-.67,12.92-1.44,19.38-2.14a30.82,30.82,0,0,1,3.46-.16c30,0,60.06-.19,90.08.06,15.94.13,31.89.73,47.8,1.61,17.58,1,35.21,1.81,52.66,4,15.21,1.89,30.34,4,45.69,3.5,7-.24,13.64,1.22,20.4,2.75,10.24,2.32,20.66,3.84,30.95,5.95,8.46,1.72,16.84,3.8,25.26,5.73,4.07.94,8.29,1.48,12.19,2.9,10.47,3.82,17.2,12.16,24,20.46,7.55,9.27,12.8,19.68,14.07,31.52,1.41,13.16,2.26,26.42,2.44,39.66.31,21.77-.18,43.56-.22,65.35,0,9.52.13,19.05.36,28.57.45,19,1.09,38,1.47,57,.1,5.12-.81,10.27-.64,15.39.29,8.58,1.14,17.15,1.61,25.73.33,5.91.51,11.83.59,17.75q.45,34.35.82,68.7c.2,16.21.7,32.42.58,48.63-.12,15.44-2,30.94-1.16,46.31,2.71,50.21.74,100.43,1.23,150.64.18,19.06-.58,38.13-.6,57.19,0,14.93,1.15,29.89.49,44.78-.69,15.5,0,31.12-3.47,46.5-2.73,12-3.51,24.41-6.61,36.26-2.61,10-3.66,21.17-11.16,29.16-4,4.23-9.44,7.25-14.62,10.11-11.67,6.45-24.65,8.37-37.66,10.13-10.43,1.4-20.8,3.24-31.19,5-8,1.32-15.88,3-23.87,4.09-12.57,1.71-12.48,6.81-11.59,17.91,1.39,17.5,13.11,28.91,24.64,40.12a110.91,110.91,0,0,0,31.09,21c9.15,4.22,18.56,7.87,27.86,11.77Z"/></svg>