<svg id="Layer_1" data-name="Layer 1" xmlns="http://www.w3.org/2000/svg" viewBox="0 0 829.03 1119.73"><path d="M123.6,972.41c-.19-9-.32-18.1-.58-27.15-.55-19.11-1.69-38.22-1.62-57.33.09-24.46,1.17-48.91,1.75-73.36.49-20.27.69-40.55,1.34-60.82.78-24.75,1.48-49.52,3-74.23,1.83-30.71,3.57-61.47,6.88-92,3.61-33.37,2.1-66.79,3.2-100.17.47-14.26,2.86-28.44,3.87-42.69,1.21-16.9,1-33.94,3-50.74,3.14-27.05,2.2-54.13,2.24-81.2,0-10.94-1.94-21.87-2.3-32.83-.61-18.78-.81-37.59-.93-56.38-.14-22.64.16-45.28-.06-67.91-.11-11.23-1-22.46-1.52-34.46L686,140c.1,2,.26,3.73.27,5.5,1.15,113.87,2.63,227.73,3.22,341.59.18,34.43-1.58,68.91-3.4,103.31-2.91,54.9-2.86,109.81-2,164.75.62,41.45.79,82.9,1.14,124.35,0,1.3-.15,2.6-.26,4.43-5-.91-9.66-2.05-14.39-2.56-13.7-1.47-27.41-3.22-41.16-3.92-78.11-4-156.23-7.63-234.35-11.45-48.53-2.36-97.06-4.84-145.6-7.07-2.09-.1-4.75,1.26-6.36,2.78q-55.86,52.49-111.53,105.18c-2.12,2-4.29,4-6.43,6Z"/></svg>