<svg id="Layer_1" data-name="Layer 1" xmlns="http://www.w3.org/2000/svg" viewBox="0 0 869.77 792"><path d="M312.51,664.56c0-8.24-.19-15.8,0-23.35q.79-25.69,2-51.36c.31-6.77,1-13.54,1.74-20.28.79-7.29-.93-10.8-8.12-13.16-6.24-2-12.68-4-19.17-4.66A256.23,256.23,0,0,1,243,543c-13.54-3.93-27.54-6.58-40.71-11.47-15.84-5.88-31.21-13.14-46.43-20.54-11.35-5.53-22.33-11.91-33.11-18.5-7.55-4.62-14.41-10.35-21.73-15.37-11.25-7.72-22.5-15.44-31.84-25.53-14.5-15.67-22.55-34-23.64-55.5-.57-11.1-1.11-22,1.09-33C50,346.45,52.33,329.53,60,314.21a156.91,156.91,0,0,1,15.45-25.16,281.6,281.6,0,0,1,26.12-30.41c15-14.79,30.87-28.78,46.63-42.81C161,204.4,173.92,193,187.37,182.36c12.58-10,23.43-22.45,39.08-28.18,14.1-5.16,28-11,42.4-15.21,9.46-2.78,19.72-2.71,29.4-4.9,11.15-2.52,22-6.18,33.06-9.21,3.48-1,7.08-1.49,10.63-2.18,12.37-2.41,24.65-5.82,37.13-6.93,15.67-1.4,31.35-4,47.23-2.23,6.43.73,13,.29,19.45.68,21.84,1.32,43.69,2.6,65.51,4.21,17.67,1.31,35.36,2.68,53,4.72,24.29,2.81,48.52,6.11,72.73,9.5,20,2.79,38.56,10.28,57.07,18,7.88,3.29,16.4,5.1,24.21,8.53,11.17,4.9,21.95,10.7,32.92,16.05,1.75.85,3.66,1.34,5.47,2.06,9.16,3.66,15.94,10.27,22,17.76,6.23,7.67,13.38,14.75,18.56,23.06a462.09,462.09,0,0,1,25.53,45.82c3.5,7.35,4.29,16.3,4.95,24.64,1,12.91,1.19,25.91,1.08,38.87-.09,9.55-.32,19.27-2.16,28.58-1.38,7-4.87,13.84-8.36,20.24-7.26,13.3-14.53,26.66-23,39.21-5.25,7.81-12.5,14.32-19.13,21.16-11.31,11.67-23.11,22.76-36.26,32.48-10.86,8-23.07,13-35.33,18q-19,7.77-38.22,15c-25.61,9.7-51.08,19.82-77,28.58-12.77,4.32-26.4,6.19-39.7,8.83-17.8,3.53-35.67,6.73-53.5,10.07-11.52,2.15-23,4.39-34.56,6.38-7.82,1.35-15.68,2.55-23.57,3.43a51.29,51.29,0,0,0-27.54,11.5c-22.13,18.34-44.15,36.83-63.46,58.28-9.89,11-20.37,21.44-30.62,32.11C315.36,662.33,314.15,663.18,312.51,664.56Z"/></svg>