<svg id="Layer_1" data-name="Layer 1" xmlns="http://www.w3.org/2000/svg" viewBox="0 0 740.71 792"><path d="M369,416.37c-8.41,7.38-15.39,13.28-22.12,19.47-9.66,8.88-19.13,18-28.67,27-7.64,7.22-15.24,14.5-22.9,21.7-6,5.65-12.13,11.2-18.16,16.83s-11.9,11.37-18,16.91c-11,10-22.08,19.92-33.13,29.87-2.28,2-4.46,4.23-6.9,6.08-3,2.26-5.9,2.53-8.65-.75-6.78-8.11-13.55-16.24-20.61-24.1-3.62-4-7.82-7.54-11.81-11.23-3.14-2.89-2.64-8.94.7-11.68,10-8.24,19.92-16.65,29.92-24.95,11-9.11,22.14-18,33-27.28,25.8-21.92,51.47-44,77.56-66.3-2.05-2.42-3.58-4.71-5.58-6.49q-11.46-10.17-23.17-20.07c-8.43-7.17-17.07-14.11-25.4-21.4-14.24-12.47-28.29-25.14-42.45-37.7q-8.86-7.86-17.87-15.59c-2.39-2.06-2.52-3.8-.16-6.12,7.51-7.36,15-14.78,22.24-22.38,2.63-2.76,5.15-2.82,7.75-.71q14.92,12.07,29.64,24.41c10.62,8.86,21.11,17.89,31.8,26.67,5.08,4.17,10.68,7.71,15.72,11.92,8.39,7,16.47,14.39,24.77,21.51,4.85,4.15,9.92,8,14.82,12.13,2.42,2,4.1,1.05,5.86-1,8.07-9.26,16.22-18.46,24.31-27.71,10.45-11.95,20.81-24,31.31-35.88q32.75-37.16,65.6-74.22l3.77-4.24,51.15,48.79c-4.52,3.76-7.86,6.21-10.81,9.07-7.24,7-14.16,14.36-21.46,21.31-6.78,6.45-14,12.39-20.78,18.87-8.59,8.27-16.8,16.93-25.33,25.26-10.62,10.37-21.38,20.58-32.1,30.83-4.91,4.69-9.92,9.27-14.81,14-6.06,5.85-5.93,12.42-.45,17.31,22.39,20,44.64,40.06,67.09,60,18.36,16.28,36.94,32.32,55.38,48.52,4.65,4.08,4.69,8.57,0,12.79-7.15,6.44-14.52,12.63-21.73,19-2.45,2.16-4.64,4.62-7.08,6.79-2.74,2.42-4.74,4-8.21-.3-5.87-7.32-13-13.63-19.59-20.36q-7-7.17-14.1-14.33C451,500,442.74,491.43,434.31,483c-13.83-13.86-27.85-27.54-41.61-41.47C384.69,433.39,377,424.93,369,416.37Z"/></svg>