<svg id="Layer_1" data-name="Layer 1" xmlns="http://www.w3.org/2000/svg" viewBox="0 0 612 792"><path d="M401.25,572.46q-17.1-34.12-34.2-68.25-33.17-66.29-66.2-132.65c-2-4-4.34-4.51-8.14-4.1-16,1.72-32,3.24-48.06,4.86-15.19,1.54-30.37,3.13-45.56,4.65q-17.1,1.71-34.21,3.3c-9.49.9-19,1.76-28.86,1.76l130.32-78.54-148.44-186,.79-1.08c4.17,2.16,8.42,4.18,12.5,6.5Q244.43,187.2,357.56,251.7c4.84,2.76,7.87,2.43,12.22-.72,24.5-17.76,49.24-35.18,73.9-52.71,1.19-.85,2.43-1.62,4.26-2.83-3,20.67-5.88,40.59-8.74,60.52-2,14.15-4.09,28.3-5.84,42.49-.15,1.21,1.74,3.25,3.16,4,21.53,11.07,43.14,22,64.73,32.95l53.22,27a7.55,7.55,0,0,1,3.47,3.12l-135.72-6.65c-6.64,71.53-13.24,142.56-19.84,213.59Z"/></svg>