<svg id="Layer_1" data-name="Layer 1" xmlns="http://www.w3.org/2000/svg" viewBox="0 0 869.77 1038.62"><path d="M750.13,287.64H747c.55.67.79,1.22,1.22,1.45,9.63,5.25,19.42,10.23,28.88,15.76a102.6,102.6,0,0,1,19.71,14.81c14.37,13.83,17.53,31.88,21.75,49.82,2.88,12.23-.69,23.78-2.79,35.53-.87,4.89-.79,10.07-2.41,14.67-5,14.19-14.92,24.93-26.78,33.52S762,469,749.73,477c-7.13,4.63-15.39,3.76-23.18,5.19-3,.55-6,.46-9,1-2.11.37-3.82,1-1.53,3.78,3.68,4.51,4.4,10.27,4.82,15.79.67,8.75,1.31,17.6.72,26.33-.35,5.11-2.83,10.18-4.87,15.05-3.82,9.15-6.71,19.07-12.34,27-10.54,14.88-25,24.74-44.19,24.82-21.62.08-43.24-.35-64.86-.62-4.85-.06-9.83-1.12-14.48-.26-3.47.65-6.86,3.24-9.68,5.67-7.65,6.62-14.53,14.21-22.55,20.32-12.27,9.34-25.18,17.86-37.94,26.56-12.19,8.32-26,7.34-39.75,6.55a89,89,0,0,0-9.06-.57c-13.91.6-26.87-3.37-39.36-8.73-9.93-4.27-20.48-7.6-28.59-15.33-.94-.89-2.24-1.61-2.75-2.69-4.08-8.63-12.1-9.18-22.71-6.31-9.15,2.47-18,6-27.27,8-12.75,2.8-25.81,4.19-38.55,7-16.16,3.56-32.56,3.34-48.89,4.18-7,.36-14.13,0-21.19,0-12.19,0-22.84-3.95-31.83-12.34-4.14-3.87-9.09-7-12.64-11.32-3.11-3.8-5.21-8.63-7-13.29a156.45,156.45,0,0,1-6.7-21.26c-2.12-9.53-5.89-18.84-3.29-29.13,1.52-6,1.37-12.42,2-19.07a13.68,13.68,0,0,0-3.87.67c-20.86,9.55-42.27,11.15-63.93,3.54-11.64-4.09-23.55-8.22-34-14.51-9.29-5.57-18.07-13.07-22.1-24a34.81,34.81,0,0,1-1.92-10.53c-.8-20.75,3.15-40.94,6.76-61.27a205.38,205.38,0,0,1,18.53-55.86c1.09-2.19,2.61-4.16,3.77-6.33,1.42-2.65,2.3-5.66,4.07-8,2.35-3.16,5.33-5.85,8.83-9.57-3.76-.64-6.61-1-9.41-1.63-5-1.12-10.22-1.8-14.9-3.74-11.12-4.6-22.56-9.08-28.09-21.18-.71-1.57-1.65-3.2-1.75-4.84-1-16.18-1.5-32.36,5.07-47.68a47.84,47.84,0,0,1,6.66-10.53,136,136,0,0,1,44.8-36.43c10.58-5.45,20.76-11.78,31.64-16.51s22.49-8,33.77-11.88l17.5-6.07c-1-6.75-1.35-13.38-3.16-19.58-4.55-15.57,2.54-27.53,10.48-39.78,6.08-9.39,15.36-13.66,24.68-18.36,16.43-8.29,34.3-9.87,52.13-11.81,8-.87,16-2.17,24-2.6,8.34-.44,16.72-.21,25.07,0,6.91.18,13.81.77,21.2,1.21,0-2.09,0-4.21,0-6.33.3-16.25,5.62-30.39,17.72-41.59,6.77-6.26,15.22-9.09,24-11.08,14.09-3.19,28.25-6.23,42.81-5.56,13.4.61,26.84,1.1,39.85,5,9.28,2.76,18.74,5,27.82,8.33,4.51,1.64,8.38,5.07,12.48,7.77A62.48,62.48,0,0,1,500,57.12c4.38,3.76,10,6.94,12.54,11.73,2.64,5.06,4.29,2,6.5,1,18-8.19,35.19-18.27,54.84-22.34a30.78,30.78,0,0,1,6.78-.9c27.32.55,53.43,5.75,76.67,21,3.75,2.46,6.5,6.42,9.76,9.64,2.28,2.26,4.77,4.33,7,6.68a125.27,125.27,0,0,1,10.23,11.78c3.35,4.69,6.52,8.65,13.15,8.46,19.71-.56,38.48,4.36,56.57,11.53,8.77,3.48,17.8,7.68,24.85,13.73,7.25,6.22,14,14.3,17.83,22.95,8.32,18.8,12,38.78,12.31,59.7.15,11.76-2.49,22.07-8.38,31.3a105.13,105.13,0,0,1-19.41,22.17c-6.62,5.78-14.91,9.66-22.47,14.37-2.13,1.32-4.4,2.47-6.38,4C751.45,284.66,751.05,286.07,750.13,287.64Z"/><path d="M591,703.68c14.64-.45,27.53,4.58,39.52,12.58a14.19,14.19,0,0,1,6.61,12c.14,3.45.06,6.91,0,10.37-.28,11.66-5.28,18.75-16.15,23-9.86,3.89-20.24,3.53-30.29,2.32a21.24,21.24,0,0,1-16.28-11.55c-3.17-5.95-7.13-11.49-10.26-17.47-4.36-8.35-1.66-16.58,1.53-24.55a6.8,6.8,0,0,1,4.2-3.3c6.9-1.7,13.9-3,20.86-4.45C590.81,703,590.9,703.33,591,703.68Z"/><path d="M640.67,880c-9.82-.14-19.2-1.27-26.25-9a13.25,13.25,0,0,1-3.21-7,28.36,28.36,0,0,1,6.39-21.34c1-1.28,2.42-2.89,3.84-3.12a233.47,233.47,0,0,1,24.65-3.22c4.93-.28,10,.92,14.93,1.83,4.56.84,7.6,3.53,9.06,8.2a33.51,33.51,0,0,0,4.11,7.86c2.11,3.29.24,11.79-3.67,14.28-5.46,3.46-10.86,7.23-16.78,9.7C649.83,879.86,645.06,879.46,640.67,880Z"/><path d="M724.14,966.89c-.23,8.1-1.53,15.41-6.48,22.16-6.35,8.66-17.18,9.42-24.22,1.28-3.48-4-7.52-7.55-11.19-11.41-4-4.22-5-12.84-1.82-17.66,4.45-6.66,9.92-12.35,17.35-15.81,4.36-2,22,2.82,23.65,7.22S723.3,962.13,724.14,966.89Z"/></svg>