<svg id="Layer_1" data-name="Layer 1" xmlns="http://www.w3.org/2000/svg" viewBox="0 0 924 792"><path d="M786.58,226.52c2.2,16.86-5.05,29.16-17.2,40-7.45,6.66-13.27,14.92-15.41,25.27-1,5-3.93,9.73-4.56,14.76a143.24,143.24,0,0,0-.89,24.5c.14,2.82,2.62,6.34,5.06,8.11,13,9.37,26.31,18.3,39.54,27.35,9.12,6.24,15.86,14.73,22.75,23.2,9.49,11.68,13.39,25.12,12.93,39.73-.45,14.09-1.68,28.17-3.21,42.19-.49,4.5-2.53,9-4.72,13.1-4.09,7.58-8.29,15.21-13.46,22.05a35.55,35.55,0,0,1-12.23,9.62c-10.54,5.3-21.15,10.85-32.33,14.4-23.43,7.45-47.71,10.06-72.32,10.44-9.51.14-19.26.38-28.19,5.38-7.52,4.21-12.92,10.11-18.26,16.67-5.18,6.36-4.18,12.36-1.44,18.62a178.91,178.91,0,0,0,10,19.79c5.79,9.75,10.86,19.51,9.32,31.41a59.92,59.92,0,0,0-.06,9.57c.21,6.76-3.06,11.6-9,14-11.18,4.43-22.54,8-34.85,8.65-11.9.6-23.71,2.12-35.68.78-9-1-18.14-.9-27.13-2-8-1-13,3.71-17.55,8.67-6,6.57-11.42,13.75-16.81,20.87-7.27,9.58-16.66,17-26.73,22.87-20.31,11.78-41.3,22.43-62.32,32.92a196.73,196.73,0,0,1-48.28,16.93c-1.35.28-2.86-.23-4.29-.37.4-1.51.38-3.38,1.28-4.48,4.81-5.88,9.89-11.54,14.8-17.33,4.61-5.44,9.43-10.73,13.63-16.47,7.3-10,14.86-19.84,21.08-30.48,7.37-12.59,13.71-25.81,19.93-39,2.85-6.08,4.48-12.75,6.3-19.26.31-1.12-.89-3.13-2-4.09-7-6.29-15.93-8.15-24.59-10.84-17.87-5.55-35.61-3.45-53.31.34a155.67,155.67,0,0,1-54.57,2.38,465.2,465.2,0,0,1-51.33-9.86C251.34,612,235.55,601,221.07,587.26c-11.95-11.36-17.48-25.27-23-39.92-4.83-12.82-9.81-25.72-18.52-36.75-4.76-6-11.31-8.92-17.76-12.21-9.83-5-20-9.58-29.36-15.28-5.23-3.17-9.59-8-13.8-12.58-6.89-7.5-14-14.95-19.81-23.27A133.75,133.75,0,0,1,82,412.94c-3.06-9.08-5.52-17.94-5-27.63,1-17.16,6.15-32.71,17.76-45.54,6.74-7.46,14.36-14.12,21.56-21.16,3.85-3.77,7.28-8.08,11.53-11.32,9.4-7.18,18.69-14.74,29-20.48,14-7.83,20-26.19,16.8-39.81A122.31,122.31,0,0,0,169,232.77c-6.59-17.79-10.78-36.1-7.44-55,2.46-13.94,9-26.59,15.38-39.31,7.36-14.68,20.55-22.17,33.19-30.52,7.19-4.75,14.67-9.47,22.67-12.49,12.76-4.82,25.94-8.7,39.88-8.65q34.77.14,69.53,0c24-.08,45.23-7.45,64-22.76a151.18,151.18,0,0,1,25.54-16.54c4.1-2.14,9.71-2,14.61-1.9,22.24.61,43.28,7,64.56,12.92,15.57,4.29,28.68,12.74,42.56,20.12,11.11,5.91,22.31,11.87,34,16.41,9.78,3.79,20.34,5.57,30.57,8.2,7.16,1.84,14.24,4.47,21.52,5.23a195.37,195.37,0,0,0,30.88.77c10.89-.6,20.7,3,30.84,5.64,15.12,4,27.89,12.58,40.7,20.91A127.13,127.13,0,0,1,762.33,152c3.62,3.6,5.86,8.91,7.81,13.81,3.45,8.65,6.29,17.55,9.21,26.41a145,145,0,0,1,4.57,15.87C785.17,214.18,785.73,220.38,786.58,226.52Z"/></svg>