<svg id="Layer_1" data-name="Layer 1" xmlns="http://www.w3.org/2000/svg" viewBox="0 0 1069.56 792"><path d="M263.25,131.36c17.74.92,34.83,1.78,51.91,2.71,29.67,1.61,59.33,3.32,89,4.9,36.39,1.95,72.78,3.95,109.18,5.68,32.31,1.53,64.63,2.72,96.95,4,25.74,1.05,51.47,2.37,77.21,3,13.89.34,27.8-.47,41.7-.79,25.16-.58,50.33-1.19,75.93-1.8.14,1.35.38,2.6.38,3.84.25,67.62.92,135.23.48,202.84-.17,25.72-2.92,51.42-4.5,77.12q-2.46,39.66-4.93,79.3c-.61,9.78-1.24,19.56-1.9,30-1.77,0-3.46,0-5.15,0q-157.63,1.46-315.26,3a10.05,10.05,0,0,0-6.23,3c-13.11,13.15-25.26,27.39-39.28,39.45-9.36,8-21,13.75-32.2,19.29a422.43,422.43,0,0,1-41.88,18c-8.83,3.23-18.38,4.59-27.67,6.42a190.14,190.14,0,0,1-19.46,2.73c-2,.18-4.09-1.08-7.18-2,14.34-16.22,27.47-31.72,41.31-46.55s24.67-31.85,36.13-49.6c-11.35,0-21.27-.06-31.19,0q-41.05.3-82.11.67c-5.86,0-8.68-2.75-8.48-8.64q1.14-32,2.39-64.06c1.33-34.22,2.49-68.45,4.1-102.65,3.52-74.48.16-149,.76-223.46C263.27,135.86,263.25,133.83,263.25,131.36Z"/></svg>