<svg id="Layer_1" data-name="Layer 1" xmlns="http://www.w3.org/2000/svg" viewBox="0 0 1069.56 792"><path d="M243.06,661.74c.91-6.19,1.62-11.31,2.42-16.41,1.9-12.14,4.31-24.22,5.64-36.42,2.59-23.77-1-46.89-12.29-67.91-7-12.93-16.74-24.34-25.18-36.49-4.57-6.58-9.45-13-13.36-20-5.52-9.83-10.65-19.91-15.26-30.2-6.36-14.22-12.45-28.59-18-43.16-5.43-14.34-4.7-29.24-2.14-44.14.47-2.75-.16-5.7.38-8.43.88-4.47,2.37-8.82,3.48-13.25.9-3.57,1.44-7.23,2.47-10.76,3.15-10.83,6.42-21.62,9.7-32.41,3.57-11.7,7-23.46,10.93-35,1.83-5.37,4.85-10.33,7.27-15.51,5.32-11.31,11.52-22.24,20.49-30.92a386.92,386.92,0,0,1,34.75-30.24c17.45-13.24,35.71-25.49,56-34.23,22.69-9.79,45.5-19.06,69.55-25.5,33.8-9,68.29-14.4,102.43-21.64,21.42-4.54,42.95-4.22,64.55-4.6,13.8-.24,27.64-1.08,41.4-.45,27,1.24,54.1,2.89,80,12,16,5.62,32,11.46,48,17.12,6.63,2.35,13.47,4.17,20,6.81,13.45,5.45,26.91,10.93,40,17.09,6.67,3.13,12.65,7.73,18.91,11.71,4.7,3,9.91,5.47,13.94,9.2,8.68,8,16.79,16.71,25.05,25.2,2.59,2.66,5,5.5,7.37,8.37C852,224.07,861,237.3,866.64,252.92c3.16,8.72,7.12,17,9.33,26.25,5.2,21.77,3.8,43.63,2.8,65.54-.56,12.28-1.34,24.56-2.6,36.79a62.31,62.31,0,0,1-4,15.86c-4.3,11.09-9,22-13.86,32.89-5.12,11.52-10.35,23-16,34.27-2.28,4.53-5.64,8.58-8.82,12.6-4.41,5.57-8.6,11.47-13.8,16.23-10.92,10-22,20-33.85,28.79-12.38,9.16-25.11,18.33-38.92,24.91-18.19,8.68-35.66,19.42-55.83,23.62-21.6,4.5-43,10.34-64.74,13.65-37.92,5.75-76.15,6.56-114.46,3.61-14.08-1.08-28.28-.56-42.34-1.79-13.7-1.2-27.29-3.65-40.92-5.65-17.91-2.62-35.79-5.47-53.71-8-15.88-2.24-31.8-4.24-47.73-6.2a11.38,11.38,0,0,0-12.36,9.1c-1.24,5.87-2.29,11.83-4.16,17.51-1.28,3.88-3.68,7.43-5.85,11-2.74,4.46-6,8.47-8.25,13.37-2.16,4.62-7,8-10.54,12-2.49,2.81-4.82,5.76-7.17,8.69-1,1.28-1.65,3.09-2.93,3.94-9.38,6.25-18.86,12.34-28.37,18.41C246.58,660.91,245.22,661.05,243.06,661.74Z"/></svg>