<svg id="Layer_1" data-name="Layer 1" xmlns="http://www.w3.org/2000/svg" viewBox="0 0 914.83 744.43"><path d="M466.61,86.49c33.94,1.11,67.91,1.62,101.8,3.66,11.92.71,23.52,5.76,35.46,7.7,13.47,2.19,23.41,9.07,33,18.5,36,35.52,72.67,70.43,109.18,105.47a13.13,13.13,0,0,1,4.22,9.55c2.41,42.36,5,84.71,7.55,127.06,1,16.12,2,32.23,2.74,48.35a13,13,0,0,1-1.66,6.08Q720,489,681,565.13a12.11,12.11,0,0,1-5.14,4.93c-37.21,18.12-74.35,36.39-111.89,53.82-6.77,3.14-15.17,3-22.88,3.89-36.38,4-72.78,7.83-109.17,11.72-25.81,2.76-51.61,5.56-77.43,8.19a15.42,15.42,0,0,1-7.21-1.16Q279.59,618.38,212,590a14.65,14.65,0,0,1-5.72-4.44q-38.52-50.35-76.74-100.93A15.53,15.53,0,0,1,127,477a192.38,192.38,0,0,1-1-19.78c.21-28.41.43-56.81,1.06-85.21.25-11.32,2.54-22.36,5.65-33.36,5-17.76,8.35-36,13.37-53.77,3.73-13.2,9.06-25.94,13.6-38.91,3.7-10.59,7.37-21.2,10.87-31.86,4-12.08,7.77-24.21,11.63-36.33,1.34-4.2,2.36-8.54,4.11-12.57A10.72,10.72,0,0,1,191,160q83.45-38.11,167.07-75.86A16.73,16.73,0,0,1,365.3,83Q416,84.64,466.61,86.49ZM244.51,520.18c.42,6.59.54,12.86,1.28,19.06.94,7.77,1.73,15.65,3.82,23.14,1.75,6.29,4.85,12.32,8.12,18a55.77,55.77,0,0,0,10.18,13.39c8.12,7.42,19,6.75,29,7.93,13.81,1.64,26.14-5.21,38-10.54,9.88-4.45,18.22-12.74,26.57-20.09,6.86-6,12.69-13.25,19.15-19.76.63-.63,2.88-.47,3.75.17,1.08.8,1.51,2.49,2.2,3.8,8.09,15.32,16.76,30.35,30.92,40.87a52.78,52.78,0,0,0,19.63,9.38,39.38,39.38,0,0,0,22.31-1.5c11.87-4.46,24.34-7,35.73-13.19,15.78-8.56,30.59-18,41.62-32.51,4.61-6.08,9.59-11.87,14.42-17.78,1.89-2.3,3.71-3.37,6.63-.93a26.7,26.7,0,0,0,8.55,4.92c8.92,2.94,18,5.3,27,8.11,10.88,3.4,20.66-.1,29.71-5.35,5.49-3.19,9.46-9,15-12.13,6.74-3.82,11.86-9.19,17.33-14.3,8.92-8.33,14.76-18.8,21.05-29.11,6.56-10.72,10.86-21.46,9.87-34.28-.81-10.5-3.32-20-10.55-28-3.59-3.95-3.41-8,.13-10.52,3.92-2.82,7.84-5.63,11.72-8.5a72.64,72.64,0,0,0,21.76-25.05c5.6-10.83,10.67-22,15.22-33.28,2.34-5.81,4.56-12.36,4.22-18.42-.8-14.27-6.11-27.51-12.52-40.23-5.92-11.74-16.31-18.77-27-25.37a25.92,25.92,0,0,0-9.49-3.77c-9.1-1.33-18.28-2.19-27.45-2.94-3-.24-4-1-3.47-4.15,1.87-10.6,3.92-21.19,5.12-31.88.55-5,.66-10.78-1.39-15.1-6-12.7-11.73-25.74-22.09-35.93-8.23-8.08-16.89-14.58-29.3-13.19-1.77.2-3.61-.47-5.42-.51-5.55-.1-11.09-.19-16.63-.09-2.62,0-5.23.65-7.85.85-8,.58-16.23-.11-23.76,2s-12.1-.25-15.55-5.83c-6.07-9.8-14.42-17.32-23.17-24.46-5.56-4.53-11.64-8.35-19.17-8.69-9.8-.44-19.6-1.11-29.4-1.1-7.94,0-16.34-.55-23.73,1.72-13.49,4.15-25.32,12.34-35.45,21.92-8.49,8-15.48,17.8-22.11,27.49-3,4.38-5.77,4.8-9.64,3.18-6.06-2.53-12-5.37-17.89-8.27-10.41-5.13-21.73-8.33-32.92-7.28a253,253,0,0,0-45.88,8.72c-17.75,5.08-33,15.39-47,27.51-4.88,4.25-10.53,8-14.16,13.2-10.68,15.2-13,32.76-12.22,50.9.43,9.74,3.78,18.42,9.14,26.49.76,1.16.75,4.06-.1,4.84-4.41,4-9.31,7.45-13.86,11.31-11.73,9.92-20.78,21.87-25.66,36.5-3.12,9.34-4.71,18.81.14,28.49,5.46,10.89,13.94,18.44,24.3,24.1,3.43,1.87,3.15,4.07,1.49,6.34-2.83,3.85-5.71,7.82-9.27,10.93-7.06,6.14-11.29,13.64-14.44,22.41-4,11.06-6,22.13-5.3,33.82a49.34,49.34,0,0,0,11.31,29.07A55.64,55.64,0,0,0,212.45,516C223,517.42,233.48,518.73,244.51,520.18Z"/></svg>