<svg id="Layer_1" data-name="Layer 1" xmlns="http://www.w3.org/2000/svg" viewBox="0 0 869.77 792"><path d="M321.85,446.92l-192.3,13.14-.34-.87c3.61-2,7.09-4.3,10.85-6q44.83-19.8,89.77-39.36c8.67-3.77,17.71-6.71,26.26-10.7,6.67-3.11,7-8.17,2-13.55-10.3-11-20.47-22.11-30.78-33.08-11.13-11.84-22.43-23.51-33.53-35.37-7.94-8.5-15.62-17.24-23.49-25.81-7.43-8.08-15-16-22.41-24.12a47.23,47.23,0,0,1-3.52-4.93l.87-1.5c26.31,4.74,52.69,9.13,78.91,14.32,26.37,5.22,52.59,11.23,80.05,17.15.48-3.31,1.77-6.55,1.23-9.44-4.75-25.48-9.86-50.9-14.81-76.34q-5.84-30.1-11.54-60.23c-.18-.91-.22-1.85-.49-4.14,5.15,6.67,9.72,12.13,13.79,18,15.74,22.47,35.2,41.63,53.88,61.51,8.5,9,16.47,18.6,24.61,28,2.84,3.27,7.18,3.43,9.87,0a12.77,12.77,0,0,0,2.47-4.85c4.35-19,13.27-36.17,21.37-53.6,11.9-25.6,24.64-50.8,37.53-77.2,1.11,2.24,1.79,3.42,2.29,4.67,8.31,21,16.81,42,24.81,63.07,3.53,9.3,5.83,19,9.08,28.45,3.82,11.06,14.48,15.64,23.8,10.38a16.43,16.43,0,0,0,4.85-4.8Q551.8,157.3,596.58,94.84c.55-.77,1.22-1.44,2.44-2.87a48.38,48.38,0,0,1,0,5.47q-6.32,47.46-12.7,94.9c-.42,3.13-.7,6.28-1.1,9.42-1.86,14.4,7.56,25,22.18,24.63a21.26,21.26,0,0,0,6.72-1.46q55.13-20.49,110.22-41.08c1.38-.51,2.76-1,5.48-2-1.51,2.57-2.38,4.16-3.36,5.69Q684.88,252.77,643.39,318c-2.55,4-3.5,9.06-5.4,14.19l130.32,31.26c-2.76,1.1-4.41,1.84-6.12,2.44q-71.78,25-143.61,49.84c-4.55,1.56-6.78,4.2-7.86,8.79l155.56,77.35c-.09.39-.19.79-.28,1.19l-230.28-6.71L644.05,620.93l-.57.84-164.1-93.45c-20.47,43.44-40.77,86.53-61.57,130.65-1.23-4.3-2.23-7.54-3.1-10.81Q395,574.23,375.39,500.28c-.66-2.48-.78-6-4.27-5.69a11.08,11.08,0,0,0-6.95,3.49Q318.6,554.3,273.34,610.79a10.22,10.22,0,0,1-3.92,3.24C286.8,558.62,304.19,503.21,321.85,446.92Z"/></svg>