<svg xmlns="http://www.w3.org/2000/svg" viewBox="0 0 273.87 318.02"><g id="Layer_2" data-name="Layer 2"><g id="Layer_1-2" data-name="Layer 1"><path d="M273.87,93.59c-.49,3.22-1,6.43-1.47,9.64a32.29,32.29,0,0,1-3,9.32,40.4,40.4,0,0,1-6.4,9.21,41.55,41.55,0,0,1-14.42,10.59q-2.4,1.07-4.88,1.91c-.66.23-.75.6-.74,1.17.08,3,.23,5.94.16,8.91a31.27,31.27,0,0,1-.7,5.45,54.17,54.17,0,0,1-4,12.17,36.89,36.89,0,0,1-4,6.75,144.43,144.43,0,0,1-9.55,11.78,63.75,63.75,0,0,1-9.12,7.83,64.44,64.44,0,0,1-8.41,4.81c-2.93,1.52-5.9,3-8.95,4.24-4.33,1.76-8.69,3.45-13.14,4.86-3.25,1-6.68,1.48-10,2.33a39.21,39.21,0,0,1-10.07.86c-3.57,0-7.14.13-10.7,0-2.53-.13-5-.7-7.56-1a43.9,43.9,0,0,1-10.47-3,52,52,0,0,1-13.12-7.23A123.28,123.28,0,0,1,110,182.18a7,7,0,0,1-1.34-1.93,1,1,0,0,0-1.27-.58,78.11,78.11,0,0,1-10.67,1.41,66.63,66.63,0,0,1-13.48-.36,43.59,43.59,0,0,1-10.09-2.31C66.51,176,60,173.3,53.47,170.46a40.81,40.81,0,0,1-15-10.6c-3.29-3.85-6.49-7.77-9.65-11.73a30.07,30.07,0,0,1-4.89-9.6,19.26,19.26,0,0,1-.05-10.85,86.21,86.21,0,0,1,2.36-8.39c1.06-2.92,2.4-5.73,3.74-8.53.34-.72.27-1.06-.27-1.51-1.61-1.33-3.26-2.61-4.75-4.06-2-2-2.9-4.61-4.18-7a21.36,21.36,0,0,1-1.85-6.78A44.27,44.27,0,0,1,19.38,76c.63-3.3,1.47-6.56,2.38-9.79a15.73,15.73,0,0,1,1.76-3.82C26.2,58,29,53.65,33.09,50.3a49.84,49.84,0,0,1,10.67-7.22A5.26,5.26,0,0,0,47,38.68,26.13,26.13,0,0,1,52.2,27.46,39.61,39.61,0,0,1,57,21.74a88.49,88.49,0,0,1,8.26-6.54c3.37-2.39,6.83-4.68,10.37-6.8a17.9,17.9,0,0,1,7.87-2.1c4-.33,8-.45,11.93-.72a27.42,27.42,0,0,1,11.05,1.53q5.68,2,11.24,4.24c2.52,1,4.94,2.31,7.38,3.53a1.43,1.43,0,0,0,1.8-.25c3.15-2.53,6.23-5.16,9.55-7.45a32,32,0,0,1,12.09-5.5,73.3,73.3,0,0,1,8.61-1C161.79.32,166.42-.09,171,0a37.26,37.26,0,0,1,17.15,4.45,84.77,84.77,0,0,1,15,10.43,40.84,40.84,0,0,1,9.12,10.36,92.17,92.17,0,0,1,4.4,9.51c.49,1.13,1.52,1.07,2.33,1.3,4.52,1.23,9.11,2.21,13.6,3.53a35.61,35.61,0,0,1,6.82,2.91,70.93,70.93,0,0,1,10.17,6.13,55.16,55.16,0,0,1,7.82,8.12c2.86,3.39,5.57,6.93,8.08,10.58a44.8,44.8,0,0,1,5.88,12,52.55,52.55,0,0,1,1.38,6c.32,1.65.55,3.33.71,5a32.41,32.41,0,0,1,0,3.27Z"/><path d="M72.77,219.31a30.43,30.43,0,0,1,5.33.57,20.66,20.66,0,0,1,9,4.82,25.18,25.18,0,0,1,5.34,7.41,15.74,15.74,0,0,1,.94,9.14,12.74,12.74,0,0,1-3.84,7.13,10.28,10.28,0,0,1-5.22,2.68,22.58,22.58,0,0,1-6.11.65,86.49,86.49,0,0,1-10-1.24,33.5,33.5,0,0,1-6.44-1.81,16.66,16.66,0,0,1-8.36-7.42,6.2,6.2,0,0,1-1-4.79c.45-1.89.43-3.95,1.19-5.7a22.45,22.45,0,0,1,3.61-5.57C59.62,222.33,63,221,66.57,220A43.15,43.15,0,0,1,72.77,219.31Z"/><path d="M39.72,261.44c3,.47,6.11.72,9.06,1.46a11.79,11.79,0,0,1,8.39,7.46,6.79,6.79,0,0,1-1.34,7.35,61,61,0,0,1-5.74,5.15,13.88,13.88,0,0,1-3.58,1.7c-.93.36-1.94.51-2.91.78a4,4,0,0,1-3.73-.61c-1.93-1.57-3.79-3.23-5.67-4.86a16,16,0,0,1-4.51-5.78A11,11,0,0,1,29,267.5c.18-.89,1.34-1.6,2.1-2.34.57-.54,1.28-.93,1.81-1.5C34.79,261.63,37.25,261.72,39.72,261.44Z"/><path d="M0,306.54a11.11,11.11,0,0,1,2.81-6.24,2.45,2.45,0,0,1,1.32-.55,17.74,17.74,0,0,1,6.81-.12c1.74.23,3.5.44,5.21.83A12,12,0,0,1,19,301.67a15.74,15.74,0,0,1,6,6.15,3.4,3.4,0,0,1,0,3.51c-1.15,2.32-3.2,3.76-5,5.45-1.61,1.47-3.27,1.42-5.14,1-2.05-.51-4.17-.81-6.17-1.47a26.61,26.61,0,0,1-5.2-2.4,4.76,4.76,0,0,1-1.73-2.25C1,309.8.45,307.9,0,306.54Z"/></g></g></svg>