<svg id="Layer_1" data-name="Layer 1" xmlns="http://www.w3.org/2000/svg" viewBox="0 0 1069.56 792"><path d="M277.26,642.16c1-5.9,1.74-10.69,2.55-15.47q1.43-8.51,2.9-17c1-5.79,2.13-11.57,3-17.38.23-1.46-.32-3-.4-4.53-.75-15.66-2.21-31.18-8.67-45.74-1.12-2.54-1.95-5.3-3.54-7.52-8.17-11.39-16.62-22.57-24.78-34a125.4,125.4,0,0,1-7.88-12.89c-4.21-7.68-8.62-15.29-12.18-23.27q-9.26-20.77-17.55-42c-5.07-12.9-4.36-26.26-2-39.65a26.92,26.92,0,0,0,.15-5.68A26.53,26.53,0,0,1,212,363.63c1.48-2.9,1.31-6.61,2.25-9.85,2.7-9.24,5.61-18.43,8.4-27.64,1.88-6.18,3.83-12.35,5.54-18.58A126.06,126.06,0,0,1,241,277.09c4.41-7.52,8.87-15.35,14.89-21.5a294.5,294.5,0,0,1,31.59-28c15.08-11.5,30.92-22.06,48.45-29.68,20.21-8.78,40.53-17,62-22.78,29.45-7.9,59.49-12.54,89.22-18.86,19-4,38.06-3.86,57.2-4.18,12.28-.2,24.6-1,36.85-.39,23.62,1.12,47.29,2.51,69.9,10.49,14.22,5,28.39,10.18,42.59,15.23,5.57,2,11.28,3.58,16.75,5.77,12.11,4.86,24.46,9.31,36.05,15.22a174.3,174.3,0,0,1,28.85,18.47c8,6.33,14.65,14.39,21.81,21.77,2.57,2.66,5,5.51,7.31,8.37,8.77,10.61,16.55,21.81,21.08,35,1.34,3.89,3.88,7.37,5.13,11.27a135.12,135.12,0,0,1,6.58,47.9c-.88,18.25-1,36.61-3.36,54.69-1.32,10.29-6,20.24-9.78,30.09-4.26,11-9.08,21.85-14,32.6a92.82,92.82,0,0,1-17.53,26.08c-2.92,3-5,6.85-8.15,9.61-9.63,8.56-19.15,17.34-29.5,25-10.88,8-22.08,16.1-34.2,21.93-16,7.68-31.35,17.1-49.07,20.83-19.27,4.05-38.36,9.27-57.79,12.17-33.07,4.95-66.41,5.64-99.8,3.1-12.53-.95-25.17-.53-37.67-1.61-11.91-1-23.72-3.13-35.56-4.92-12.41-1.88-24.78-4-37.2-5.91-15.12-2.27-30.24-4.61-45.43-6.42-5.94-.71-12.79-2-16.5,5A21.11,21.11,0,0,0,339,572.3c-.27,8.34-4.62,14.71-8.95,21.25-2,3-3.25,6.48-5.4,9.33-2.82,3.75-6.22,7.07-9.3,10.63-2.25,2.59-4.34,5.32-6.6,7.9a36.9,36.9,0,0,1-5.64,5.8c-3.75,2.73-7.82,5-11.74,7.49-3,1.91-6,3.95-9,5.74C281.06,641.18,279.49,641.43,277.26,642.16Z"/></svg>