<svg id="Layer_1" data-name="Layer 1" xmlns="http://www.w3.org/2000/svg" viewBox="0 0 1069.56 792"><path d="M369.78,307.15c-1.49-1.77-3-3.13-4-4.83-2.15-3.94-5.42-5.61-9.74-5.9-13.1-.88-26.18-1.87-39.27-2.78-8.4-.59-16.8-1.46-25.2-1.57-16.73-.23-33.46-.32-50.18.09-11.07.27-22.12,1.52-33.18,2.31-7.34.53-14.09-2.28-21.11-3.63a108.55,108.55,0,0,0-18.74-2.12c-18.45-.28-36.94.57-55.34-.38-12.47-.64-24.87-3.28-37.18-5.61-8.28-1.57-14.48-7.11-18.87-13.91-3.19-5-5-11-.63-16.6,3.32-4.29,4.7-10.33,10.54-12.39A54.26,54.26,0,0,1,77,237.11c15-2.15,30-4.28,45-6,10.05-1.15,20.22-1.28,30.27-2.46,7.06-.82,14-3.05,21-3.93,9.07-1.12,18.23-1.44,27.34-2.24,18.36-1.62,36.68-3.43,54.93-6.28,10.06-1.58,20.5-.64,30.75-1.1,14.69-.65,29.36-1.63,44-2.31,19-.88,38-1.62,57-2.4,6.93-.28,13.87-.76,20.79-.64,10.19.16,20.37,1.08,30.55,1.12,12.37,0,23.93,4.43,36,6,10.1,1.28,20.28,1.95,30.44,2.68,6.63.48,13.29.92,19.92.78,9.38-.19,18.76-.83,28.12-1.49,10.31-.73,20.6-1.69,30.89-2.55,5.9-.5,11.79-1.31,17.69-1.44a164.63,164.63,0,0,1,17.34.73c7.38.61,14.73,1.51,22.09,2.35,6.64.77,13.26,2.13,19.92,2.34,15.51.48,29.78,6.29,44.57,9.86a282.3,282.3,0,0,1,30,9c4.75,1.72,8.92,5.16,13.22,8,8.81,5.86,17.08,12.4,26.79,17.06,9.45,4.55,18.26,10.55,26.92,16.55,5,3.46,10.7,2.85,16,4.52a23.19,23.19,0,0,0,8.18.87c17.34-.92,34.25,1.69,51.12,5.43,12.41,2.75,25.13,4.18,37.44,7.29,13,3.29,25.69,7.87,38.51,11.89,2.24.7,4.46,2,6.71,2.07,4.81.08,6.17,2.58,6.07,6.81-.07,3,.14,6.1.14,9.16-.07,46.34-.38,92.68-.13,139,.14,25.38,1.22,50.75,1.9,76.12q.79,29.48,1.68,58.94c.09,3-1.09,3.94-4,3.27-11.45-2.68-23-5.06-34.36-8a99.58,99.58,0,0,1-17.64-6.22c-12.25-5.8-25.09-9.61-38.22-12.67a63.52,63.52,0,0,1-8.33-2.54c-5.43-2.09-10.88-2.14-16.67-1.9-17.39.72-34.34,4.27-51.39,7.11-10.89,1.82-21.61,4.63-32.45,6.75-5.36,1.05-10.8,1.75-16.24,2.26-10.28,1-20.56,2-30.87,2.41-9.81.41-19.64,0-29.47.18-5.92.09-11.83.51-17.75.82-4.51.23-9,.73-13.51.74q-27.88.08-55.77-.12c-9.94-.07-19.87-.38-29.81-.67q-27.17-.79-54.34-1.7c-7.52-.24-15-.44-22.56-.81-18.71-.94-37.42-.77-56.11-3.8-15.89-2.58-31.28-6.84-46.87-10.43-8.11-1.87-13.08-7-17.14-14.34-6.07-10.95-5.42-22.18-4.51-33.89.67-8.56,2.7-16.5,7-23.82,1.67-2.85,5.19-4.52,5.44-8.31.09-1.27.51-2.82,0-3.78-4-6.94-9-13.45-12.17-20.72a44.24,44.24,0,0,1-3.41-17.42,105.64,105.64,0,0,1,2.63-25.43,43.8,43.8,0,0,1,9-16.75c8.55-10.21,5.46-14.57,0-23.1-1-1.59-1.69-3.4-2.75-4.95-2.33-3.39-4.7-6.75-7.23-10A26.28,26.28,0,0,1,365,359.57c-.32-6.08-2.1-12.1-2.19-18.17a118.37,118.37,0,0,1,1.61-22.18C365.21,314.88,368.05,310.91,369.78,307.15Z"/></svg>