<svg id="Layer_1" data-name="Layer 1" xmlns="http://www.w3.org/2000/svg" viewBox="0 0 957.34 744.43"><path d="M54.16,50.16c3.09.31,6.19.51,9.25.94,27.47,3.91,55.14,3.12,82.75,3.41q200.49,2.12,401,4,114.6,1.16,229.21,2.37c1.78,0,3.57,0,4.71,0,2.89,22.8,5.86,44.83,8.4,66.92,1.19,10.36,1.74,20.8,2.25,31.23,1.13,23,2,46,3.06,68.95q.45,9.93,1,19.84c1.13,20.2,2.81,40.39,3.29,60.61.5,21.41-.13,42.86-.26,64.29,0,3.66.05,7.32,0,11-.3,11.1-.91,22.2-.92,33.3,0,12.35.71,24.69.76,37.05,0,8.3-.79,16.61-.76,24.91,0,9.27.69,18.53.91,27.8.41,16.93.56,33.87,1.06,50.8s1.23,33.89,2,50.83q1.4,31.39,3,62.77c.32,5.9,1.37,11.76,1.7,17.66.08,1.45-1.35,3-2.08,4.49-1.19-1-2.9-1.67-3.5-2.92-6.53-13.38-12.81-26.89-19.31-40.29-3.06-6.29-6.85-12.25-9.6-18.67-4-9.4-7.38-19.08-11.08-28.63-3.35-8.65-6.65-17.32-10.2-25.89-4.72-11.4-10.1-22.53-14.39-34.09-4.94-13.33-9.11-27-13.4-40.51-3-9.48-5.41-19.15-8.62-28.54-.62-1.81-3.75-3.9-5.75-3.93-18.78-.33-37.56-.25-56.34-.26-40.78,0-81.57.06-122.35-.09q-30.9-.12-61.8-1c-14.25-.36-28.47-1.51-42.72-1.85-25.07-.58-50.14-.89-75.22-1.17-32.06-.37-64.12-.55-96.19-.9-23-.25-45.92-1-68.89-.91-34.4.07-68.8.61-103.2,1-4,0-7.9.39-11.84.37s-4.59-2.4-4.58-5.94c.12-35.3.32-70.59,0-105.88-.21-21.56-1.35-43.11-2.05-64.67-.31-9.27-.44-18.54-.88-27.81-.91-19-2-38-3-56.93-.31-5.78-.78-11.55-.94-17.33-.42-15.26-.7-30.53-1.06-45.79-.31-13.1-.45-26.22-1-39.31C55.73,85,54.59,68.49,53.65,52A7.44,7.44,0,0,1,54.16,50.16Z"/></svg>