<svg xmlns="http://www.w3.org/2000/svg" viewBox="0 0 108.82 188.81"><g id="Layer_2" data-name="Layer 2"><g id="Layer_1-2" data-name="Layer 1"><path d="M.09,12,79,.81,78.43.33,83,0a1.89,1.89,0,0,1,.28.63c.48,3.57.92,7.13,1.39,10.7.41,3.08.85,6.15,1.28,9.23a8.7,8.7,0,0,1,.18,1.67c0,.29-.31.77-.55.81-5.48,1-11,2-16.44,3L52.45,29,34.31,32.12c-1.5.26-3,.56-4.51.84.15,4,.28,7.82.44,11.69.09,2.18.24,4.36.33,6.54.18,4.74.29,9.49.51,14.23s.55,9.23.86,13.84c.22,3.23.45,6.45.72,9.67.34,4.08.6,8.17,1.1,12.23.84,6.91,1.81,13.8,2.76,20.7q1.32,9.57,2.7,19.12c.9,6.38,1.75,12.76,2.77,19.11a5.67,5.67,0,0,0,1.76,2.53c.24.25,1,.08,1.48,0,6.09-1,12.18-2,18.28-2.89,7.09-1.09,14.2-2.13,21.29-3.23,6.58-1,13.15-2.07,19.72-3.11a5.26,5.26,0,0,1,.64,0c1.21,7.85,2.42,15.67,3.66,23.65L17.49,188.81c-.16-1-.34-1.9-.43-2.81q-.81-7.55-1.58-15.11c-.4-4-.76-8.07-1.17-12.1s-.84-8-1.31-12c-.59-4.95-1.2-9.89-1.86-14.83-.63-4.75-1.36-9.49-2-14.24-.73-5.61-1.45-11.22-2.07-16.85C6.62,96.65,6.33,92.38,6,88.12c-.51-5.53-1.06-11.06-1.54-16.6C4,66.77,3.61,62,3.24,57.26q-.58-7.47-1.13-14.94c-.32-4.35-.6-8.7-.91-13L0,12.4A2.6,2.6,0,0,1,.09,12Z"/></g></g></svg>