<svg id="Layer_1" data-name="Layer 1" xmlns="http://www.w3.org/2000/svg" viewBox="0 0 1033.1 500.11"><path d="M677.29,329.54c-5.5-.36-10.78-1-16.07-1-22.47-.11-45-1.32-67.4.24-39.54,2.75-79.06,1.2-118.59,1.49-14.12.11-28.25-.57-42.38-.75-36.38-.46-72.77-.73-109.16-1.28-32.71-.49-65.42-1.26-98.13-1.85-9.28-.16-18.56.13-27.83-.18-7.41-.25-14.8-1.24-22.2-1.6-2.91-.14-5.86.9-8.78.83-10.26-.24-20.51-.84-30.77-1.07-3.29-.08-3.91-2-3.92-4.45,0-15.63-.11-31.26,0-46.89.07-7.79.66-15.58.91-23.37.38-12.24.82-24.49.93-36.74,0-4.38,1.33-6.2,6-6.19,76.41.19,152.84-1.21,229.2.69,96.16,2.39,192.29.34,288.43,1.28,9.42.09,18.84-.7,28.27-.89,2.92-.06,3.62-1.33,3.65-4,.26-19.56.65-39.11,1-58.67.09-6,0-11.89,0-19.32,6,2.13,11.23,3.69,16.21,5.83Q719.21,137,731.48,143c13.07,6.36,26.06,12.89,39,19.44,10.52,5.31,20.88,11,31.5,16.1,12.73,6.15,25.75,11.73,38.5,17.86,17.76,8.54,35.39,17.33,53.06,26,11.8,5.81,23.62,11.59,35.33,17.57,6.48,3.31,12.68,7.16,19.14,10.5,3.49,1.8,3.16,3.68.3,5.22-6.56,3.52-13.27,6.78-20,10-13.85,6.62-27.7,13.24-41.63,19.7Q864.06,296,841.27,306.2c-15.14,6.82-30.49,13.16-45.42,20.38-10.15,4.9-19.73,11-29.59,16.48q-24.57,13.72-49.19,27.39c-12.16,6.76-24.28,13.58-36.51,20.2-2.16,1.17-4.79,1.47-8.06,2.42C674.14,371.34,675.69,350.77,677.29,329.54Z"/></svg>