<svg id="Layer_1" data-name="Layer 1" xmlns="http://www.w3.org/2000/svg" viewBox="0 0 727.17 949"><path d="M407.38,166.5,366.31,75.26c88.71,16,177.52,22.89,266.86,33.12-22.29,41-45.2,81.2-66.21,122.36s-40.05,83.18-60.4,125.75L445,264.73c-1.61,1-3.11,1.89-4.58,2.83-18,11.4-36,22.75-53.92,34.22-22.54,14.42-43.49,31-59.39,52.58-13.65,18.54-27.11,37.42-36.13,59-4,9.55-9.71,18.42-13.28,28.1a98.08,98.08,0,0,0-5.64,25.49,192,192,0,0,0-.06,34.58c1.2,12.17,3.84,24.27,6.81,36.16a425,425,0,0,0,12.24,41.47c6,16.55,15.94,31,27.37,44.3,7.66,8.94,14.74,18.5,23.22,26.58,8,7.64,17.53,13.69,26.38,20.46,14.51,11.09,28.89,22.36,43.56,33.24,13.46,10,27.22,19.55,41.78,30q-32.5,47.49-65.88,96.29c-8.22-4.71-15.73-8.87-23.1-13.27q-10.45-6.24-20.67-12.87c-11-7.14-21.87-14.51-32.88-21.66-10.44-6.79-21.11-13.23-31.44-20.18-6.73-4.53-13.2-9.49-19.5-14.63-8.82-7.2-17.83-14.26-25.9-22.25A306.66,306.66,0,0,1,210,698c-7.76-9.75-15.07-19.92-21.86-30.36-7-10.79-14.56-21.58-19.38-33.38-6.38-15.59-10.53-32.12-15.25-48.35a179.46,179.46,0,0,1-5.23-23.8c-1.22-8.35-1.5-16.83-2.09-25.27-1.27-18.2-1.58-36.51,1.2-54.48C150.1,465.06,154.76,448,159,431c1.61-6.5,4.34-12.74,6.69-19.05,3.65-9.76,6.76-19.78,11.3-29.11a228.3,228.3,0,0,1,16.94-29.05c11.93-17.4,24-34.78,37.07-51.3,7.26-9.17,16.73-16.58,25.19-24.8,2.39-2.31,4.74-4.66,7.12-7,10.39-10.17,20.44-20.74,31.31-30.37,8.08-7.17,17.24-13.12,25.91-19.63,8.09-6.07,15.77-12.77,24.31-18.12,14.72-9.23,29.94-17.66,45-26.35C395.41,173,401.13,170,407.38,166.5Z"/></svg>