<svg xmlns="http://www.w3.org/2000/svg" viewBox="0 0 187.33 122.73"><g id="Layer_2" data-name="Layer 2"><g id="Layer_1-2" data-name="Layer 1"><path d="M54.51,0,71.7,39.72l.19-.24a7.25,7.25,0,0,1,1.47.88c1.51,1.45,1.67,1.44,3.41.69,2.45-1,5-2,7.45-3L92.1,35c2.23-.84,4.48-1.63,6.69-2.51,2.87-1.14,5.72-2.36,8.59-3.52,2.7-1.08,5.43-2.11,8.14-3.19,2.88-1.16,5.74-2.39,8.63-3.54,2.42-1,4.88-1.88,7.32-2.84s4.89-2,7.35-3c2.9-1.14,5.81-2.24,8.71-3.39,2.41-.95,4.79-2,7.19-2.92s5.06-2,7.58-3c2-.79,4-1.62,5.95-2.45.45-.19.89-.57,1.34-.58a1.37,1.37,0,0,1,1,.68c1.71,4,3.37,8,5,12,1.22,2.94,2.41,5.89,3.66,8.81,1,2.48,2.21,4.91,3.26,7.38s2,4.89,3,7.33A18.65,18.65,0,0,0,187,43.63c.76,1.14,0,1.32-.73,1.56-1.71.6-3.44,1.12-5.16,1.7q-7.95,2.65-15.9,5.33c-3.72,1.24-7.43,2.49-11.13,3.78-5,1.74-10,3.52-14.95,5.29l-9.71,3.47c-3.63,1.3-7.24,2.61-10.87,3.88-6.19,2.16-12.39,4.27-18.58,6.43-2.09.74-4.13,1.61-6.22,2.35C92,78,90.2,78.56,88.41,79.13c-.45.14-.9.31-1.64.57.41,1.4.77,2.79,1.22,4.14.68,2,1.41,4,2.16,6,.55,1.47,1.23,2.9,1.75,4.38.82,2.34,1.5,4.73,2.35,7.06s1.77,4.31,2.58,6.49c.7,1.84,1.27,3.72,1.92,5.58.72,2.07,1.48,4.12,2.21,6.19.26.76.49,1.52.71,2.3.06.24.13.66,0,.76a1.05,1.05,0,0,1-.82.11c-3-.94-6-1.93-9.08-2.87-3.26-1-6.55-1.92-9.79-3-3.92-1.26-7.78-2.72-11.72-3.91-5.18-1.57-10.42-3-15.63-4.43-3.34-.94-6.66-1.94-10-2.88-4.13-1.16-8.27-2.27-12.39-3.44-3.49-1-6.95-2.06-10.42-3.09L8.93,95.3Q5.2,94.2,1.44,93.17c-1.73-.48-1.8-.79-.74-2.29,1.91-2.68,3.75-5.41,5.62-8.12,1.38-2,2.8-4,4.13-6s2.51-4.07,3.76-6.1C15.57,68.41,17,66.24,18.29,64c1.84-3.18,3.57-6.42,5.4-9.61,2.5-4.33,5.08-8.6,7.55-13,1.17-2.07,2.12-4.27,3.27-6.36,1.58-2.87,3.26-5.68,4.86-8.53C41.2,23.29,43,20,44.81,16.74c1.41-2.53,2.87-5,4.29-7.58,1.49-2.68,2.93-5.38,4.42-8A8.07,8.07,0,0,1,54.51,0Z"/></g></g></svg>