<svg xmlns="http://www.w3.org/2000/svg" viewBox="0 0 98.63 178.99"><g id="Layer_2" data-name="Layer 2"><g id="Layer_1-2" data-name="Layer 1"><path d="M4.83.12c10.1,0,20-.14,29.88-.12,3.1,0,6.2.32,9.31.52,1.56.09,3.13.21,4.68.39,2.18.25,4.34.65,6.52.82,1.87.15,3.77,0,5.64.12,2.71.19,5.41.51,8.12.78.11,0,.22,0,.33,0,3.15.18,6.3.31,9.44.54,2.65.2,5.28.52,7.92.78.49.05,1,0,1.47.07l7.52.5c.72,0,1.43.11,2.14.2.51.07.84.26.83.93q-.3,17.3-.54,34.59c-.13,9.65-.18,19.29-.3,28.94q-.21,17.13-.47,34.25l-.42,31.31q-.24,17.58-.48,35.15c0,3,0,6,0,9.07H.23c0-2.23,0-4.32,0-6.42q-.09-8.7-.22-17.4c0-.69.19-1,.89-.92.3,0,.6,0,.9,0H71.44c.2-1.66.43-3.22.58-4.78.36-3.77.73-7.55,1-11.34.2-2.74.27-5.49.35-8.24.33-12.62.83-25.23.92-37.85.14-19.9,0-39.8,0-59.7A2.86,2.86,0,0,0,72,29.76c-2.89-.23-5.78-.41-8.67-.57q-7.72-.42-15.44-.79c-3-.14-6-.24-9-.32q-14.07-.39-28.12-.72c-2.26-.06-4.51,0-7,0Z"/></g></g></svg>