<svg id="Layer_1" data-name="Layer 1" xmlns="http://www.w3.org/2000/svg" viewBox="0 0 924 792"><path d="M829.23,423.85c0,4.6.5,9.26-.11,13.77-1.22,9.14-2.92,18.23-4.68,27.29a91.61,91.61,0,0,1-3.6,13.57c-3.29,9.12-6.75,18.2-10.55,27.13-2.93,6.88-6.43,13.53-9.76,20.25-3.54,7.15-7.25,14.23-10.76,21.4-4.84,9.87-9.2,20-14.47,29.62-3.9,7.12-8.77,13.74-13.53,20.35a158.42,158.42,0,0,1-11.67,14.42c-3.68,4-7.93,7.51-11.91,11.25-4.85,4.56-9.59,9.25-14.54,13.69-7,6.27-14,12.54-21.23,18.48-7,5.69-14.09,11.2-21.46,16.32-9.06,6.31-18.55,12-27.67,18.2a200.58,200.58,0,0,1-40.91,21.28c-10.57,4.09-21.55,7.19-32.49,10.23-11.45,3.17-23.14,5.43-34.58,8.63a174.15,174.15,0,0,1-49.15,6.37c-7.6-.08-15.23.29-22.81-.14-9.09-.52-18.2-1.33-27.21-2.65-14.21-2.07-28.43-4.23-42.48-7.15-17.13-3.56-34.39-7-51-12.26-15.09-4.78-29.56-11.65-44.05-18.16-14.88-6.67-28.05-16.13-40.25-26.91-5.8-5.14-11.29-10.63-17.14-15.72-6.83-6-14.17-11.33-20.8-17.49-12.84-11.94-25.16-24.45-38-36.35-8.44-7.79-14.88-17.06-21.08-26.52-2.38-3.63-3.63-8-5.28-12.12C160.37,546.77,154.61,533,149.28,519s-10.31-28.16-15.2-42.34c-1.12-3.23-1.25-6.81-1.77-10.24-1.37-9-3.5-18-3.87-27.12a364,364,0,0,1,.33-43.32c1.17-14.76,4.2-29.37,6.31-44.06,1.57-10.87,2.89-21.78,4.46-32.64a150.68,150.68,0,0,1,14-46.1c7-14,13.21-28.35,20.16-42.35,7.31-14.71,14.53-29.52,22.88-43.64,4.56-7.73,11.32-14.18,17.19-21.11,6.63-7.83,13.1-15.82,20.16-23.24a164.47,164.47,0,0,1,19.23-17.63c13.8-10.48,27.8-20.73,42.22-30.32C315.63,81.44,336.66,69.29,359.57,61c8.05-2.93,16.68-4.27,25-6.38,7.8-2,15.54-4.21,23.39-6,7.08-1.59,14.22-3.35,21.41-3.89,16.58-1.25,33.25-1.27,49.79-2.86,8.06-.77,15.38,1.15,23,2.41,4.77.78,9.72.44,14.49,1.23,11.2,1.85,22.33,4.06,33.49,6.14,3.65.68,7.33,1.23,10.92,2.11,12.33,3,24.83,5.56,36.87,9.49,10,3.26,19.37,8.31,29.08,12.42,13.7,5.81,25.38,14.69,37,23.69,7.66,5.91,16,11,23.46,17.1,10.24,8.41,20.33,17.09,29.77,26.37,11.86,11.67,23.12,23.95,34.39,36.2,7.31,7.94,14.62,16,21.09,24.57,4,5.35,6.63,11.79,9.57,17.89,4,8.36,8,16.78,11.55,25.34,3.13,7.45,5.7,15.14,8.59,22.69,2.29,6,4.88,11.92,7,18,1.83,5.3,3.2,10.75,4.69,16.16,1.62,5.87,3.25,11.75,4.65,17.68.9,3.81,1.28,7.74,2.08,11.57.88,4.21,2.15,8.34,2.91,12.57a122.88,122.88,0,0,1,1.91,14.29c.76,12.71,1.12,25.45,1.88,38.16.52,8.64,1.46,17.26,2.22,25.88Zm-36.15-9.78c-.6-10.32-.79-17.93-1.53-25.49-1.17-11.91-1.89-24-4.34-35.62-2.18-10.37-6.32-20.35-9.83-30.42-3.13-9-6.68-17.79-9.89-26.73-1.88-5.26-3.4-10.65-5.2-15.95-1.55-4.57-3.16-9.13-4.9-13.63-1.89-4.88-3.68-9.82-6-14.48a128,128,0,0,0-8.54-14.51c-7.17-10.52-14.08-21.28-22.11-31.13-6.57-8.05-14.5-15-22-22.27-6-5.76-12-11.63-18.56-16.65-9.69-7.4-19.29-14.64-26.08-25.11-2.42-3.73-6.35-6.52-9.76-9.54-2-1.75-4.37-3-6.41-4.65-13.8-11.22-28.73-20.52-45.67-26.15-16.46-5.47-33-10.92-49.66-15.53-10-2.76-20.39-3.82-30.58-5.75-6.6-1.26-13.14-2.81-19.74-4a29.72,29.72,0,0,0-7.29-.46c-8.24.56-16.49,1.2-24.71,2-7.63.78-15.3,1.5-22.83,2.89s-14.9,3.54-22.32,5.45C403.92,89.22,392.49,91,382,96.23c-10.82,5.38-22.13,9.79-32.93,15.21-18.86,9.46-37.52,19.36-56.23,29.13-9.38,4.9-18.38,10.38-26.16,17.66-7.25,6.79-15.4,12.83-21.6,20.46-7.47,9.21-13.53,19.61-19.75,29.78-3,4.94-4.92,10.55-7.45,15.8-3.78,7.82-8.31,15.35-11.39,23.43-9.37,24.64-19.28,49.14-23.7,75.35-1.26,7.46-2.72,14.9-3.66,22.4-1.21,9.62-2.12,19.29-2.92,29-.41,5-.21,10-.45,15-.33,6.85-1.44,13.73-1.09,20.54.59,11.82,2,23.59,3.16,35.38a129.46,129.46,0,0,0,1.8,13.46c1.39,6.75,3.75,13.35,4.68,20.15A95.7,95.7,0,0,0,191,502.18c6.57,16.26,14.91,31.57,23.55,46.76,6.57,11.56,12.47,23.57,19.89,34.57,6.21,9.19,14,17.35,21.46,25.67,2.78,3.12,6.42,5.48,9.77,8.06s6.76,5,10.14,7.43c4.25,3.11,8.33,6.49,12.77,9.31,9,5.69,18.19,11,27.27,16.61,10.36,6.34,20.85,12.5,32.35,16.53,8.38,2.93,17,5.27,25.5,7.79,8,2.37,16,5,24.06,6.87,9.74,2.26,19.6,4,29.45,5.72,7.72,1.35,15.46,2.87,23.25,3.33,12.73.75,25.5.68,38.26,1,1.77,0,3.53.49,5.31.62,4.24.29,8.53,1,12.73.65,7.64-.65,15.24-1.87,22.83-3,10.06-1.49,20.16-2.77,30.11-4.75,11.28-2.25,22.46-5,33.6-7.85a114.23,114.23,0,0,0,35-15.72c5.6-3.71,11-7.7,16.43-11.69,6.35-4.69,12.62-9.5,18.88-14.31,2.81-2.16,5.41-4.6,8.31-6.62,7.4-5.17,15.13-9.9,22.31-15.35a97.16,97.16,0,0,0,13.13-12.37c7.11-7.91,14.07-16,20.66-24.34,7.74-9.81,15.72-19.56,22.29-30.14,5.61-9,9.54-19.13,13.9-28.89,2.92-6.55,5.24-13.37,7.9-20,1.72-4.28,3.76-8.44,5.34-12.77,2.39-6.51,4.53-13.11,6.74-19.68,2-5.83,4.76-11.55,5.63-17.54C791.51,435.94,792.19,423.66,793.08,414.07Z"/></svg>