<svg xmlns="http://www.w3.org/2000/svg" viewBox="0 0 118.08 208.95"><g id="Layer_2" data-name="Layer 2"><g id="Layer_1-2" data-name="Layer 1"><path d="M117,50l.06-1.2h.21c0,1.12-.07,2.25,0,3.37.14,1.9.39,3.8.6,5.78l.12-.55h.11V71.16l-.28-.43c0,.07-.1.14-.09.2a11.84,11.84,0,0,1-1.3,5.65,23.22,23.22,0,0,0-.55,2.83c-.36,1.29-.83,2.55-1.26,3.81s-.89,2.7-1.45,4c-1.14,2.64-2.41,5.23-3.53,7.88-.87,2.07-1.3,4.38-2.46,6.25-.63,1-.4,2.64-1.92,3.24-.43.16-.54,1.08-.87,1.62-1,1.68-2.13,3.32-3.15,5-.46.78-.75,1.67-1.18,2.47a7.57,7.57,0,0,1-1.1,1.58,79.29,79.29,0,0,1-6.62,7,52.65,52.65,0,0,1-13.13,8.33c-2.46,1.06-5.06,1.79-7.61,2.62-4.82,1.56-9.65,3.08-14.48,4.63-1.93.62-3.89,1.2-5.78,1.94a25.14,25.14,0,0,0-9.92,6.82,1.58,1.58,0,0,0-.37.86c0,1.27-1.51,2-1.15,3.46,0,.2-.27.49-.38.74a7.92,7.92,0,0,0-.48,1.22c-.33,1.27-.58,2.57-1,3.82-.08.24-.75.5-1.08.44-4.3-.82-8.58-1.74-12.88-2.56-3.28-.62-6.57-1.11-9.85-1.7-2.08-.38-4.13-.85-6.2-1.25-1.45-.28-2.91-.52-4.31-.77,0-1.1,0-2,0-3A6.38,6.38,0,0,1,5,143.66c.61-.77.66-2,1-2.95.52-1.3,1.15-2.56,1.7-3.86.12-.3.1-.66.33-.88a9.85,9.85,0,0,0,1.08-1.69A6.28,6.28,0,0,1,10.76,132a1.74,1.74,0,0,0,.59-1.06c.15-1.49,1.37-2.3,2.13-3.37a29.54,29.54,0,0,1,3.46-3.88,9.59,9.59,0,0,1,3-1.59,41.1,41.1,0,0,0,4.71-2.31c1.13-.7,2.12-1.52,3.55-1.3.18,0,.45.07.55,0,1.49-1.5,3.6-1.12,5.37-1.77,1.15-.42,2.41-.51,3.55-1,1.4-.55,3-.47,4.27-1a17.84,17.84,0,0,1,3.78-.93,8.51,8.51,0,0,0,1-.3l4.09-1.21c1.22-.36,2.45-.68,3.66-1.07.7-.22,1.37-.57,2.08-.79a6.24,6.24,0,0,1,1.35-.16l-.2-.17,4.16-1.72-.24-.17A32.61,32.61,0,0,0,68,105.13a38.93,38.93,0,0,0,5.56-4,14,14,0,0,0,3.47-4c.3-.61,1.24-.88,1.69-1.47C80,94,81.25,92.33,82.37,90.58a24.1,24.1,0,0,0,2.87-5.2c.44-1.34,2-2.06,1.76-3.76-.07-.52.8-1,.9-1.82A24.21,24.21,0,0,1,89,76c0-.15,0,0,.06.22.08-.1.15-.15.15-.2a6.9,6.9,0,0,1,.9-3.95c0-.08,0-.22,0-.33,0-3.73,0-7.46-.19-11.19V62.8h-.25c0-.7,0-1.4,0-2.09a18.67,18.67,0,0,0-.52-4.4,18.91,18.91,0,0,0-1.65-4.5c-.74-1.13-.87-2.65-1.48-3.89a28.32,28.32,0,0,0-2.25-3.45,24.1,24.1,0,0,0-2.32-3.08,47.13,47.13,0,0,0-4.58-4.24A35.3,35.3,0,0,0,73,34.78c-.91-.55-1.79-1.17-2.73-1.66a19.72,19.72,0,0,0-8.79-2.66c-3.45-.08-6.9-.38-10.34-.41A24.94,24.94,0,0,0,40.16,32.5c-2,1-4,2-5.91,3.08-1.58.92-3.16,2.09-3.65,3.85a14,14,0,0,1-1.4,2.64,24.12,24.12,0,0,0-1.05,3.07c-.14.39-.34.75-.51,1.13l-.16-.08a28.36,28.36,0,0,1-1.63,3.32c-.8,1.23-.88,1.16-2.7.87-3.7-.61-7.39-1.26-11.09-1.79S4.53,47.66.76,47.22c-.6-.07-.89-.2-.7-.9.12-.5-.08-1.08.06-1.57.44-1.52.94-3,1.46-4.51.38-1.07.82-2.11,1.25-3.16a4.19,4.19,0,0,1,.42-.7c.14-.2.4-.37.44-.58a23.88,23.88,0,0,1,2.69-6.65c.85-1.69,1.47-3.5,2.38-5.14a36.35,36.35,0,0,1,2.9-4.19,24.44,24.44,0,0,1,5.92-5,2.55,2.55,0,0,0,.61-.73c.11-.14.12-.43.24-.46,2.22-.73,3.63-2.81,5.76-3.58,1.37-.5,2.47-1.37,3.75-1.95,1.66-.74,3.28-1.56,5-2.22,1.42-.56,3-.78,4.34-1.46a23.26,23.26,0,0,1,5.9-1.8,31.93,31.93,0,0,0,3.72-1.26.85.85,0,0,1,.22,0c1.2-.15,2.41-.29,3.61-.47S53,.4,54.14.19l-.6-.1V0H64.82l0,.06-1,.15V.32l.4,0c2.23.16,4.46.27,6.68.49,1.12.12,2.22.43,3.19.62l-.53.18c.48,0,.74.09,1,.08a11.86,11.86,0,0,1,4.48.86c1.69.59,3.46.93,5.18,1.43.69.21,1.32.58,2,.85a22.32,22.32,0,0,1,2.55,1c2,1,3.9,2.12,5.78,3.3A14.57,14.57,0,0,1,96.42,11c.94.86,2,1.63,2.86,2.53a33,33,0,0,0,2.21,2.61c1.6,1.3,2.29,3.26,3.73,4.67.52.51.66,1.42,1.2,1.89,1,.85,1.27,2.1,2,3.08A19.63,19.63,0,0,1,110,28.3c.65,1.18,1.31,2.36,1.84,3.6a13,13,0,0,1,1.4,3.26,7.65,7.65,0,0,0,1.07,2,8.34,8.34,0,0,1,.66,1.5,18.17,18.17,0,0,0,1,3.51c.69,1.3.2,2.59.4,3.86S116.77,48.78,117,50Z"/><path d="M5.51,208.91V207H5.35l-.11,1-.69-13.17H4.46l-.1,1H4.17v-5.58c0-.27.06-.73,0-.76-.84-.28-.26-.95-.42-1.4a3,3,0,0,1,0-.79,54.43,54.43,0,0,0-.57-7.58c-.22-1.07-.14-2.1-.34-3.13,0-.07,0-.15,0-.22-.17-.87-.17-.87.34-1.41l5.2-.47,0-.1-1.44-.13v-.12c1.73,0,3.47.06,5.2,0,1.44-.06,2.88-.27,4.31-.44a14.88,14.88,0,0,0,2.85-.47c2.51-.86,5.1-.15,7.93-.55l-1.12-.21v-.1h4.37v-.23L29.1,172v-.15c1,0,1.92,0,2.88,0s1.58.45,1.58,1.51a22.33,22.33,0,0,0,.2,3.73l.13-.55.69,6.83.05,0,.22-.35c.19,1.58.37,3.09.54,4.6s0,3.14.57,4.5a13.13,13.13,0,0,1,.33,2.77c.23,1.12.42,2.25.63,3.36l.25-.71v3.77l.2,0,.13-1c.06.1.11.15.11.2.16,3,.16,3-3.43,3.64-2.56.43-5.11.91-7.67,1.34-2.9.48-5.8.88-8.69,1.4-3.43.61-6.84,1.33-10.27,1.95A11.38,11.38,0,0,1,5.51,208.91Z"/></g></g></svg>