<svg xmlns="http://www.w3.org/2000/svg" viewBox="0 0 419.33 114.25"><g id="Layer_2" data-name="Layer 2"><g id="Layer_1-2" data-name="Layer 1"><path d="M49,0c3.53.22,7.06.35,10.58.68A56.1,56.1,0,0,1,78,5.67,57.9,57.9,0,0,1,93.18,16.08a14.22,14.22,0,0,1,2.37,4A61.29,61.29,0,0,1,99,27.18a57.64,57.64,0,0,1,2,7.91q.93,4.52,1.57,9.08c.55,4,.88,8-.12,12-1.62,6.48-3,13-4.54,19.51a21,21,0,0,1-5.44,9.7c-3.36,3.58-6.71,7.17-10.09,10.72A17.21,17.21,0,0,1,74,100.59l-8.36,2.26A55.41,55.41,0,0,1,53,104.64a33.28,33.28,0,0,1-8.82-.84c-3.55-.84-7.24-1.33-10.47-3.21-1.9-1.12-3.84-2.2-5.62-3.49-3.59-2.59-7.21-5.15-10.57-8A35.7,35.7,0,0,1,8.26,77.93c-1.76-3.54-3.4-7.13-5-10.75a38.68,38.68,0,0,1-2.4-6.52A32.39,32.39,0,0,1,.41,48c.39-2.4.55-4.85,1.08-7.22C2.28,37.28,2.73,33.7,4,30.28A92.22,92.22,0,0,1,12,15a20.66,20.66,0,0,1,8.72-8.26,108.33,108.33,0,0,1,11-4.27c2.05-.7,4.28-.89,6.39-1.46C41.75.05,45.39.14,49,0Z"/><path d="M323.11,67.78c.24-4.72.21-8.12.65-11.46a35.17,35.17,0,0,1,1.9-6.75,42.64,42.64,0,0,1,5.42-11.12A62.81,62.81,0,0,1,337.83,31c2.11-2.12,4.42-4,6.68-6,1.55-1.34,3-2.87,5.11-3.36,1.48-.33,2.94-.83,4.43-1.07,3.46-.56,6.92-1.06,10.4-1.46,2.3-.27,4.63-.33,6.95-.48,1.72-.12,3.44-.26,5.16-.35a33.84,33.84,0,0,1,9.14,1,31.42,31.42,0,0,1,5.61,2.1,57.69,57.69,0,0,1,8,3.75c4,2.51,8.09,4.9,10.58,9.19,1.53,2.63,3.49,5,4.92,7.71a48,48,0,0,1,3.41,8.14c1.17,3.71,1,7.63,1.05,11.47a98.25,98.25,0,0,1-.11,10,40.06,40.06,0,0,1-1.43,8.06,126.07,126.07,0,0,1-4.14,12c-.57,1.42-1.92,2.53-3,3.73-1.81,2-3.59,4.12-5.52,6a41.56,41.56,0,0,1-11.65,7.79,58.68,58.68,0,0,1-14,4.68,35.76,35.76,0,0,1-6,.28,23.32,23.32,0,0,1-4.5,0,45.82,45.82,0,0,1-7.88-1.85,105.11,105.11,0,0,1-10.56-4.48c-3.84-1.88-7.59-4-11.28-6.1a13,13,0,0,1-2.83-2.86c-3.61-4.14-6.93-8.51-9-13.65-1.15-2.88-2-5.9-2.93-8.86a10.17,10.17,0,0,1-.46-1.61C323.68,72,323.31,69.23,323.11,67.78Z"/><path d="M170.22,59.74a45.64,45.64,0,0,1,3.62-17.59,45.23,45.23,0,0,1,12-17.06c2.52-2.19,4.9-4.55,7.52-6.61A29,29,0,0,1,199,15.16a47.85,47.85,0,0,1,6.11-2.22,28,28,0,0,1,3.19-.59l5.86-1.23a3.5,3.5,0,0,1,.55-.09c2.32-.16,4.66-.22,7-.52,2.64-.34,4.9.69,7.16,1.73,3.3,1.52,6.62,3,9.83,4.7s6.6,3.56,9.73,5.61a25.81,25.81,0,0,1,4.2,4,47.74,47.74,0,0,1,4,4.53,36.91,36.91,0,0,1,4.19,6.55c1.75,3.87,3.11,7.91,4.55,11.9A15.18,15.18,0,0,1,266,52.8c.46,3.83,1.27,7.63.32,11.52a31.78,31.78,0,0,1-4,9q-5.86,9.52-12,18.88a85.13,85.13,0,0,1-6.17,7.9,8.22,8.22,0,0,1-2.75,1.69,68.78,68.78,0,0,1-7.38,3.35,25.56,25.56,0,0,1-6.39,1.18,76.52,76.52,0,0,1-9.81.23,50.07,50.07,0,0,1-7.65-1.28c-4.32-.92-8.6-2.06-12.94-2.92-5.6-1.1-9.65-4.66-13.64-8.3a50.34,50.34,0,0,1-5.42-6c-2.2-2.76-3.39-6.08-4.49-9.39a100.46,100.46,0,0,1-3.13-10.65c-.5-2.35-.25-4.86-.32-7.3C170.14,60.42,170.2,60.08,170.22,59.74Z"/></g></g></svg>