<svg id="Layer_1" data-name="Layer 1" xmlns="http://www.w3.org/2000/svg" viewBox="0 0 1069.56 792"><path d="M932.27,109.61c1.39,11.82,2.47,23.13,4.1,34.35,4.23,29.15,4,58.55,5.49,87.86.63,12.15,3.13,24.2,3.82,36.36.73,12.93.36,25.94.4,38.91.06,17.3.11,34.6,0,51.9q-.07,21.24-.43,42.47c-.12,6.93-.64,13.84-.73,20.76-.13,9.88,0,19.75-.05,29.62q-.3,29.55-.77,59.08c-.13,7.8-.66,15.6-.76,23.41-.21,17.4-.07,34.8-.43,52.2-.48,23.05-1,46.12-2.09,69.15-.77,15.81-2.64,31.57-4,47.36-.51,6.09-.89,12.19-1.32,18l-62.48-1.23c-9.42-.18-18.84-.31-28.26-.55-14.79-.37-29.58-1-44.38-1.2-17.51-.27-35-.08-52.54-.4s-35.26-1.19-52.9-1.52c-14.62-.28-29.25-.13-43.88-.19-2.28,0-4.55-.23-6.83-.22q-38.67.13-77.35.32c-3.41,0-6.82.08-10.24.09-10.08,0-20.16-.06-30.24,0-24,.19-48.08.66-72.12.65-28.93,0-57.85-.39-86.77-.7-18.72-.2-37.47,0-56.15-1-49-2.58-98.11-.77-147.17-1.43-5.72-.08-11.47.45-17.19.89-2.78.21-3.81-.89-3.69-3.55.35-7.07.31-14.17,1-21.2a195.31,195.31,0,0,0-.29-42.35c-.63-5.32-.53-10.73-.72-16.1q-.84-23.73-1.65-47.44c-.49-14.51-.25-29.09-1.65-43.5-1.82-18.8-3.14-37.55-3.18-56.45-.06-21.22-.87-42.44-1.5-63.65-.38-12.91-1-25.81-1.55-38.71q-.77-18.6-1.57-37.19c-.52-12.26-1.07-24.51-1.57-36.77q-.81-19.76-1.58-39.51c-.54-14.11-1.15-28.22-1.54-42.33-.37-12.82-.42-25.64-.72-38.46-.2-8.38-.69-16.76-.87-25.14-.34-15.56-.53-31.12-.84-46.68,0-1.68-.54-3.35-.65-5-.26-4.1,1.24-5.84,5.36-6,18.45-.61,36.91-1.28,55.37-1.69,28.57-.62,57.14-1.24,85.71-1.5,15.73-.14,31.47.49,47.2.69q64.45.83,128.93,1.59c12.94.17,25.89.64,38.83.78,28.93.3,57.85.47,86.78.69,3.76,0,7.53.17,11.28.07q25.86-.74,51.69-1.57c7.85-.24,15.7-.75,23.54-.71,14.73.08,29.46.37,44.18.75,16.74.42,33.47,1.07,50.21,1.55q30,.86,60,1.6,17.26.45,34.52.85c10.46.24,20.93.45,31.4.7ZM162.43,142.53c-1.54,9.95-1.14,19-.32,28.19,1.41,15.79,2,31.65,2.86,47.48,1,19.91,1.68,39.83,2.91,59.72,1.54,24.84,3.63,49.65,5.25,74.48,1.35,20.79,2.47,41.6,3.51,62.41,1.07,21.26,1.9,42.55,2.9,63.82.22,4.66.89,9.3,1.14,14,.29,5.24,0,10.52.57,15.71,1.3,11.33,4.14,22.59,4.3,33.91.32,22.11-1,44.24-1.23,66.36-.25,20.73-.08,41.47-.06,62.2,0,3.24,1.73,5.07,5,5.21,19.82.81,39.63,1.9,59.45,2.27,14.58.27,29.17-.6,43.76-.62,12.87,0,25.73.43,38.6.73,8.61.2,17.22.55,25.84.77,11.24.3,22.48.51,33.72.81,8,.21,15.93.51,23.89.77,20.27.66,40.52,1.63,60.79,1.9,19.46.27,38.94-.36,58.4-.28,33.37.12,66.74-.89,100.07,2.19a355.36,355.36,0,0,0,36.65,1c29.84-.34,59.68-1.06,89.51-1.64q18.24-.35,36.49-.75c13.13-.27,26.26-.63,39.39-.76,13.52-.14,27-.12,40.56,0,5.34,0,10.68.61,16,.66a36,36,0,0,0,8.06-1,3.31,3.31,0,0,0,1.86-2.4c.66-6.86,1.42-13.73,1.61-20.61.91-33.25-1.41-66.53,1.52-99.76,1.15-13.13,1.12-26.36,1.68-39.54.49-11.61,1-23.22,1.59-34.83.51-10.08,1.17-20.15,1.75-30.22q1.93-34,3.86-67.91c0-.78.09-1.57.12-2.35.48-9.94,1.08-19.88,1.41-29.82q.89-26.15,1.48-52.28c.28-12.44.65-24.9.33-37.33-.18-7.08-1.88-14.11-2.48-21.2-.8-9.34-1.2-18.72-1.77-28.08a11.54,11.54,0,0,0-.1-1.17c-1-7.42-2-14.84-3-22.26-.65-5.15-1.13-10.32-1.72-15.47q-1.51-13.12-3.08-26.25c-.1-.86-.21-1.73-.34-2.81-5.14-.27-10.08-.6-15-.77-9.19-.31-18.38-.49-27.58-.79-14.73-.5-29.46-1.34-44.2-1.5-24.72-.28-49.46-.07-74.19-.19-9.44,0-18.88-.39-28.33-.68-5.86-.18-11.72-.77-17.57-.73-16.37.12-32.73.47-49.09.75-6.94.11-13.89.09-20.82.45-25.49,1.32-51-1.09-76.51,1.71-9.59,1-19.34.67-29,.91-11.38.28-22.75.59-34.13.76-7.94.12-15.89.23-23.82,0-22.37-.66-44.74-1.57-67.11-2.24-13.78-.41-27.56-.78-41.34-.76-16.35,0-32.7.52-49.06.7-7.15.08-14.3-.11-21.44-.18q-25.31-.28-50.61-.58c-9.17-.11-18.33-.19-27.5-.46C192.86,143.66,177.84,143.07,162.43,142.53Z"/></svg>