<svg id="Layer_1" data-name="Layer 1" xmlns="http://www.w3.org/2000/svg" viewBox="0 0 869.77 792"><path d="M692.6,522.21c-11.56,15.59-23.06,30.66-38.33,42.43a311.07,311.07,0,0,1-49.86,31.56c-6.15-15.75-12.06-30.82-17.94-45.9-7-17.82-13.79-35.68-20.91-53.43-1.41-3.5-.71-5,2.21-7.39a277.87,277.87,0,0,0,23.84-21.78c3.43-3.57,5-3.88,9.25-1.53,3.32,1.85,6.5,3.92,9.75,5.9l78.24,47.69C690.18,520.57,691.47,521.46,692.6,522.21Z"/><path d="M367.53,136.68c35.26-5.5,70.14-8.64,105.55-1.38-.37,1.69-.62,3.23-1,4.73-7.94,28.54-16,57.07-23.76,85.66-1,3.65-2.54,4.73-6.25,4.75q-25.87.13-51.75.89c-4.07.12-5.68-.76-6.46-5.12-5.14-28.9-10.65-57.73-16-86.59C367.63,138.77,367.63,137.89,367.53,136.68Z"/><path d="M197.67,179a17.81,17.81,0,0,1,2.64,3c7.47,13.51,14.79,27.12,22.34,40.59,4.35,7.75,9.17,15.23,13.57,22.95,3.18,5.6,6.23,11.29,8.83,17.17.5,1.13-1,3.79-2.25,4.93-7.38,6.54-15.28,12.52-22.41,19.32-5.35,5.1-9.92,11.06-14.61,16.82-2.85,3.5-6.33,4.05-9.85,1.18-8.51-6.94-17.1-13.78-25.6-20.74-8.1-6.64-16.06-13.46-24.2-20.05-3.65-3-7.52-5.66-11.44-8.26-2.56-1.69-3-3.35-1.51-6.11,9-16.9,18.19-33.77,31.73-47.63,3.7-3.78,8.27-6.73,12.55-9.9,5.29-3.93,10.68-7.74,16.09-11.51A23.56,23.56,0,0,1,197.67,179Z"/><path d="M113.42,532.74l93-68,31.42,29.81c0,.1-.58,1.25-1.23,2.33q-28.93,47.87-57.9,95.71c-3.58,5.93-6.51,6.24-11,1.23l-50.82-57C115.86,535.61,114.83,534.38,113.42,532.74Z"/><path d="M586.1,296.26c5.64-12.85,11.08-25.26,16.53-37.66q10.65-24.27,21.31-48.52c2.22-5,3.43-5.66,8.53-2.45,9.69,6.11,19.55,12.08,28.56,19.11,11.66,9.08,22.54,19.15,33.78,28.76,2.05,1.76,3.08,3.34.7,5.76q-32.06,32.48-64,65a9.13,9.13,0,0,1-1.2.75C616,316.81,603.92,302.88,586.1,296.26Z"/><path d="M345.88,618.72c6.87-21.26,13.51-41.83,20.16-62.39,3.1-9.58,6.29-19.13,9.28-28.75.85-2.73,2-3.83,5.13-3.88,9.32-.17,18.63-.94,28-1.3,4.95-.19,9.91,0,15.58,0,1.37,36.61,2.74,73.33,4.13,110.41Z"/></svg>