<svg id="Layer_1" data-name="Layer 1" xmlns="http://www.w3.org/2000/svg" viewBox="0 0 957.34 744.43"><path d="M174.93,642.29C184,630.18,193,618,202.1,606q43.1-57,86.25-114a54.61,54.61,0,0,0,3.45-5.21q16.56-28.39,33.06-56.83a11,11,0,0,0,1.54-4l-3,2.67-.51-.39,3-3.95c-6.07,2.13-11.86,4.48-17.83,6.19-12.81,3.67-25.58,7.65-38.6,10.36-21.36,4.44-43,7.31-64.31,12.11-16.37,3.7-32.3,9.29-48.4,14.14-8.86,2.67-17.68,5.48-26.47,8.37-12.88,4.25-25.71,8.64-38.57,12.95-1.14.39-2.32.68-3.48,1l-.45-1.05C123.26,467.94,159,447.81,194.31,427s70.33-42.51,106.22-64.26c-14.57-9.24-28.12-17.51-41.31-26.3-10.56-7-20.64-14.78-31-22.1-15.39-10.86-27.17-25.21-39-39.6-4.08-5-9.41-8.91-14.06-13.43-2.71-2.65-5.21-5.52-7.8-8.29l.7-1.11c13.06,0,26.14-.46,39.18.17A102.42,102.42,0,0,1,230.39,256c9.77,2.83,19.15,7,28.77,10.36,7.62,2.67,15.31,5.14,23,7.49,5.65,1.72,11.34,3.38,17.11,4.59,9.95,2.07,20,3.89,30,5.58q15.81,2.65,31.69,4.84c4.68.63,9.58,2.49,14.57-1.46-1.92-4.79-3.94-9.86-6-14.92-.61-1.49-1.35-2.93-2-4.38-5.73-11.94-11.42-23.9-17.19-35.81-5.87-12.1-12-24.08-17.67-36.26-3.35-7.18-6-14.69-9.13-22-2.86-6.54-6.06-12.93-9-19.41Q307.7,139.84,301,125l1.11-.72a17,17,0,0,1,2.19,1.66C346,167.7,392,204.49,437,242.45c4.66,3.94,5.79,3.66,7.89-1.92q40.47-107.17,80.92-214.37c.55-1.44,1.2-2.84,2-4.67L506.51,223.34,705.6,136.09c-1.2,2.11-1.81,3.29-2.51,4.42q-31.7,51.5-63.42,103c-2.6,4.22-1.42,6.47,3.61,6.64q60.87,2.09,121.75,4.12l76.33,2.56c.87,0,1.73.14,3.53.29-6.43,2.39-11.92,4.58-17.51,6.48-7.84,2.67-15.75,5.14-23.64,7.65-9.42,3-18.86,5.92-28.28,8.89-8.3,2.62-16.56,5.37-24.9,7.85-14.12,4.19-28.31,8.12-42.42,12.32C692.4,305,676.72,309.88,661,314.62a34.25,34.25,0,0,1-5.19.78l.76,1.44c-2.71,1.28-5.28,2.53-7.89,3.71s-5.59,2.23-8.22,3.66c-2.78,1.52-6.36,2.82-5.81,7,.51,3.83,4,4,6.88,4.59,8.51,1.89,17.06,3.6,25.55,5.54,11.85,2.7,23.64,5.68,35.51,8.29,7.63,1.68,15.41,2.71,23,4.37,6.91,1.49,13.71,3.5,20.58,5.15,6,1.44,12,2.62,18,4.06,10.22,2.47,20.41,5.07,30.62,7.61l23.27,5.75c-1.93.94-3.21,1.6-4.52,2.18Q738.88,411.3,664.1,443.8c-3.44,1.49-6.14,3.76-6.72,7a15.17,15.17,0,0,0,1.7,9c6,11.53,12.53,22.83,18.81,34.23,4.41,8,8.65,16.05,13.15,24,3.32,5.85,7.05,11.47,10.39,17.32,4.31,7.54,8.31,15.25,12.65,22.78,1.95,3.37,4.42,6.45,6.61,9.69,5.31,7.87,10.39,15.9,15.94,23.6,4.44,6.15,9.42,11.9,14.19,17.81,4.21,5.22,8.4,10.46,12.74,15.58,4.93,5.83,10,11.53,15,17.3q2,2.34,4,4.7l-.75.76c-5.76-3.23-11.52-6.43-17.26-9.67-25.8-14.53-51.76-28.78-77.29-43.76-8.6-5-16.16-11.91-24.12-18-8.92-6.86-17.78-13.81-26.63-20.77-11.19-8.8-22.3-17.7-33.56-26.41-1.35-1-3.41-1.16-5-1.67-3.3,8.09-2.65,15.26,0,23,13.38,39.36,26.23,78.91,39.26,118.39.24.71.45,1.43.9,2.9-41.3-37.85-79-78.1-115.65-119.35l-1,.32c1.55,8.06,3.17,16.1,4.61,24.18.84,4.7,1.22,9.48,2.1,14.16,1,5.15,2.46,10.2,3.37,15.35,2.11,11.88,3.87,23.82,6.05,35.69,1.09,5.91,3,11.66,4.17,17.57,1.43,7.57,2.35,15.23,3.64,22.83.58,3.39,1.69,6.69,2.29,10.08.82,4.63,1.38,9.31,2.17,14.8-35.16-45.74-69.66-91.12-104.46-136.27l-1.38.53q-25.57,73.95-51.16,147.89l-.77-.08c-.57-6.25-1.19-12.5-1.72-18.75-2.69-31.47-5.06-63-8.14-94.4-1.87-19.08-5.06-38-7.2-57.08A173.1,173.1,0,0,0,366.71,511c-.22-.6-.48-1.18-.85-2.08-1.08.73-2,1.3-2.91,2C331.76,535,300.87,559.47,269.28,583,242,603.41,214,622.8,186,642.26c-2.64,1.84-7.08,1.1-10.68,1.56Z"/></svg>