<svg id="Layer_1" data-name="Layer 1" xmlns="http://www.w3.org/2000/svg" viewBox="0 0 909.69 668"><path d="M568.42,572.92c0-9.46.1-17.76,0-26.06-.12-7.64-.64-15.28-.66-22.92,0-6.28.34-12.57.83-18.83a3.91,3.91,0,0,1,2.78-2.56c4.5-.29,9,0,13.56-.17,13.35-.59,26.57-1.93,39.59-5.42,17.93-4.79,36.14-8.53,54-13.63A48.18,48.18,0,0,0,696,473.62c7.38-6.34,15-13.16,20-21.29,10.15-16.34,18.86-33.59,27.73-50.69,5.59-10.8,10.89-21.81,15.39-33.09,4.66-11.67,9.47-23.55,11.82-35.79,2.07-10.77,1.09-22.18,1-33.3a121.55,121.55,0,0,0-1.81-20.8c-1.45-7.76-2.85-15.89-6.28-22.86-7.56-15.31-15.57-30.54-24.94-44.78a83.69,83.69,0,0,0-32.24-29.09c-14.69-7.39-29.49-14.59-44.45-21.42-5.39-2.46-11.4-3.58-17.12-5.32-7.76-2.36-15.37-5.61-23.3-6.88-9.1-1.46-18.48-1.21-27.74-1.66-11.78-.58-23.57-1.06-35.34-1.8a4.3,4.3,0,0,1-3-2.76c-1.8-16.18-3.33-32.38-5-48.57-.36-3.42.93-4.9,4.27-5.93,14.22-4.4,28.83-6.81,43.42-9.56,20.63-3.89,41.41-4,62.1-3,25.06,1.2,48.78,7.88,70,22.14,9.38,6.31,19.5,11.53,28.84,17.89a184.79,184.79,0,0,1,49.39,49.2c4.07,6,6.62,13,10,19.43,1.61,3.05,3.84,5.78,5.42,8.85,3.94,7.63,8.11,15.19,11.37,23.12,5.47,13.26,10.86,26.6,15.25,40.23,4.62,14.33,8.72,29,8.66,44.22-.06,17.65.37,35.21-2.81,52.89-3.61,20-8.5,39.21-18.14,57.27-3.54,6.64-4.57,14.58-7.22,21.75-5,13.6-12.68,25.7-21.29,37.35a294.78,294.78,0,0,1-36.53,41.51c-14,13-28.21,26-44.92,35.43-7.09,4-15.45,6.09-23.47,8.08-13.49,3.34-27.07,6.49-40.79,8.62-13.18,2.06-26.6,2.48-39.87,4.07-9.2,1.1-18.27,3.37-27.48,4.36S578.39,572.44,568.42,572.92Z"/><path d="M367.51,574.67c-14.89-.67-29.14-1.49-43.4-1.88-11-.3-22,.67-32.88-.23-11.85-1-23.87-2.4-35.29-5.57-12.75-3.54-24.9-9.27-37.32-14a42.4,42.4,0,0,0-6.65-2.1,67.85,67.85,0,0,1-25.06-10.59c-7.22-4.92-15.62-8.15-22.73-13.2-6.27-4.44-11.51-10.36-17.17-15.66-4-3.73-8.12-7.35-11.85-11.34-12.2-13-20.22-28.77-28.41-44.4-4.84-9.25-11.21-17.92-14.63-27.64-6.92-19.67-12.38-39.87-18.28-59.89a148.82,148.82,0,0,1-3.68-16c-3.47-19.7-3.69-39.38,1.67-58.79,5.13-18.57,9.58-37.43,16.26-55.45,8.56-23.07,19.17-45.46,34.24-65.15a208.73,208.73,0,0,1,37.46-37.85c25-19.46,53.33-31.51,83.71-39.46,8.5-2.23,16.64-6.23,25.24-7.62,22.12-3.58,44.17-8.17,66.77-8,3.77,0,7.55-.56,11.82-.9.26,4.73.45,9.16.74,13.59q1.71,26.83,3.47,53.68c.24,3.73-.83,5.76-5.25,5.75-3.43,0-6.86,1.39-10.3,2.13-18.11,3.91-36.26,7.68-54.33,11.75-10.34,2.34-20.58,5.16-30.86,7.77-11.39,2.9-23.22,4.65-34.08,8.92-31.49,12.37-57,31.67-68,65.46-3.43,10.53-7.31,21.23-8.41,32.11-1,9.88,1.41,20.13,2.46,30.2,1.28,12.36,2.34,24.75,4.17,37,2,13.3,4.68,26.39,12.55,37.93,7.09,10.39,12.95,21.62,20.06,32,9.93,14.5,21.86,27.25,37.31,36.07,16.29,9.3,32.56,18.69,49.34,27.06,15.91,7.93,32.55,14.31,50.58,15.83,14,1.18,27.94,2.44,41.93,3.45,7.16.52,8.49,1,8.65,9.79C367.78,530.84,367.51,552.29,367.51,574.67Z"/></svg>