<svg id="Layer_1" data-name="Layer 1" xmlns="http://www.w3.org/2000/svg" viewBox="0 0 869.77 792"><path d="M222.93,606.69c-32.08,27-64.64,54-96.62,81.62-15.27,13.19-33,22.21-51,33.91,1-3,1.48-4.68,2.05-6.31q34.14-96.31,68.27-192.63c2.27-6.43,1.49-12.69-4-17.11a98.81,98.81,0,0,1-26.17-32.82c-2.69-5.3-6.81-9.84-9.9-15-7.12-11.8-13.85-23.83-21.06-35.57-4.43-7.2-10.34-13.61-14-21.15-4.3-8.9-7-18.58-10.09-28a16.89,16.89,0,0,1-.44-8.41c2.41-11.17,5.6-22,10.76-32.43,6.13-12.41,17-20.68,24.68-31.6,9.38-13.29,18.88-26.52,28.92-39.31,6.72-8.56,14.29-16.47,21.81-24.36,3.52-3.69,4.28-9.07,2.31-14.75-6.52-18.79-12.1-38.11-4.26-57.57a56.53,56.53,0,0,1,16.09-21.79c9.61-7.85,21.25-13.17,31.83-19.89,13.35-8.47,28.3-11,43.61-12.7,7.73-.86,15.45-3.61,23.08-3.28,16.35.71,31,7.16,44.55,16.27,7,4.72,14.14,9.25,20.94,14.26,3.53,2.6,6.12,2,8.45-1.08,5.38-7.08,10.44-14.41,15.93-21.4,12.6-16.07,23.91-33.42,40-46.3,9.51-7.63,20.47-13.6,31.25-19.44,4.32-2.34,9.87-2.85,14.94-3.27,11.74-1,23.85-3.39,35.21-1.56,13.51,2.18,26.74,7.38,39.44,12.79,11.53,4.92,22.17,11.92,33.22,18,9.42,5.15,19.08,9.89,28.24,15.48,10,6.09,20.16,12.4,26.44,22.65,4.45,7.26,7.75,15.25,11.36,23,5.58,12,8,24.9,9.69,37.88a221.25,221.25,0,0,1,1.36,23.32c.18,8.6,1.5,9.16,9.86,9.34,13,.29,26,1.52,39,3a105.76,105.76,0,0,1,21.73,4.61c12.9,4.32,22.53,12.72,29.07,25,3.66,6.85,9.14,12.71,13.12,19.42,8.61,14.5,14,30.38,18.6,46.52q1.71,6,3.1,12.07c2.18,9.59,2.61,19-1.68,28.33a86,86,0,0,0-4.68,14.18,46,46,0,0,1-13.67,22.55,99.22,99.22,0,0,1-23.5,16.15c-2.6,1.32-5.64,1.75-8.25,3.06-3.59,1.8-4.49,4.77-2.12,8.19,2.95,4.25,6.51,8.13,9.07,12.58,7.59,13.19,17.31,25.46,18,41.72.33,8.28,1,16.57,2,24.8,1.92,16.49-4.49,30.38-13,43.69-7.51,11.67-17.11,20.94-29.62,27.22-9.28,4.67-18,10.72-27.6,14.38-5.7,2.17-12.72,1.23-19.13,1-9.79-.28-19.57-1-29.33-1.79-3.84-.33-5.83,1.34-7.25,4.5-3.21,7.14-6,14.54-9.84,21.3a187.6,187.6,0,0,1-13.78,20,128,128,0,0,1-26.39,25.63c-15.82,11.66-33.18,12.39-51.27,8-13.22-3.21-26.36-6.85-39.4-10.74-11.92-3.57-23.87-7.21-35.41-11.82-6.84-2.74-13-7.26-19.28-11.29s-11.92-8.5-18.16-12.29c-1.29-.78-4.54,0-5.83,1.15-9.87,9.11-19,19.13-29.31,27.64-9.44,7.77-19.59,15.12-30.48,20.55-8.81,4.39-19.38,3.16-28.83.32-11.9-3.57-23.35-8.63-35.17-12.5-7.63-2.51-11.77-8.7-16.68-14.09C236.63,622.89,230.05,614.94,222.93,606.69Z"/></svg>