<svg id="Layer_1" data-name="Layer 1" xmlns="http://www.w3.org/2000/svg" viewBox="0 0 729.02 792"><path d="M288.79,672.93c1.22,13,2.44,25.89,3.71,39.22-6.75,0-12.8.09-18.85,0-5.59-.11-11.17-.45-16.76-.65-7.44-.27-14.88-.56-22.32-.7-1.94,0-3.9.73-5.83.64-8.61-.38-17.22-1.09-25.84-1.37-4.17-.14-8.37.7-12.54.57-8-.25-16-1-24-1.31-6.65-.24-13.32.06-20-.17-5.9-.2-11.78-.83-17.67-1.21-2.35-.15-4.71-.14-7.06-.19-3.9-.08-5.06-1.18-5.1-4.91,0-2.73,0-5.47,0-8.2-.48-21.94-.91-43.88-1.51-65.81-.33-12-1-23.93-1.45-35.9-.55-15.46-1.1-30.92-1.48-46.38q-.87-34.75-1.49-69.52-.54-30.88-.75-61.79c-.28-46.93-.69-93.87-.57-140.8,0-22.54,1.17-45.07,1.84-67.61.28-9.37.59-18.75,1-28.11.6-13.35,1.32-26.69,2-40,.32-6.4.53-12.82,1-19.21.88-11.9,2-23.79,2.84-35.7.2-2.84,1.86-3.22,3.93-3.08,6.66.45,13.33.85,20,1.58C167.65,85.1,193.43,88,219.18,91c11,1.31,21.81,3.54,32.78,4.75,10,1.1,20,1.46,30.1,2,3.47.18,4.91,1.34,4.76,5.16-.24,6.31.21,12.65.36,19,0,1.34,0,2.67,0,4.56-10.46-.52-20.56-1-30.65-1.53-5.55-.3-11.1-.68-16.65-1.06-14.27-1-28.53-2-42.8-3-8.13-.54-16.27-1-24.4-1.54-4.16-.3-8.31-.85-13.17-1.37-2.48,20.51-1,41.16-1.84,61.7s-.44,41.2-1.09,61.78c-2.91,91.25-.59,182.52-1.2,273.77-.07,10.83,1,21.66,1.41,32.49q.81,19.86,1.48,39.72c.54,16,.94,32,1.54,48.06.32,8.53,1,17,1.38,25.57.13,3.07,1.77,4.53,4.43,4.87,5,.63,10,1.21,15.1,1.45,14.37.67,28.76,1,43.12,1.76,8.6.44,17.17,1.49,25.76,2,12.22.66,24.45,1,36.68,1.55C287,672.74,287.73,672.84,288.79,672.93Z"/><path d="M551.39,143.28c-11.14-1.74-22.31-3.44-33.46-5.23-8.86-1.43-17.7-3-26.55-4.46-8.7-1.47-17.39-3-26.09-4.46q-13.57-2.28-27.16-4.48c-6.4-1-12.82-1.93-19.2-3-2.72-.48-4.41-1.72-4.29-5.14.29-8.07.19-16.16.07-24.23,0-2.56.73-3.6,3.37-3.41q17.51,1.2,35,2.22c5.3.32,10.6.6,15.91.78,9,.31,17.92.5,26.89.77,8,.23,16.06.51,24.09.75q25.21.77,50.44,1.51c5.81.18,11.6.57,17.4.66,3,0,4.39.87,4.39,4.26q-.13,131.06-.16,262.09c0,15.22-.94,30.44-1.6,45.65-.26,6-.9,12-1.42,18-1.18,13.56-2.41,27.12-3.58,40.68-.35,4.05-.56,8.1-.84,12.15-.6,8.59-1.22,17.18-1.79,25.77-.41,6.14-.75,12.29-1.14,18.43-.54,8.2-1.07,16.4-1.65,24.6-.53,7.34-1.21,14.66-1.65,22-.52,8.51-.79,17-1.26,25.53-.64,11.3-1.39,22.6-2,33.9-.54,9.24-1,18.49-1.55,27.74-.25,4.42-.57,8.84-.75,13.27-.54,13.93-1,27.87-1.63,41.79a3.3,3.3,0,0,1-2,2.32,19.19,19.19,0,0,1-6.15.75c-12.8-.88-25.57-2-38.37-2.88-9.11-.63-18.23-1-27.35-1.53-14-.76-28.07-1.47-42.1-2.27-7.28-.41-14.54-1.15-21.82-1.39-4.17-.14-8.36.59-12.54.62-6.35,0-6.67-.36-6.84-6.67-.26-9.31-.41-18.62-.75-27.92-.11-3.11,1.2-4.29,4.17-4.14,9.11.47,18.22.95,27.34,1.31,10.42.42,20.87.49,31.28,1.15,9.18.59,18.3,2,27.47,2.66a127.8,127.8,0,0,0,16,0c3.71-.19,3.64-3.87,3.91-6.19,1.06-9.16,1.47-18.39,2.4-27.56,1.07-10.52,2.53-21,3.62-31.51.52-5.05.5-10.15.82-15.23.77-12.15,1.53-24.31,2.42-36.46.91-12.39,2-24.78,2.94-37.17,1.23-16.2,2.49-32.4,3.55-48.61.68-10.49,1.06-21,1.51-31.5.54-12.74,1-25.49,1.51-38.23.24-5.91.54-11.83.84-17.74.59-11.71,1.15-23.41,1.8-35.11q.82-15,1.83-30c.95-14.23,2-28.45,2.95-42.69.48-7.52.89-15.05,1-22.59q.72-52.06,1.24-104.15C551.89,147,551.59,145.33,551.39,143.28Z"/></svg>