<svg xmlns="http://www.w3.org/2000/svg" viewBox="0 0 215.46 295.28"><g id="Layer_2" data-name="Layer 2"><g id="Layer_1-2" data-name="Layer 1"><path d="M12.81,137.32a77.57,77.57,0,0,1,1.44-14.26c1.19-6.75,2.35-13.5,3.4-20.27q1.11-7.1,1.88-14.23a24.23,24.23,0,0,0-1.25-11.23c-1.4-3.72-3-7.38-4.59-11s-3.48-7.43-5.14-11.18c-2-4.44-4-8.87-5.65-13.4A46.94,46.94,0,0,1,.08,32a5.54,5.54,0,0,1,2.86-6c3.39-2.15,6.83-4.22,10.28-6.27,2.75-1.63,5.5-3.27,8.33-4.76,4-2.1,8.06-4.07,12.1-6.08,3.47-1.74,6.88-3.62,10.44-5.14a52.77,52.77,0,0,1,9.6-3.2c2.23-.47,4.65-1,7-.09a11.32,11.32,0,0,1,3.94,2.56,32,32,0,0,1,5.46,7.42c3.09,5.41,6.15,10.83,9.25,16.23,1.84,3.21,3.75,6.37,5.61,9.56.79,1.37,1.48,2.79,2.3,4.14a10.92,10.92,0,0,0,5,4.35c3.13,1.41,6.18,3,9.3,4.45,5.08,2.35,10.26,4.53,15.29,7,5.55,2.71,11,5.64,16.47,8.52,2.84,1.49,5.64,3,8.43,4.62,1.87,1.06,3.59,2.44,5.54,3.32,2.94,1.34,4.93,3.71,7.11,5.89s2.2,4.66,1.42,7.33a14.7,14.7,0,0,1-2.54,4.61A46.26,46.26,0,0,1,147.08,97a82,82,0,0,1-6.76,5.21c-7.44,5.5-16,9-24.13,13.21-8.87,4.53-17.7,9.17-26.76,13.3-16.69,7.6-33.51,14.91-50.32,22.24-2.92,1.28-6.1,1.93-9.06,3.12a18.08,18.08,0,0,1-7.52,1.14c-3.54-.12-5.86-2-7.53-4.92a17.26,17.26,0,0,1-2.19-9.33C12.85,139.74,12.81,138.53,12.81,137.32Z"/><path d="M198.07,216.13a46.86,46.86,0,0,0-.94-10.73c-.78-4.31-1.74-8.64-1.33-13.1a39.46,39.46,0,0,1,2.2-10.12,11.22,11.22,0,0,1,5.81-6.13c1.61-.81,3.13-.24,4.46.7a8.77,8.77,0,0,1,3.21,4.13,33.91,33.91,0,0,1,2.27,10.35,40.07,40.07,0,0,0,.92,5.49,20.64,20.64,0,0,1,.32,2.21c.19,4,.57,7.93.45,11.87a39,39,0,0,1-1.92,11.46c-1,2.87-1.6,5.88-2.78,8.66a107.38,107.38,0,0,1-5.45,11,119.85,119.85,0,0,1-7.87,12.65c-2.94,4-6,7.87-10.11,10.88-2.26,1.67-4.15,3.82-6.35,5.59a51,51,0,0,1-11.91,6.84c-3.8,1.62-7.43,3.7-11.29,5.15-4.88,1.83-9.66,3.93-14.89,4.82-3.91.67-7.72,2-11.59,2.88-2.49.58-5,1-7.54,1.47-3,.57-6,1.18-9.08,1.7-5.61.94-11.24,1.87-16.94,1-4.48-.66-9.66-4.87-10-9.73A3.93,3.93,0,0,1,89,281.9a10.46,10.46,0,0,1,7.69-3c2.82.07,5.63.31,8.45.45,3.87.19,7.74.44,11.61.53a85.94,85.94,0,0,0,10.28-.12,76.35,76.35,0,0,0,17.85-3.73c4.14-1.44,8.24-3,12.4-4.35a37.08,37.08,0,0,0,9.12-4.11,56.61,56.61,0,0,0,11.21-9.21c1.33-1.48,3-2.66,4.29-4.17q3.22-3.75,6.14-7.78a50.5,50.5,0,0,0,8.37-16.75A42.59,42.59,0,0,0,198.07,216.13Z"/><path d="M173.89,185.46a61.48,61.48,0,0,1-.07,6.79,20.58,20.58,0,0,1-1.43,4.45,99.47,99.47,0,0,1-7.92,17.15C162,218,159.19,222,156.36,226a12.76,12.76,0,0,1-3.47,3c-3.57,2.32-7.15,4.62-10.85,6.69a52.41,52.41,0,0,1-7.62,3.38c-3.78,1.36-7.56,3-11.48,3.6a86.4,86.4,0,0,1-14.75.54c-4.31-.12-8.62-.74-12.91-1.28a55.29,55.29,0,0,1-6-1.28,75.1,75.1,0,0,1-8.6-2.32c-2.62-1-3.84-2.59-2.92-5.2a5.42,5.42,0,0,0,.32-1.32c.27-3.26,3.45-5.05,5.8-5.68,3.09-.84,6.16-.54,9.27-.25,2.53.22,5.09.11,7.62.3A47.37,47.37,0,0,0,113,225.9c1.92-.35,3.82-.84,5.75-1.15,7.86-1.23,14-5.86,20.2-10.32,3.34-2.41,5.57-5.85,7.42-9.54,1.33-2.65,2.94-5.17,4.21-7.84a33,33,0,0,0,2.84-14.92c-.05-4.48-.07-9,1.38-13.31,1.07-3.16,2.62-6.19,5.63-7.95a6.6,6.6,0,0,1,7.55.85c3.24,2.81,4.62,6.39,5.07,10.48.49,4.4.94,8.82,1.41,13.22Z"/><path d="M88.87,178.07l8,.62a24.07,24.07,0,0,0,14.46-3.44,29.88,29.88,0,0,0,6.12-5.29,2.75,2.75,0,0,0,.56-.84c.8-1.74,1.5-3.53,2.38-5.23,1.57-3.06,1.75-6.44,2.37-9.72.1-.51.24-1,.32-1.55.55-3.39,2.86-4.93,6-5.63a7.26,7.26,0,0,1,7.55,4.09c2.78,6.65,3.42,13.4.19,20.11a39.88,39.88,0,0,1-3.84,6.57,30.82,30.82,0,0,1-4.38,4.15,21.64,21.64,0,0,1-2.81,2.27c-2.23,1.39-4.53,2.68-6.8,4-1.33.78-2.62,1.63-4,2.29-3.59,1.72-7.49,2.23-11.38,2.59a31.24,31.24,0,0,1-8.31,0,91.39,91.39,0,0,1-11.64-3.14c-3.64-1.18-5.34-3.66-5.33-7.11,0-1.84.66-3,2.4-3.54a25.8,25.8,0,0,1,4.6-1,27.15,27.15,0,0,1,3.61,0Z"/></g></g></svg>