<svg id="Layer_1" data-name="Layer 1" xmlns="http://www.w3.org/2000/svg" viewBox="0 0 869.77 792"><path d="M550.64,709.44c-4.65,1.08-8.48,2.72-12.24,2.56-2.49-.11-5.57-2.27-7.19-4.42-8.9-11.81-17.52-23.83-26-35.93-2.21-3.16-3.46-7-5.46-10.3-3.46-5.73-6.72-11.5-12.2-15.89-3.12-2.51-4.67-6.88-7.19-10.21-3.38-4.47-9-8.32-10.06-13.21-1.51-7-5.92-3.85-9.07-4.52-13.49-2.83-27-5.35-40.59-8-13.83-2.67-27.69-5.18-41.49-8-16.5-3.35-33-6.87-49.42-10.41-17.49-3.77-34.86-8.23-52.47-11.32-21.78-3.83-41.83-12.32-61.56-21.52a244,244,0,0,1-37.11-21.15c-7.48-5.25-13.2-13.18-19.14-20.38-3.87-4.69-7.79-9.86-9.76-15.49-2.95-8.43-5.48-17.39-5.91-26.23-.85-17.4-.69-34.91.13-52.32.69-14.43,2.93-28.79,4.47-43.19.33-3.1.57-6.21.89-9.32.72-6.95,1.44-13.9,2.2-20.84.93-8.48,2-16.94,2.81-25.43.58-6.08.72-12.19,1.21-18.28.6-7.38.46-15,2.22-22.08,4.8-19.29,7.82-39,16.35-57.39,5.54-11.94,10.31-24.15,19.51-33.81,4.64-4.86,10-9,15.08-13.49.12-.1.3-.14.42-.25,6.21-5.7,12.35-11.47,18.66-17.05a20.81,20.81,0,0,1,6.27-4.07c10.8-4,21.55-8.38,32.62-11.54,10.56-3,21.52-4.6,32.28-7,17.29-3.79,34.79-1.79,52.17-1.75,14.3,0,28.59,1.75,42.89,2.7,10.31.68,20.64,1.17,30.93,2,12.34,1,24.64,1.9,36.39,6.73,5.69,2.34,12.13,2.82,18.19,4.3,5.43,1.33,10.79,2.93,16.21,4.3,10.37,2.61,20.8,5,31.11,7.78,6.41,1.75,12.63,4.21,19,6.22s12.73,3.72,19,5.8c5.34,1.76,10.5,4.12,15.88,5.75,9.81,3,17.54,9.66,26.31,14.46,7.15,3.9,13.54,9.18,20.37,13.7,9.15,6.05,18.6,11.66,27.54,18,9.19,6.53,18.59,13,26.6,20.86,5.56,5.44,8.91,13.13,13.24,19.82.17.26.14.66.3.93,9,14.85,9.28,31.3,8.65,47.86-.35,9.23-1.19,18.43-1.73,27.65-.47,8.18-.65,16.38-1.29,24.54-.42,5.22-1.37,10.4-2.23,15.58-2.2,13.39-4,26.86-6.86,40.12-3,14.34-7.15,28.45-10.57,42.71-2,8.22-3.35,16.59-5.3,24.81-2.13,8.93-4.59,17.78-7,26.65-2.27,8.47-4.39,17-7,25.34-1.52,4.77-4.57,9.07-5.87,13.87a64.79,64.79,0,0,1-9.2,20.69c-5.22,7.39-11.05,14.35-20.32,17.56-4.73,1.63-8.74,5.23-13.3,7.51-8.44,4.21-17.11,8-25.54,12.22-1.92,1-4.08,2.74-4.77,4.63-3.08,8.41-7.95,15.66-12.6,23.24-4.86,7.92-7.45,17.43-10,26.53-3,10.51-4.83,21.35-7.3,32A32.63,32.63,0,0,1,550.64,709.44Z"/></svg>