<svg xmlns="http://www.w3.org/2000/svg" viewBox="0 0 161.05 109.03"><g id="Layer_2" data-name="Layer 2"><g id="Layer_1-2" data-name="Layer 1"><path d="M.07,5.39,12.29,5l15.35-.46L41,4.11C46,4,51.09,3.82,56.14,3.64c4.66-.15,9.31-.36,14-.52,4.2-.14,8.41-.24,12.61-.37,4.77-.15,9.56-.06,14.3-.52,4.56-.45,9.11-.27,13.66-.4s8.9,0,13.3-.51c5-.55,10.06-.18,15.08-.39,4-.16,8-.4,12-.62,1.39-.08,2.78-.19,4.18-.29S157,.28,157,1.69c0,6.4-.27,12.82.1,19.2.29,5,.23,9.92.38,14.87a5.28,5.28,0,0,0,.43,1.28c-.94.18-1.88.43-2.84.52-2.23.21-4.47.3-6.71.49-3.11.26-6.22.57-9.33.83-2.23.19-4.47.32-6.7.53-2.85.26-5.7.59-8.55.86-1.22.12-2.46.17-3.69.25-3.47.23-6.94.4-10.41.7s-7,.76-10.55,1.1c-1.49.14-3,.14-4.49.25-4,.28-8,.63-12,.85-1.53.08-3.07-.18-4.6-.17q-9,.07-18,.22c-3,.05-6.09.13-9.13.23-5.07.16-10.13.43-15.2.51-4.52.08-9,0-13.56-.08-3.56-.07-7.12-.31-10.67-.43-3.15-.11-6.3-.17-9.45-.22-.58,0-.94-.12-1-.76C1,42.35.91,42,.9,41.61.82,37.52.76,33.44.67,29.35c-.07-3.51.07-7-.3-10.52C-.1,14.59.11,10.37,0,6.14,0,6,0,5.78.07,5.39Z"/><path d="M4.78,109a21,21,0,0,1-.26-2.14c0-4.13.06-8.26,0-12.38C4.37,87.93,4.14,81.37,4,74.64H6.18c7.28,0,14.58.29,21.84-.09,6-.31,12.07.1,18-.46,5.47-.52,10.9-.11,16.35-.34,4.53-.19,9.06-.29,13.6-.49a21.72,21.72,0,0,0,3-.55l0,.33-1.41.07v.23c2-.09,4-.19,6-.26,1.65,0,3.31,0,5-.08,3.23,0,6.45-.13,9.68-.16,2.83,0,5.65,0,8.48,0l29.58.41c2.24,0,4.47,0,6.71,0,5.41-.13,10.83-.3,16.24-.42a6.57,6.57,0,0,1,1.64.35,5.51,5.51,0,0,0-.41,1.29,64.81,64.81,0,0,0,0,7c.73,7.77.26,15.56.41,23.33,0,1.43-.25,1.65-1.69,1.75-3.68.27-7.35.61-11,.88-2.16.16-4.33.23-6.49.33-2.82.13-5.63.23-8.44.37-3.89.21-7.77.52-11.65.66q-6.28.22-12.57.22Q67,109,24.83,109h-20Z"/></g></g></svg>