<svg id="Layer_1" data-name="Layer 1" xmlns="http://www.w3.org/2000/svg" viewBox="0 0 798.8 981.81"><path d="M372.72,767.69c-3.6-5.42,1-9,2.44-12.7,6.36-16.41,13.4-32.56,20.3-48.76,4.89-11.44,10-22.81,14.93-34.22,2.2-5.07,1.37-6.19-3.84-7.23-6.86-1.36-13.65-3.09-20.41-4.91-7.38-2-14.82-3.88-22-6.53-10.84-4-21.62-8.26-32.12-13.1-13.17-6.06-26-12.81-39-19.28-18.73-9.33-36.91-19.56-53.44-32.52-6.73-5.27-14.13-9.8-20.32-15.64-10.08-9.51-19.63-19.62-29-29.84-11.82-12.89-19.88-28.36-28.74-43.27-4.82-8.09-11.21-15.49-14.66-24.09-5.56-13.82-9.43-28.34-13.7-42.65a208.55,208.55,0,0,1-6.32-25c-3.34-19.87-5.33-39.87-2.65-60,1.73-13,2.91-26.11,5.14-39s5.26-25.56,8.28-38.26c3.34-14,6.59-28,10.73-41.81,5.19-17.31,11.33-34.35,16.91-51.55,4.11-12.7,8-25.48,11.94-38.23,1-3.29,2.1-6.56,2.95-9.89,1.19-4.66,3.2-6,7.67-4.36q20.26,7.29,40.48,14.73c9.56,3.55,19,7.42,28.6,10.86,3.83,1.37,4.28,3.23,2.74,6.72-7,15.83-14,31.65-20.59,47.63-3.66,8.81-6.91,17.82-9.87,26.9-7.52,23.15-10.67,47.19-14.19,71.17-4.73,32.23-3.15,64.61-2.48,96.94.18,8.78,3.21,17.62,5.71,26.21,3.38,11.61,6.7,23.37,11.6,34.37,3.6,8.08,9.4,15.26,14.76,22.45,7.13,9.57,14.37,19.12,22.37,28,3.9,4.29,9.62,6.92,14.56,10.25,1,.64,2.12,1,3.13,1.54,12.58,7.18,25.12,14.44,37.74,21.57,13.48,7.62,26.69,15.83,40.64,22.48s28.22,11.94,42.66,17c5.58,2,12,1.67,18,2.37.82.1,1.67,0,2.49.08,3.5.47,8.67,2.66,10.17,1.16a47.32,47.32,0,0,0,9.37-14.63c4.4-10.13,8.17-20.55,11.89-31,4.43-12.37,8.53-24.86,13.11-38.29,2.68,1.11,5.71,1.64,7.78,3.33,9.6,7.83,19,15.9,28.33,24,10.07,8.77,19.89,17.83,30,26.54,11.87,10.2,23.9,20.2,35.95,30.2,8.89,7.37,17.91,14.58,26.87,21.87,10.76,8.74,21.48,17.52,32.27,26.23,7.24,5.85,14.6,11.57,21.85,17.42,6.43,5.18,12.65,10.64,19.19,15.68,9.92,7.62,20.1,14.9,30,22.52,2.34,1.81,4.07,4.42,6.08,6.66-.13.64-.25,1.27-.37,1.91-55.94,11.69-111.94,23.11-167.8,35.17S429.46,759.7,372.72,767.69Z"/></svg>