<svg xmlns="http://www.w3.org/2000/svg" viewBox="0 0 201.65 189.72"><g id="Layer_2" data-name="Layer 2"><g id="Layer_1-2" data-name="Layer 1"><path d="M201.65,52.36c-1.54,4.17-3,8-4.39,11.88q-2.4,6.56-4.79,13.1c-.07.21-.24.4-.26.61-.19,2.32-1.87,2.43-3.64,2.62-4.11.43-8.21,1-12.31,1.48l-9.95,1.21c-1.27.16-2.54.27-3.8.48a1.32,1.32,0,0,0-.78.64Q154.35,98.56,147,112.75c-.18.35-.35,1-.19,1.18a2.06,2.06,0,0,0,1.39.47c5.6-.56,11.2-1.16,16.81-1.76,4.59-.5,9.18-1,13.77-1.54.34,0,.68,0,1.17,0-.6,2-1.18,3.93-1.78,5.87-1.72,5.53-3.44,11.07-5.21,16.59-.15.49-.56,1.16-1,1.27-5.8,1.47-11.59,3-17.46,4.23-6.21,1.26-12.48,2.23-18.74,3.19a3.42,3.42,0,0,0-3,2.43c-4.65,11.46-9.42,22.86-14,34.33-.73,1.81-2.11,1.55-3.38,1.7-6.42.73-12.85,1.37-19.28,2-1.41.15-2.82.25-4.48.4,4.16-11.83,8.26-23.5,12.34-35.13-2.24,0-4.26-.07-6.26,0-3.28.14-6.54.38-9.81.6s-6.46.44-9.68.72a1.37,1.37,0,0,0-1,.71c-2.32,5.42-4.63,10.85-6.89,16.29-2.51,6-5,12.07-7.46,18.1a4.66,4.66,0,0,0-.27.74c-.31,1.22-1,1.64-2.34,1.71-3.71.21-7.41.67-11.11,1l-8.09.73-11.68,1.06c-.14,0-.29,0-.52,0,.11-.42.17-.78.29-1.12,3.16-8.89,6.3-17.79,9.49-26.67,1-2.64,2.15-5.19,3-7.84.5-1.48,0-2.65-1.89-2.47-3.56.33-7.11.73-10.66,1.07s-7.12.62-10.68,1-7.33.73-11,1.07c-2.46.23-4.93.43-7.5.65.54-2.07,1.05-4,1.56-6,1.43-5.54,2.88-11.08,4.26-16.64a1.42,1.42,0,0,1,1.43-1.24l17.68-2,16.8-1.86q5.54-.63,11.07-1.36a1.24,1.24,0,0,0,.9-.57q6.28-15,12.5-30.12a1.23,1.23,0,0,0,0-.34c-1.91-1-3.91-.38-5.85-.26-3.19.19-6.37.52-9.56.79s-6.59.57-9.89.84-6.3.49-9.45.75-6.44.55-9.67.81c-2.5.21-5,.39-7.61.59.38-1.61.71-3.07,1.08-4.51.21-.84.52-1.64.74-2.48.41-1.59.79-3.2,1.19-4.8.35-1.38.72-2.76,1.08-4.14A42.48,42.48,0,0,0,20,76.21c.18-1.8,1.26-1.65,2.33-1.74,5.06-.42,10.12-.77,15.18-1.19s10-.75,14.95-1.32C58,71.32,63.48,70.45,69,69.7c2.41-.33,4.83-.65,7.25-.93.89-.1,1.23-.62,1.54-1.37q6.18-15,12.41-30,4.08-9.9,8.15-19.82a2.15,2.15,0,0,1,1.81-1.49c8.64-1.47,17.28-3,25.91-4.49.41-.07.82-.08,1.41-.14-.32,1-.61,2-.94,3l-15.69,47a5,5,0,0,0-.28,1.08c-.24,1.94.11,2.37,2,2.2,5.65-.49,11.3-1,17-1.55,3-.29,6-.69,9.08-.9a1.91,1.91,0,0,0,1.82-1.36c2.1-4.88,4.21-9.75,6.29-14.64q8.47-19.95,17-39.9A1.84,1.84,0,0,1,165,5.46c5.9-1.07,11.81-2.09,17.71-3.12,4.47-.77,8.93-1.55,13.4-2.31a8.69,8.69,0,0,1,1.27,0c-.79,1.75-1.53,3.42-2.28,5.08q-10.2,22.53-20.41,45.05a5,5,0,0,0-.35,1.64,1.34,1.34,0,0,0,1.43,1.59c5.54-.11,11.07-.21,16.6-.41C195.36,52.86,198.39,52.58,201.65,52.36ZM99.39,88.23C95,98.91,90.58,109.49,86.13,120.05c-.55,1.31-.22,1.76,1.2,1.65,2.67-.18,5.34-.26,8-.48s5.37-.52,8-.86c3.34-.42,6.67-.94,10-1.39a3.48,3.48,0,0,0,3.07-2.1c3.67-7.84,7.49-15.62,11.21-23.43.82-1.72,1.51-3.51,2.18-5.29.4-1.06.23-1.24-.92-1.26h-2.6c-4.15,0-8.3-.29-12.43-.07C109.08,87.07,104.27,87.73,99.39,88.23Z"/></g></g></svg>