<svg id="Layer_1" data-name="Layer 1" xmlns="http://www.w3.org/2000/svg" viewBox="0 0 830.39 643"><path d="M109.48,529.33c.59-13.78,1.18-27.48,1.77-41.18,0-.67,0-1.33,0-2q.58-38.67,1.18-77.35c.11-6.28.81-12.57.78-18.85-.23-60.78-.77-121.56-.74-182.34,0-24.19,1.27-48.37,1.91-72.56.35-13.35.67-26.7.85-40.05.14-10.12,0-20.24,0-30.92,6.86,0,12.31-.36,17.7.08,7,.58,14,2.23,21.05,2.63,18,1,36,1.43,54,2.39,26.28,1.39,52.63-.18,78.9,4,14.63,2.3,29.88.79,44.85.72,23.14-.11,46.12.41,69,5.16,14.24,3,29.11,2.78,43.51,5.13s28.57,3.85,43.11,3.48c21.44-.54,42.89-.78,64.33-.57,16.41.17,32.8,1.39,49.21,1.89,25.58.76,51.16,1.22,76.73,2,17.42.52,34.83,1.32,52.25,2,3.12.12,4.78,1.27,4.58,4.83-1.1,18.81-2,37.62-3,56.44-.38,7.26-.81,14.51-1,21.78-.45,15.42-.74,30.84-1.14,46.26-.27,10.61-.48,21.21-1,31.81-.41,8.45-1.48,16.87-1.79,25.32-.33,8.72,0,17.47-.11,26.2q-.51,34.63-1.17,69.26c-.25,13.61-.44,27.22-.87,40.81q-.88,27.54-2.09,55.07c-.48,10.9-1.32,21.78-1.83,32.67-.76,16.23-1.45,32.46-2,48.7-.11,3.57-2.22,4.25-4.78,4-6.74-.66-13.44-1.9-20.19-2.46-11.72-1-23.49-1.55-35.23-2.39-13.75-1-27.55-1.58-41.23-3.19-21-2.47-42.12-2.28-63.21-2.91-23.23-.7-46.42-2.91-69.65-4-13.09-.59-26.22-.1-39.34-.22-22.64-.21-45.29-.54-67.94-.77-7.53-.07-15.07.14-22.6,0-10.1-.21-20.18-.74-30.27-1-31.15-.76-62.31-1.32-93.46-2.19-22.74-.63-45.48-1.44-68.2-2.56-7.77-.38-15.47-2.17-23.23-2.92C129.52,530.58,119.75,530.06,109.48,529.33Zm86.4-401.25-1.75-.3c-1.31,4.78-3.49,9.5-3.77,14.33-.8,14-1.09,28-1.12,41.94q-.17,79,0,157.94c0,20.42-.14,40.84,0,61.26.16,19.59.62,39.18,1,58.77,0,1.45.72,2.89.72,4.33,0,3.21,2,3.81,4.56,3.91,8.26.33,16.51.85,24.77,1,39.07.62,78.13,1,117.19,1.75,19.1.39,38.18,1.65,57.27,2.24,10.6.34,21.23-.26,31.81.22,27.83,1.25,55.65,2.85,83.47,4.34,12.27.66,24.69.43,36.77,2.36,16.57,2.64,33.12,2.11,49.73,2.55,15.51.41,31,1.67,46.49,2.45a6.06,6.06,0,0,0,3-1.14c2.81-1.65,2-4.21,2-6.9.34-16.11,1-32.22,1.64-48.32.06-1.47.34-2.93.46-4.41.82-9.82,1.94-19.63,2.33-29.47.28-6.76-.84-13.58-.66-20.35.31-11.37,1.3-22.73,1.76-34.1.82-20.36,1.41-40.72,2.18-61.08.19-5,.77-9.9,1.08-14.85.61-9.47,1.29-18.93,1.7-28.41.47-10.82.62-21.67,1-32.5.21-5.59.87-11.17,1-16.76.15-11.27,0-22.55,0-34.27-3.33-.32-6.06-.71-8.81-.82-9.61-.41-19.23-.7-28.84-1.07-14.71-.56-29.42-1.25-44.13-1.7-7.94-.24-15.92.43-23.82-.2-35.84-2.83-71.63-6.18-107.48-8.92-15.84-1.22-31.76-1.42-47.64-2.1-9.66-.41-19.33-.75-29-1.3-14.5-.82-29-1.84-43.5-2.68-11.73-.67-23.5-.91-35.21-1.9-11.41-1-22.73-3.35-34.15-3.89-19.25-.91-38.55-.85-57.82-1.24A30.26,30.26,0,0,1,195.88,128.08Z"/></svg>