<svg id="Layer_1" data-name="Layer 1" xmlns="http://www.w3.org/2000/svg" viewBox="0 0 869.77 792"><path d="M116.79,499.42c-10.63-1.75-22.75-3.86-34.91-5.69-7.77-1.17-13.33-6.23-19.1-10.67-5.41-4.16-10-9.33-15.17-13.85-1.94-1.7-4.91-2.4-6.45-4.33-4.31-5.39-9.43-10.68-11.83-16.92-4.32-11.27-8-23-9.79-34.92a48.78,48.78,0,0,1,2.61-24.31A32.63,32.63,0,0,1,40,370.83c4.66-2,8.89-4.95,13.32-7.47,1.32-.75,2.65-1.48,5.06-2.82-2.76-4.63-5.87-9.35-8.47-14.34-3.61-6.93-7.39-13.85-10.12-21.14-4.55-12.2-8.45-24.65-12.42-37.06a41.1,41.1,0,0,1,17.48-47.66A212,212,0,0,1,70,227c5-2.18,10.87-2.3,16.31-3.51,10.45-2.32,20.89-3.24,31.39-.34a29,29,0,0,1,4.8,1.31c8.8,4.24,18.27,5.66,27.84,6.41,1.22.1,3.25-1.65,3.8-3,3-7.32,5.5-14.82,8.33-22.19,3.31-8.62,6.4-17.34,10.27-25.7a155.47,155.47,0,0,1,12.1-22c4.31-6.35,9.64-12.08,14.94-17.67a91.25,91.25,0,0,1,35.66-23.38c10.13-3.62,21.07-3.77,31.82-2.65,7.68.79,15.35,1.74,23,3,13.86,2.24,28.06,3.06,41,9.39,6.44,3.15,13,6.15,19.23,9.66,3,1.7,4.92,2,6.94-1.18,3.5-5.57,7-11.18,11-16.4,6.55-8.61,12.47-18.11,20.56-25,7.22-6.14,16.9-9.52,25.73-13.61a141.6,141.6,0,0,1,47.17-13c13-1.18,25.74-.8,38.2,2.35a159.51,159.51,0,0,1,26.46,9.77c11.09,5,22.2,10.23,32.54,16.6,6.62,4.08,12.05,10.2,17.71,15.72A136.28,136.28,0,0,1,598,138.28c1.78,2.93,7.5,3.95,11.63,4.88,13.13,3,26.5,4.9,39.48,8.37,6.94,1.85,13,6.6,19.89,9a146.34,146.34,0,0,1,36.44,19.15c8.34,5.92,15.12,12.89,17.72,23.22,3.55,14.19,7.38,28.3,11,42.48a55.09,55.09,0,0,1,.85,7.41c.77,6.86,2.62,12.78,9.92,15.83,9.5,4,18.69,8.67,28.1,12.84,7.86,3.48,16.09,6.19,23.71,10.1,8.79,4.51,16.73,10.07,21,19.86,3,6.76,7.46,12.82,11,19.33,7,12.78,8,26.63,7.77,40.93-.34,19.57-6.65,37.49-13.63,55.3a44.56,44.56,0,0,1-13.26,18.4c-2.21,1.84-3,6.24-3.14,9.53-.28,5.51,1.13,11.14.62,16.6-1,10.38-2.48,20.74-4.36,31-1.93,10.51-3.91,21.09-7,31.29-5.06,16.54-16.84,27.1-32.79,33.08a26.2,26.2,0,0,1-9.24,1.6q-17.7-.15-35.41-.92c-3.32-.14-4.92,1.15-6.68,3.82-5.15,7.77-10.76,15.25-16.19,22.83q-5.42,7.57-10.86,15.12a4,4,0,0,1-.35.36c-12.79,12.07-23.76,26.16-43.27,29.14-9.68,1.47-19.2,3.56-29.05,3.78-3.71.09-7.37,1.61-11.08,1.8-15.32.79-29.5-4.08-43.46-9.49-5.31-2.06-10.16-5.29-15.31-7.78-1.48-.71-3.31-.72-5-1-.05,1.35,0,2.69-.17,4-.26,2.79-.65,5.57-.89,8.36-1,12,2.17,23.21,7.46,33.7,6,11.83,15.67,20.63,26.34,28.13,8.39,5.9,17.42,10.87,26.11,16.36,1,.64,1.62,1.9,2.42,2.88l-.72,1.59c-8.34-.89-16.7-2.64-25-2.46-9.56.21-17.63-3.55-26-6.87-10.47-4.15-21.14-7.89-31.32-12.67-5.22-2.46-9.58-6.76-14.26-10.32-7.34-5.59-14.81-11-21.89-17-5.09-4.24-9.34-9.51-14.53-13.61-3.28-2.61-7.46-5.12-11.47-5.57-9.38-1.06-18.94-.46-28.37-1.26-17.42-1.47-34.89-2.85-52.14-5.57-6.61-1-12.91-5.21-18.9-8.72-10.53-6.18-21-12.59-31-19.56S302.88,603,293.38,595.25c-8.54-7-16.47-14.74-24.81-22-3.86-3.35-8.18-1.71-12.26-.26-5,1.77-9.79,4.32-14.9,5.48a87,87,0,0,1-17.71,2,189.69,189.69,0,0,1-19.92-1.13,40,40,0,0,1-19-6.83c-7.17-4.74-15.74-7.47-22.53-12.61-8.85-6.69-16.72-14.72-24.66-22.53-4.28-4.2-8.76-8.64-11.49-13.84C122.35,516.31,120.13,508.28,116.79,499.42Z"/></svg>