<svg id="Layer_1" data-name="Layer 1" xmlns="http://www.w3.org/2000/svg" viewBox="0 0 694.22 744.43"><path d="M570.23,397.06c-9.72,0-20-.15-30.25,0-21.43.38-42.86,1-64.29,1.41-18.27.38-36.53.75-54.8,1-8,.11-17.74,5.48-18.27,16.65-1.06,22.23-2.39,44.46-2.92,66.71-.53,22.59-.23,45.2-.29,67.8,0,5.49,0,11,0,16.47s-.91,6.44-6.71,6.52c-4.83.06-9.65.09-14.47.21-17.89.47-35.77.93-53.65,1.51-4.13.13-4.82-3.09-4.76-5.57.36-15,1.45-30,1.63-45.08.18-13.91-.41-27.83-.79-41.73-.18-6.78-.81-13.55-1-20.33-.44-19.9-.7-39.81-1.13-59.71a58.5,58.5,0,0,0-1.12-10.82,4.6,4.6,0,0,0-3.39-2.8c-14.44,0-28.88.27-43.32.48-2.16,0-4.31.14-6.46.19-18.07.4-36.14,1.05-54.21,1.11-14.58,0-29.16-.57-43.74-1a53.18,53.18,0,0,1-7-1.14,10.23,10.23,0,0,1-.39-1.89c-.37-18.4-.66-36.81-1.11-55.22-.13-5.39-.73-10.76-1.11-16.17H327.26q9.25-87.42,18.62-175.86h63.75c0,2.12,0,4.06,0,6q-1,67.6-2.14,135.21c-.11,6.48-1.21,13-1,19.42.23,7.72,1.37,15.42,2.05,23.14.3,3.47,2.89,3.08,5.15,3.17q31.9,1.29,63.82,2.53,46.37,1.83,92.74,3.7c1.46.06,2.92.23,4,.32C572.93,354.51,571.6,375.44,570.23,397.06Z"/></svg>