<svg id="Layer_1" data-name="Layer 1" xmlns="http://www.w3.org/2000/svg" viewBox="0 0 893.7 1080.95"><path d="M321.63,989.17c3.53-4.13,6.19-7.3,8.91-10.42,6.79-7.83,13.88-15.41,20.34-23.5,8.82-11.06,11.76-24.31,12.19-38.08.39-12.37.08-24.76.08-38.23-5.37.91-9.67,1.77-14,2.33-5.78.75-11.61,1.14-17.39,1.89-8.77,1.13-17.51,2.46-26.28,3.66-14.57,2-29.13,4.15-43.74,5.89-12.66,1.51-25.38,2.49-38.07,3.82-3.91.42-4.87-1.14-5-4.92-.65-15.38-1.66-30.75-2.56-46.12-.57-9.86-1.05-19.72-1.78-29.56-1.06-14.44-2.44-28.85-3.42-43.29-.8-11.77-1.25-23.57-1.79-35.35-.92-19.75-1.69-39.5-2.7-59.25-.71-13.89-1.84-27.76-2.57-41.66-.73-14.11-1-28.25-1.85-42.35-.88-14.3-2.32-28.57-3.42-42.87-.68-9-1.51-17.94-1.72-26.92-.4-17.37-.54-34.75-.57-52.12,0-33.08.63-66.16-.07-99.22-.43-20.29-2.88-40.54-4.4-60.81-1-13.22-2.59-26.43-2.81-39.67-.63-38.4-.22-76.83-1.22-115.23-.45-17.32,2.46-34.14,4.11-51.17.37-3.76.74-7.51,1.16-11.79,16.1-.49,32-1.2,47.9-1.4,23.7-.29,47.42-.16,71.12-.33,7.6-.06,15.2-.76,22.8-.75,20.61,0,41.23.54,61.84.42,55.43-.32,110.85-1,166.28-1.29,24-.12,48,.39,72,.49,7.74,0,15.49-.42,23.24-.49,8.66-.09,9.34.25,11,8.63,1.55,7.92,2.38,16,3.62,24,1.2,7.77,2.59,15.5,3.75,23.27.66,4.43,1,8.9,1.49,13.36,1,9.64,1.83,19.29,2.9,28.92,1,8.6,2.18,17.17,3.25,25.76q2,15.48,3.84,31c.51,4.17,1.14,8.33,1.39,12.51.7,11.32,1.39,22.65,1.77,34,1,28.58,1.8,57.17,2.67,85.76.31,10.07.52,20.14.89,30.2.65,17.46,1.57,34.92,2,52.39s.46,34.7.6,52.06c.31,38.61.68,77.22.81,115.84.05,14.15-.84,28.31-.73,42.46.1,11.36,1,22.71,1.64,34.07.27,5.07.7,10.13.9,15.21.36,9.49.45,19,.93,28.48.75,14.95,1.69,29.89,2.62,44.83.82,13.24,1.82,26.47,2.59,39.72.7,11.94,1.19,23.89,1.75,35.84,0,1-.08,2-.15,3.48-5.58.5-11.05,1.15-16.54,1.47-13,.76-26,1.95-39,1.85-11-.08-22-2.19-33.09-2.6-20.83-.78-41.67-1.28-62.51-1.34-20.45-.07-40.92.54-61.37.87-7.57.12-15.16.11-22.71.52-8.88.48-17.9.61-26.53,2.41-3.78.79-7.35,4.89-10,8.28-7.05,9-13.32,18.51-20.33,27.49-16.72,21.47-33.89,42.6-56.94,57.75-10,6.58-20.6,12.3-31,18.27C326.2,988.44,324.23,988.51,321.63,989.17Z"/></svg>