<svg id="Layer_1" data-name="Layer 1" xmlns="http://www.w3.org/2000/svg" viewBox="0 0 1069.56 792"><path d="M819,739c-11.24-1.11-22.58-1.6-33.68-3.52a200.73,200.73,0,0,1-30.1-7.8,305.34,305.34,0,0,1-29.4-12.12c-9.63-4.41-19.21-9.05-28.37-14.34-5.6-3.23-10.3-8-15.56-11.83-4-3-8.46-5.39-12.47-8.39a46.36,46.36,0,0,1-7.38-7c-3-3.51-5.61-7.35-8.41-11-1.36-1.8-2.73-2.75-5.36-1.78-17.32,6.37-34.62,12.8-52.12,18.62-7.17,2.39-14.81,3.42-22.27,4.88s-15,2.76-22.45,4c-2.86.46-5.8.36-8.69.59-9.89.82-19.76,2.06-29.66,2.41-16.2.58-31.59-3.5-46.47-9.62a26.51,26.51,0,0,1-5.5-3.56c-6.81-5.06-13.7-10-20.31-15.31-5.46-4.38-10.38-9.44-15.87-13.78a180.23,180.23,0,0,0-17.17-12.19c-8.38-5.17-17.24-9-27.51-8.82-10.47.12-20.95-.92-31.42-.76-11.78.18-23.56,1.92-35.3,1.55-11.36-.36-22.69-2.3-34-4-9.3-1.41-18.8-2.56-27.63-5.54a106.55,106.55,0,0,1-24-12.15c-9.13-6-17.61-13-26.06-20-6.36-5.25-8.58-13-11.48-20.47-5.87-15-3.46-30.25-.43-45,2.86-13.89,4.62-27.65,4.14-41.75-.36-10.58-.33-21.21-1.47-31.71-.44-4-3-8.34-5.77-11.5-7.35-8.41-15.2-16.4-23.12-24.28-4.76-4.75-10.53-8.55-15-13.56-9.28-10.53-15.15-22.48-14.28-37.22.54-9.22-.09-18.4,6.25-26.26,7.43-9.2,14.8-18.47,21.63-28.12a108,108,0,0,0,10.95-19.21c4.3-9.89,10.29-17.72,19.41-23.85,8.83-5.94,16.25-13.94,24.89-20.2a137.52,137.52,0,0,1,23.21-13.7c12.23-5.58,25.14-9.68,37.43-15.16,11-4.92,16.7-14.48,19.06-26a8.11,8.11,0,0,0-1.13-5.36c-4.19-6.84-8.92-13.36-12.93-20.3a73.64,73.64,0,0,1-7.14-15.72c-1.76-6,.08-11,5.48-15.35,14-11.18,30-16.35,47.44-18.58,8.8-1.12,17.37-4,26.12-5.61,9-1.7,18.1-3.16,27.21-4.27,12-1.46,24.12-2.65,36.21-3.64,13-1.07,26-1.57,38.95-2.7,14.13-1.23,28.2-3.19,42.34-4.31,11.64-.92,23.35-1.41,35-1.46,10.23,0,20.49.44,30.67,1.32,13.32,1.16,26.68,2.4,39.85,4.6,12,2,23.72,5.5,35.62,8,7.76,1.66,15.62,2.81,23.44,4.18,6.4,1.12,12.77,2.39,19.2,3.31,7.16,1,14.35,2.15,21.55,2.46,10.11.44,20.25.22,30.38.19,8.64,0,17.27-.25,25.91-.24,12.41,0,24.87-.39,37.23.43,8.05.54,16,2.76,23.93,4.56,9,2.07,18.15,3.94,26.87,7,7.55,2.61,15.57,4.69,20.85,11.93,3.12,4.3,7.75,7.47,11.3,11.51,7.47,8.49,10.5,19.32,15,29.38,7.84,17.41,6.4,35.62,5.51,53.88s-1.68,36.24-2,54.37c-.14,8.57-2.5,16.64-3.71,24.93a109.67,109.67,0,0,0-.34,30.65c1.51,10.85,5,21.56,8.68,31.94s9,20.47,13.4,30.74c4.76,11.06,9.85,22,13.84,33.37a249.87,249.87,0,0,1,12.07,51,37.12,37.12,0,0,0,1.41,5.41c3.27,11.2,1.65,22.28-.29,33.48-2.36,13.61-7.07,26.39-12.63,38.9-4.47,10-8.53,20.39-14.25,29.69s-13,17.23-23.33,21.87a40.09,40.09,0,0,0-8.58,5.24c-12.42,10-26.38,13.14-42.2,11.72-18.84-1.68-36.29-8.72-54.58-12.33a157.43,157.43,0,0,0-24.72-3.08c-14.34-.49-28.7-.13-43.05-.13a21,21,0,0,0-2.63,0c-4.47.54-6.5,3.41-5.41,7.69s1.7,8.56,3.42,12.46c3.28,7.45,6.62,15,11,21.82,6.13,9.59,12.18,19.62,20.17,27.53,9,9,19.82,16.32,30.53,23.34,9.44,6.19,19.82,11,29.83,16.29,2.25,1.2,4.76,1.91,7,3.07a27.78,27.78,0,0,1,3.82,2.81Z"/></svg>