<svg id="Layer_1" data-name="Layer 1" xmlns="http://www.w3.org/2000/svg" viewBox="0 0 776 755.64"><path d="M681.93,380.71c-1.35,11.79-2.68,26-4.7,40.17C675.64,432,673.61,443.11,671,454a86.31,86.31,0,0,1-7.06,18.53c-5.33,10.53-10.5,21.31-17.25,30.92-7.64,10.86-16.9,20.58-25.54,30.72-5.88,6.9-11.46,14.15-18,20.38C592.7,564.53,582.64,575,570,582.41c-7.38,4.36-13.64,10.61-21,14.94-7.21,4.23-15.11,7.35-22.88,10.55-20,8.21-39.83,16.66-60.08,24.08-11.76,4.31-24.15,6.91-36.31,10.09-7.21,1.88-14.45,4.23-21.81,4.91-14.65,1.34-29.06,3.52-44.17,1.5-26.07-3.47-51.8-8.1-76.93-15.59-11.84-3.53-23-9.48-34.56-13.88-14.9-5.63-29.28-12.17-42.66-20.91-9.79-6.4-20.51-11.54-29.65-18.72A208,208,0,0,1,152.17,553a369.91,369.91,0,0,1-26.86-35.14c-6.51-9.49-11.87-19.79-17.36-29.94A208.85,208.85,0,0,1,96.6,464.35,280.05,280.05,0,0,1,87,434.55c-3.41-12.92-6.39-26-8.89-39.1-1.66-8.68-2.26-17.56-3.13-26.37-1.14-11.58-3-23.19-2.85-34.77.15-12.62,2.2-25.21,3.46-37.81.73-7.35,1.28-14.74,2.32-22.05,1.66-11.65,3-23.43,5.69-34.85A301.55,301.55,0,0,1,95,203.35c2.16-5.68,6.33-10.66,10-15.7,7-9.78,14-19.66,21.61-29,5.2-6.32,11.48-11.77,17.35-17.53,6.3-6.17,12.48-12.48,19.12-18.25a113.18,113.18,0,0,1,14.51-10.29c9.9-6.18,19.56-13,30.08-17.85a160.22,160.22,0,0,1,32-10.62c17.33-3.91,34.91-6.87,52.48-9.59,14.93-2.31,30-4.62,45-5.34,28.7-1.37,57.46-1.94,86.2-2.07,7.12,0,14.42,2.29,21.32,4.52,15.06,4.87,30.08,9.93,44.78,15.76,12.78,5.06,25.17,11.15,37.59,17.07,7.54,3.6,15.28,7.07,22.13,11.78,10.38,7.15,20,15.46,30.07,23,10.54,7.88,18.43,17.92,25.81,28.71,8.5,12.45,18.2,24.08,27.13,36.24,11.87,16.18,18.46,34.88,25,53.58,4.16,11.91,8.95,23.61,12.88,35.6,6,18.3,7.8,37.35,9.18,56.46C679.93,359.32,680.88,368.74,681.93,380.71ZM352.33,122.62c-11,1-25.09,2.39-39.19,3.61-4.8.42-10.06-.71-14.36.89-12.21,4.55-24.15,9.88-35.94,15.44-6.74,3.18-13,7.45-19.47,11.12-2.45,1.38-5.35,2.09-7.53,3.77-4.57,3.52-8.62,7.71-13.2,11.22-14.65,11.22-28.75,23-40.18,37.64-5.7,7.33-12.67,13.77-17.68,21.51-4.11,6.34-6.7,13.85-9,21.15-3.73,11.83-7.09,23.81-9.83,35.91-2.08,9.24-3,18.75-4.35,28.15-1.95,13.27-4.39,26.49-5.64,39.82-1.81,19.3,1.42,38,8.54,56.08,6.52,16.52,10.61,34.06,20.25,49.28,4.18,6.61,8.35,13.32,13.26,19.39,4.57,5.65,10,10.66,15.28,15.7,9.74,9.26,19.45,18.57,29.57,27.4a214.07,214.07,0,0,0,23.82,18.59c9.78,6.34,18,15.16,29.82,18.44,8.11,2.24,15.81,5.88,23.87,8.36,8.58,2.64,17.31,4.83,26.06,6.88,11,2.58,22,5.6,33.13,7,10.8,1.35,21.83,1.14,32.76,1.12a176.53,176.53,0,0,0,38.4-4.42c13-2.9,25.67-6.26,37.63-12.17,4.36-2.16,8.61-5.1,13.25-6,11.41-2.35,22.16-6.39,31.17-13.43,15.09-11.79,30.87-23,43.56-37.47,8.74-10,16.84-20.61,24.68-31.35,7.58-10.37,14.62-21.15,21.59-31.94,3.53-5.45,7.11-11.07,9.36-17.1,2-5.43,2.66-11.49,3.24-17.33,1.52-15.54,3-31.1,3.87-46.68.42-7.22-.33-14.53-.91-21.77-.84-10.64-.85-21.52-3.29-31.81-3.52-14.81-8.85-29.19-13.53-43.71-1.88-5.84-3.89-11.65-6.17-17.35-2.07-5.2-3.8-10.81-7.08-15.2-7.36-9.86-15.28-19.35-23.56-28.46-7.07-7.77-14.82-15-22.54-22.12-4.62-4.29-9.27-8.92-14.75-11.82-9-4.78-18.64-8.44-28.14-12.27-6.88-2.78-14-5-20.94-7.6-7.22-2.69-14.28-5.8-21.58-8.23-8.21-2.73-16.79-4.39-24.86-7.43C419,130.56,406,126.67,392.53,125,380.27,123.53,367.83,123.48,352.33,122.62Z"/></svg>