<svg id="Layer_1" data-name="Layer 1" xmlns="http://www.w3.org/2000/svg" viewBox="0 0 934.73 792"><path d="M183.92,703.68l42.09-108c-3.76-1.16-6.5-2.45-9.35-2.8-15.12-1.84-30.28-3.37-45.4-5.15-12-1.41-20.8-7.85-26.95-18a11.72,11.72,0,0,1-1.92-6.08c.32-10.12,1-20.23,1.54-30.34.29-5.62.7-11.24.71-16.86q0-17.22-.34-34.44c-.2-9.78-1.1-19.56-.85-29.33.36-14.58,1.65-29.15,2.17-43.74.76-20.93,1.14-41.88,1.75-62.82,1-33.59,1.74-67.18,3.11-100.76.78-19.19,2.07-38.39,4.09-57.48,1.86-17.54,7.82-34.23,15.08-50.12,3.19-7,9.5-13.22,15.8-17.89a113.38,113.38,0,0,1,26.8-14.81,88.46,88.46,0,0,1,27.58-5.53c41-1.52,81.82,2.08,122.69,4.43,36.38,2.1,72.76,4.5,109.16,6.21,43.24,2,86.25,6.06,129.18,11.66,58.89,7.68,117.81,15.12,177.24,17.69q42.38,1.81,84.63,6c8.92.89,16,7.52,19.26,16.24,6.37,17.14,9.91,34.87,9.37,53.33-.31,10.75.6,21.56,0,32.28-.72,13-2.46,25.93-3.72,38.89-.73,7.54-1.35,15.1-2.12,22.64-1,9.85-2.19,19.69-3.17,29.54-.7,6.91-1.12,13.85-1.78,20.77-1.61,16.95-3.3,33.89-4.94,50.83-1,10.85-1.88,21.73-3.14,32.55-1.44,12.43-3.36,24.8-4.83,37.22-.93,7.88-1.3,15.82-2.14,23.71q-1.69,16-3.74,32c-1.29,10-2.53,20-4.31,29.9-1.58,8.75-3.6,17.45-6,26-1.41,5.14-3.15,10.43-6,14.84-2.13,3.3-6,6-9.6,7.76-11.5,5.67-23,11.42-35,15.95a141.08,141.08,0,0,1-30,8c-10.18,1.44-20.68.63-31,.78-2.32,0-4.66,0-7-.14-14.33-.89-28.67-1.73-43-2.74-8.56-.6-17.09-1.46-25.64-2.21q-21.94-1.94-43.89-3.86c-5.08-.44-10.18-.73-15.27-1.17-15-1.3-30-2.34-44.91-4-24.45-2.77-48.92-5.51-73.26-9.13-18.9-2.81-37.57-7.14-56.41-10.38-8.51-1.46-17.17-2.09-25.79-2.73-14.6-1.08-29.2-2.14-43.82-2.67a140.26,140.26,0,0,0-22.9,1.13,26.3,26.3,0,0,0-11.33,4.51c-16.38,11.5-32.53,23.33-48.69,35.14-12,8.75-23.72,17.77-35.75,26.43q-25.38,18.27-51.06,36.12c-1.71,1.19-4.18,1.28-6.3,1.89Z"/></svg>