<svg id="Layer_1" data-name="Layer 1" xmlns="http://www.w3.org/2000/svg" viewBox="0 0 1069.56 792"><path d="M851.19,88.6c.35,6.88.8,14.58,1.15,22.28,3,67.41,5.42,134.86,9.36,202.22,2.63,45,.65,89.82-1,134.71q-1.93,54.42-3.84,108.85-1,28.74-2,57.49c0,1.29-.25,2.57-.31,3.09-11.15,0-22,.3-32.73,0-36.72-1.21-73.45-2.4-110.15-4.07-67.76-3.08-135.55-1.38-203.33-2-3.67,0-5.36,1.3-7,4.36q-30.33,58.14-60.87,116.17c-.88,1.66-1.77,3.31-2.65,4.94-3.74-1-5.32-3.24-6.36-6.63q-19.05-62-38.37-124c-.42-1.37-.89-2.73-1.67-5.1-59.91,6.46-120,4.66-180.63,1.18q-9.09-249.39-18.16-498.55Z"/></svg>