<svg id="Layer_1" data-name="Layer 1" xmlns="http://www.w3.org/2000/svg" viewBox="0 0 1008.4 792"><path d="M465.38,104.62c36,2.38,72.13,3.91,108.06,7.36,52.8,5.06,105.47,11.47,158.19,17.44a8.22,8.22,0,0,1,4.84,2.75q42.74,51.14,85.25,102.45a16.21,16.21,0,0,1,2.85,5.16c8.76,26.32,17.51,52.65,26,79a12.34,12.34,0,0,1-.46,7.95q-36.48,85.76-73.18,171.44a8.31,8.31,0,0,1-6.71,5.53q-105.84,22.37-211.68,44.82a8.87,8.87,0,0,0-6.65,5.09q-18,33.33-36.42,66.47a13.16,13.16,0,0,1-5.94,5.4q-82.2,34.71-164.48,69.19c-3.27,1.38-5.35,1.25-7.51-1.7a45.5,45.5,0,0,0-7.28-8.19c-6.43-5.33-6.8-11.6-5.55-19.45,4.42-27.74,8.12-55.6,11.82-83.45.26-1.93-1.21-4.66-2.72-6.18-45.67-45.87-91.23-91.88-137.44-137.22-8.63-8.47-12.08-16.8-12.18-28.87-.42-51.41-1.94-102.81-3.21-154.22-.08-3.44,1.06-5.44,3.69-7.43q69.87-52.84,139.67-105.74a32.15,32.15,0,0,1,11-5.22q61.51-16,123.14-31.51c2.23-.57,4.53-.89,6.79-1.32Zm104,44.9c-7.46,0-16.85-.84-26,.18-17.27,1.92-34.37,5.27-51.62,7.37C469.26,159.8,448,167,426.62,173.74c-8.22,2.61-16.1,6.29-24.26,9.16-15.9,5.58-32.05,10.46-47.75,16.55a122.79,122.79,0,0,0-24.56,13.05c-10.53,7.18-20.24,15.56-30.36,23.34-11.86,9.12-23.84,18.08-35.64,27.26-6.6,5.13-12.67,10.81-16.3,18.6-4.5,9.63-8.79,19.36-13.56,28.85-10.38,20.65-15.58,42.24-14,65.5,1,14.83,2.78,29,13.4,40.74A229.94,229.94,0,0,1,250,437.87c4.54,6.33,8.31,13.21,12.81,19.57a125.53,125.53,0,0,0,12.14,15c4.84,5,10.7,9,15.59,14,16.34,16.51,36.89,23.67,59.11,27.3,16.56,2.7,33.13,5.4,49.72,7.91,3.14.48,4.67,1.73,3.95,4.8-1.21,5.15-2.78,10.2-4,15.34C392.71,569.39,386,597,368.82,620.48c-3.26,4.47-7.36,8.3-11,12.52-.77.91-1.64,2.39-1.4,3.33a4.13,4.13,0,0,0,2.8,2.27,22.68,22.68,0,0,0,5.46,0c15-.73,27.89-8.41,41.57-13.29,8.34-3,16.88-5.93,24.19-11.74,12.66-10.07,25.36-20.13,34.41-33.65,11.23-16.78,21.67-34.11,32.26-51.32,1.75-2.86,3.63-4.33,7-4.47A128.06,128.06,0,0,0,522,522.6c11.43-2.12,22.68-5.22,34.13-7.23C576,511.89,594.65,504.9,612.94,497c20.11-8.71,39.9-18.21,59.59-27.85,17.76-8.7,35.51-17.48,45.9-35.92,4.1-7.28,10.57-13.3,14.16-20.76,7.39-15.33,14-31.07,20.1-47,6.77-17.83,11-36.27,9.17-55.63-.64-6.62-1.05-13.27-1.67-19.89-1.27-13.47-3.48-26.78-9-39.22-3.56-8-8.5-15.45-11.89-23.54-8.46-20.18-23.39-34.9-41-46.38-14.42-9.38-30.18-17-47.28-20.89-9.56-2.16-19.22-3.86-28.81-5.84C605.36,150.61,588.52,147.5,569.38,149.52Z"/></svg>