<svg xmlns="http://www.w3.org/2000/svg" viewBox="0 0 104.35 99.8"><g id="Layer_2" data-name="Layer 2"><g id="Layer_1-2" data-name="Layer 1"><path d="M104.35,56.93l-34.16,3.9c.55,2.42,1.06,4.7,1.59,7q3,12.66,6,25.32c.18.76,0,1.12-.79,1.39-4.84,1.67-9.67,3.4-14.51,5.09-1.12.4-1.21.25-1.4-.91-.35-2.14-.82-4.26-1.21-6.39-.22-1.16-.37-2.34-.57-3.5-.44-2.59-.9-5.17-1.33-7.76-.19-1.12-.31-2.26-.5-3.39-.25-1.49-.56-3-.81-4.45-.2-1.21-.34-2.42-.52-3.63s-.42-2.62-.67-4.13C46.45,75,39.58,86,31.7,96.32,25.23,92.79,19.25,88.74,15,82.47c7.41-9.33,14.82-18.68,22.35-28.18L0,42.53c1.72-5.81,3.37-11.38,5-17,3.33.72,6.5,1.39,9.67,2.09q13.71,3,27.4,6c1.35.29,1.41.23,1.42-1.14q.09-15.48.17-31V0L65.79,2.25c-.23,2.13-.44,4.18-.68,6.21-.41,3.58-.84,7.16-1.27,10.73q-.65,5.6-1.3,11.19-.59,5-1.16,10c-.1.86.34,1.26,1.2,1.19l8.87-.78c2.88-.26,5.75-.55,8.63-.82l11-1c2.09-.19,4.19-.34,6.28-.55a1,1,0,0,1,1.2.79C100.44,45,102.37,50.85,104.35,56.93Z"/></g></g></svg>