<svg id="Layer_1" data-name="Layer 1" xmlns="http://www.w3.org/2000/svg" viewBox="0 0 740.71 792"><path d="M480.38,378.73l132.3,249.54-.67,1.24c-3-.86-6.41-1.11-9-2.66-38.9-23.06-78.23-45.47-116.37-69.73-35.07-22.29-68.85-46.62-103.19-70.06l-36.86-25.15-48.23,35.62q-56.8,42-113.56,84c-3.13,2.32-6,3.35-9.84.27q41.55-88.38,83.41-177.36c-5.31-3.8-10.42-7.86-15.91-11.33Q169.5,347,96.45,301c-3-1.91-7.32-2.66-7.09-8,5.31-.57,10.85-1.3,16.42-1.74,25.83-2.09,51.67-4.05,77.5-6.13q36-2.92,72-6c14.77-1.26,29.54-2.69,44.31-3.93,5.93-.5,11.87-.93,17.81-1,3.94,0,4.88-2.6,6.05-5.46q36.78-90.21,73.63-180.41c.61-1.48,1.29-2.94,1.93-4.41l1.38,0c1.16,6.2,2.4,12.38,3.47,18.6,4.23,24.39,8.29,48.81,12.62,73.19,6.16,34.69,12.5,69.35,18.77,104,.12.63.28,1.26.64,2.9,65.81-11.33,131.34-24,197.92-30.31,1.5,4.25-.39,6.7-3.6,9.2Q558,317.78,485.91,374.3C484.21,375.62,482.55,377,480.38,378.73Z"/></svg>