<svg id="Layer_1" data-name="Layer 1" xmlns="http://www.w3.org/2000/svg" viewBox="0 0 740.71 792"><path d="M608.07,674.1c-15.52,0-30.84-.1-46.15,0-93.69.76-187.38,1.14-281.06,2.51-66.11,1-132.12-1.32-198.16-3.39l-32.09-1c-.93,0-1.86,0-2.78-.08-5.73-.69-6.77-2-6.33-7.67q6.09-79,12.19-158c2.18-28.18,5-56.32,6.47-84.54,1.07-19.89.41-39.88.61-59.83.47-47.16.78-94.33,1.61-141.48.29-16.09,1.92-32.16,3-49.33,6.17,0,12.22.16,18.25,0q83-2.47,166-5,107.58-3.36,215.15-6.81,67.95-2.13,135.91-4.23a7.41,7.41,0,0,1,6.21,2.5q50.3,53,100.76,105.81a5.6,5.6,0,0,1,1.51,6q-50,200.22-99.9,400.45C609,671.09,608.63,672.21,608.07,674.1ZM296.39,628c.25.35.51.69.77,1,7-.76,14.54-.12,20.85-2.6A122.21,122.21,0,0,0,343.78,612c7.2-5.14,13.08-12.07,19.84-17.87,6.06-5.21,12.51-9.67,21.35-8.33,6.51,1,13.1,1.58,19.68,2,11.72.71,23.46,1.65,35.19,1.57,12.42-.09,24.82-1.45,37.25-1.9,8.61-.3,17.13-.81,25.46-3.27,5.19-1.53,10.63-2.37,15.63-4.35,4.21-1.68,7.78-4.91,11.93-6.82,19.16-8.85,32.88-23.25,43.1-41.36a63.64,63.64,0,0,0,8.3-25.81c1.47-16.82,2.2-33.7,3.34-50.54.88-12.9,2.94-25.42,7.94-37.61,6.05-14.76,10.72-30.07,9.62-46.47-.5-7.58-.3-15.23-1-22.79a126.55,126.55,0,0,0-3-16.8c-1.4-6.12-3.57-12.08-4.77-18.23C592,304.57,588.39,297,581,291.73c-11-7.87-22.17-15.6-33.46-23.09a38.9,38.9,0,0,0-10.72-4.75c-15.46-4.43-31.32-5.6-47.34-5.61-16.38,0-32.76-.39-49.14-.46-9.63,0-19.29-.21-28.89.42-16,1.05-32,2.84-48.05,4-10.74.8-21.53.85-32.27,1.69-17.31,1.35-34.6,3-51.88,4.72a137.08,137.08,0,0,0-15.64,2.81c-4.24.94-8.34,3-12.59,3.3-6.67.47-11.74,4.23-16.91,7.41-3.95,2.42-6.75,6.72-10,10.2a53.85,53.85,0,0,0-5.31,5.81c-4.44,6.3-8.95,12.59-12.93,19.19-8,13.3-14.73,27.07-14.55,43.25.13,11.19,0,22.4-.7,33.56-.82,13.54,1.71,26.52,5.35,39.38,3.49,12.34,7,24.69,10.81,36.92a132.92,132.92,0,0,0,7.12,18.35q7.32,15.08,15.6,29.69c4.95,8.71,10,17.57,18.94,23,10.07,6.1,20.39,11.78,30.61,17.61,1.93,1.1,3.92,2.08,5.9,3.06,7.72,3.84,15.38,7.77,23.18,11.42,4.32,2,6.48,5.55,5.48,10.2-.74,3.42-1.41,6.86-2.36,10.22-2.68,9.42-4.58,19.14-11.08,27C298.52,623.06,297.62,625.67,296.39,628Z"/></svg>