<svg id="Layer_1" data-name="Layer 1" xmlns="http://www.w3.org/2000/svg" viewBox="0 0 915.03 792"><path d="M212.93,549.47c-1.37-13.74-2.72-26.78-4-39.83-2.15-22.31-4.39-44.61-6.3-66.94-.88-10.26-1.27-20.58-1.51-30.88q-2-82.05-3.75-164.11c-.17-7.81-.13-15.64-.55-23.44-.24-4.31,1.65-5.54,5.54-5.53,14.15,0,28.29-.05,42.44-.07,55.76-.11,111.53.58,167.27-.51,72.54-1.41,145.05-4.26,217.58-6.47q45.17-1.37,90.33-2.6c1.14,0,2.28.13,3.86.23,1.16,11,2.32,21.85,3.44,32.72,3.89,37.87,8.43,75.69,11.29,113.63.91,12.1,5.5,16.63,16.57,19.68,22.24,6.11,44,13.92,67,21.36-1.83,1.48-3.07,2.6-4.42,3.58-19.11,13.88-38.28,27.68-57.33,41.63-6.62,4.84-13,9.94-19.37,15.15-1,.84-1.36,2.87-1.47,4.4q-3.24,42.52-6.35,85.06c-.18,2.3-.5,4.59-.78,7.18C559.16,558.52,386.25,550.68,212.93,549.47Z"/></svg>