<svg id="Layer_1" data-name="Layer 1" xmlns="http://www.w3.org/2000/svg" viewBox="0 0 869.77 792"><path d="M831.52,624.05c-5.26,1.63-10.44,3.7-15.81,4.79-11,2.24-22,5.54-33,5.58-35.39.12-68.83-7.94-98.85-27.65-4-2.65-8.5-4.69-12.28-7.63-6.76-5.26-14.2-5.62-22.13-4.33-18.27,3-36.52,6.13-54.85,8.72-16.95,2.39-34,4.06-51,6.18-14.25,1.77-28.48,3.78-42.73,5.57-6.56.83-13.15,1.44-19.73,2q-14.33,1.28-28.66,2.36-24,1.88-48,3.67c-.83.07-1.66.19-2.49.21-26,.67-52.07,2.27-78.07,1.68-21.8-.49-43.59-3.08-65.29-5.59-17.84-2.06-35.59-5.08-53.28-8.27-7.41-1.34-14.61-4.05-21.79-6.46C170.3,600.44,156.84,596.41,144,591c-13.91-5.92-27.35-13-40.72-20.12-7.26-3.85-14.06-8.6-20.83-13.3-13-9-21.93-21.54-29.67-35-3.86-6.72-7.88-13.41-11.12-20.43-8.6-18.64-14.65-37.93-17.27-58.51-2.9-22.78-2.43-45.35,2.74-67.46a141.88,141.88,0,0,1,14.66-36.51,524.27,524.27,0,0,1,33.37-51.88c6.4-8.77,15.77-15.35,23.77-23,14.11-13.39,32.14-20.66,48.19-31,19.87-12.83,41.56-22,62.92-31.83,8.11-3.73,16.62-6.62,24.61-10.57,12.07-6,25.22-8.12,38.14-9.88,28.29-3.85,56.83-5.87,85.18-9.33,13.16-1.61,26-5.78,39.17-7.13,19.13-2,37.55-6.8,56.13-11.17a77.3,77.3,0,0,1,17.28-1.53c25.14-.05,50.28-.19,75.4.41,11.39.28,22.74,2.19,34.11,3.38,9.88,1,19.76,2.2,29.65,3.1,25.46,2.3,50.53,6.29,74,17,7.38,3.34,14.65,6.95,22,10.46,12.18,5.87,24.46,11.53,36.47,17.72a224.56,224.56,0,0,1,22.7,13.4A245.6,245.6,0,0,1,785,233.3a54.66,54.66,0,0,1,8.32,9.12c6.44,8.54,13,17,18.84,26,7.65,11.75,15.58,23.47,21.65,36a95.13,95.13,0,0,1,9.28,39.66c.37,17.87-3.15,34.7-8.4,51.79-5.44,17.72-13.69,33.89-22.34,49.89-6,11-13.91,21.07-21.55,31.12-7.35,9.65-15.1,19-23.32,28-5,5.45-11.19,9.87-17,14.59-11,8.93-13.38,15.67-7,28.2s14.75,24,21.69,36.25c12,21.17,32.14,29.26,54.07,34.75,2.09.52,4.3.65,6.34,1.29a66.42,66.42,0,0,1,6.22,2.66C831.71,623.08,831.62,623.56,831.52,624.05Z"/></svg>