<svg id="Layer_1" data-name="Layer 1" xmlns="http://www.w3.org/2000/svg" viewBox="0 0 1008.4 792"><path d="M83.87,324.4c73.83-6.16,146-21.81,219.11-36.12L225.64,124c2.11,1.07,3.37,1.66,4.58,2.34,27,15.23,53.8,31,81.18,45.52,16.56,8.8,34.08,15.82,51.2,23.56q44.53,20.15,89.12,40.18c1.29.59,2.62,1.09,4.26,1.76,3.62-10.94,7.16-21.62,10.67-32.32q26.13-79.57,52.28-159.13A17.9,17.9,0,0,1,521,42.42a18.42,18.42,0,0,1,2.91,3.1c4.69,8.25,9.52,16.44,13.78,24.91,3.88,7.72,7.09,15.77,10.59,23.68,2.08,4.71,4.52,9.3,6.15,14.16,2.63,7.81,4.63,15.83,7.08,23.71,2.77,8.89,5.84,17.68,8.58,26.58,1.1,3.57,1.7,7.29,2.48,10.95,1.18,5.52,2.3,11.07,3.49,16.59.89,4.16,1.82,8.33,2.83,12.46,2,8,3.54,16.15,6.09,24,3.38,10.41,7.51,20.58,11.36,30.84,1.22,3.25,4.78,4.81,9.1,3.7,9.16-2.34,18.25-5,27.41-7.27,7.54-1.89,15.17-3.41,22.71-5.27,7.22-1.78,14.36-3.88,21.58-5.67,5.64-1.4,11.37-2.4,17-3.81,9.71-2.42,19.35-5.1,29.06-7.52,6.78-1.69,13.64-3.08,20.44-4.68,10.84-2.55,21.68-5.08,32.48-7.78,7.65-1.92,15.22-4.17,22.86-6.13,7.4-1.89,14.86-3.54,22.27-5.4,7.73-1.95,15.42-4.07,23.16-6a35,35,0,0,1,5.58-.43c-.38,1.39-.41,2.48-.94,3.22-5.09,7.12-10.14,14.27-15.5,21.18-1.74,2.26-4.53,3.67-6.53,5.76-1.52,1.59-2.3,3.89-3.84,5.46-9.18,9.37-18.2,18.92-27.81,27.83-11,10.24-22.7,19.83-34,29.81-5.06,4.47-9.86,9.22-14.81,13.81Q734.33,315.57,722,326.91c-8.24,7.58-16.59,15-24.76,22.69C690,356.37,683,363.34,675.9,370.24c-1.58,1.54-3.55,2.92-4.54,4.79-2.48,4.65-1,8.06,3.83,10.18,10.17,4.45,20.47,8.65,30.51,13.39,11.7,5.54,23.19,11.51,34.73,17.37,6.15,3.12,12.18,6.48,18.32,9.6,11.62,5.9,23.07,12.18,35,17.43s24.4,9.45,36.62,14.14a44.67,44.67,0,0,1,5.21,2.42,2,2,0,0,1,.72,1.57,1.79,1.79,0,0,1-1,1.3,16.94,16.94,0,0,1-4.14.85c-7.48.33-15,.59-22.45.82q-26.54.81-53.08,1.58c-8.74.27-17.48.45-26.21.81-17.95.73-35.9,1.59-53.86,2.3-9.68.39-19.39.32-29.06.92-7.9.49-15.79,1.51-23.63,2.63-2.47.36-3.77,1.4-1.88,4.8,2.53,4.53,3.5,9.92,5.28,14.89,2.74,7.67,5.49,15.34,8.42,22.94,3.7,9.65,7.68,19.2,11.37,28.86,3.8,9.93,7.32,20,11.12,29.89,2.44,6.39,5.37,12.59,7.72,19,2.88,7.87,5.22,15.95,8.11,23.82,1.71,4.68,4.19,9.07,6,13.7,2.32,5.83,4.29,11.8,6.53,17.66,2.39,6.22,4.92,12.4,7.4,18.59,4.86,12.12,9.9,24.16,14.53,36.36,3.3,8.69,6,17.6,9.09,26.38,1.51,4.35,3.31,8.6,4.75,13,.34,1-.27,2.32-.44,3.5-1-.49-2.33-.71-2.94-1.5-5.31-6.76-10.34-13.74-15.74-20.43-7.69-9.53-15.41-19.07-23.53-28.23-4.34-4.9-9.43-9.16-14.41-13.44-7.19-6.18-14.37-12.42-22-18.08-6.72-5-14.1-9.13-21-13.89-4.2-2.89-8.12-6.2-12.09-9.42-7.54-6.1-15.3-12-22.43-18.52-4.67-4.29-8.42-9.59-12.55-14.46q-6.94-8.21-13.84-16.45c-2.34-2.8-4.47-5.77-6.93-8.45-3.6-3.92-7.36-7.71-11.15-11.44-5.12-5-10.32-10-15.53-15-3.38-3.22-6.77-6.43-10.34-9.43-.55-.46-2.42-.11-3.12.5-5.6,4.9-11,10-16.59,14.94-3.58,3.2-7.2,6.36-10.94,9.37-4,3.19-8.2,6-12.11,9.29s-7.21,6.61-10.89,9.83c-5.93,5.2-11.85,10.42-17.92,15.45-9.86,8.19-19.73,16.38-29.79,24.32-13.1,10.34-26.54,20.25-39.55,30.7-10.31,8.28-21.6,15.43-29.91,26.09-3.77,4.84-8.32,9.07-12.65,13.44-1,1-2.46,1.4-4.52,2.51.67-7,1.05-13,1.84-18.84,1.11-8.33,2.34-16.66,3.85-24.93q3.17-17.34,6.85-34.57c2.2-10.18,4.15-20.47,7.33-30.36,4.32-13.45,9.8-26.53,14.62-39.83,6.84-18.91,14-37.75,14.07-58.31,0-6.3-1.82-7.54-7.94-5.42-4.74,1.64-9.72,2.57-14.55,4-7.06,2-14.07,4.23-21.13,6.27-8.16,2.37-16.42,4.41-24.5,7s-16.15,5.73-24.17,8.76c-8.42,3.17-16.73,6.63-25.17,9.74-9.27,3.42-18.65,6.52-27.95,9.87-3.6,1.3-7.05,3.05-10.66,4.32-5.19,1.82-10.47,3.39-16.54,5.33.49-1.91.57-3.43,1.23-4.62,5.65-10.25,11.25-20.54,17.2-30.62,4.4-7.46,9.14-14.75,14-21.9,3.39-4.95,7.29-9.55,11-14.27,8.35-10.56,16.87-21,25.07-31.67,5.69-7.39,11-15.08,16.48-22.71-34.59-14.89-69.54-29.42-104.06-44.92S116.6,344.15,83.87,324.4Z"/></svg>