<svg id="Layer_1" data-name="Layer 1" xmlns="http://www.w3.org/2000/svg" viewBox="0 0 869.77 792"><path d="M736.63,333.23c-1.62-.83-2.83-1.46-4.06-2.08Q608.64,269,484.66,206.81a6.88,6.88,0,0,1-4.29-5.95c-3-21.06-6.17-42.08-9.28-63.11-.16-1.05-.21-2.11-.37-3.74,1.37.77,2.35,1.3,3.32,1.86,36.51,21,72.79,42.36,109.61,62.78C606.92,211.56,631,223,654.7,235.15q82,42,164,84c.95.48,1.86,1,4.16,2.26a19.33,19.33,0,0,0-3.61,2.09C785.79,356,752.63,388.88,718.81,421c-17.29,16.42-35.7,31.67-53.73,47.32q-69.29,60.14-138.7,120.16c-1,.9-2.1,1.77-3.62,3-.41-5.59-.8-10.66-1.15-15.74-1-14.47-1.87-28.95-2.91-43.42a7.21,7.21,0,0,1,2.76-6.42q106.39-95.13,212.7-190.36C734.87,335,735.55,334.26,736.63,333.23Z"/><path d="M354.36,570.52C250.72,496.16,147.07,423.16,45.76,346.2q160.11-101.85,320.8-204.1c-.56,5.64-1,10.66-1.56,15.68-1.23,11.86-2.52,23.71-3.69,35.57-.3,3-1.24,5.11-4.14,6.86q-118.58,71.61-237,143.44c-1.1.67-2.19,1.36-3.66,2.27,1.19.86,2.16,1.59,3.16,2.28q115,79.33,230.1,158.6a6.5,6.5,0,0,1,3.18,6c.37,17.84.92,35.67,1.4,53.5C354.38,567.46,354.36,568.62,354.36,570.52Z"/></svg>