<svg id="Layer_1" data-name="Layer 1" xmlns="http://www.w3.org/2000/svg" viewBox="0 0 740.71 792"><path d="M502.59,116.4c4.86,16.21,3.51,32.1,2.27,48-2.69,34.82-5.15,69.67-7.72,104.51-1.16,15.92-2.34,31.84-3.57,48.52l165.34,41.57c-4.86,5.47-5.41,5.59-18.7,7.51a139.9,139.9,0,0,0-16,3.1c-45.91,12.25-91.76,24.7-137.69,36.84a7.94,7.94,0,0,0-6.14,6.62c-7.84,36.55-14.89,73.18-17.38,110.63-2.32,34.68-6.21,69.24-9.39,103.86-1.57,17.22-3.11,34.44-4.69,51.94-3.59-.16-5.51-1.84-7-5Q391.58,567.66,341.06,460.91c-.57-1.19-1.21-2.34-2.18-4.21L103.22,538.27l-1.46-.86c1.9-4,3.21-8.42,5.79-11.93C130,494.92,158.91,470.77,187,445.81q53.73-47.74,107.32-95.66c1.24-1.1,2.53-2.14,3.57-3-20.63-40.91-41.24-81.81-62.32-123.62,2.32.77,3.82,1.19,5.27,1.76q63.22,24.93,126.4,50c4.13,1.64,6.5,1.65,9.38-2.41,7.33-10.35,15.15-20.36,23.12-30.23,7.79-9.65,16.2-18.79,24-28.43q38.43-47.49,76.63-95.19C501,118.2,501.65,117.48,502.59,116.4Z"/></svg>