<svg id="Layer_1" data-name="Layer 1" xmlns="http://www.w3.org/2000/svg" viewBox="0 0 116.59 92.96"><path d="M102.07,52.53a5,5,0,0,1-1.3,1c-4,1.25-7.92,2.45-11.89,3.65-1.87.56-3.77,1-5.63,1.64a1.88,1.88,0,0,1-2.41-.63c-1.35-1.8-2.75-3.56-4.14-5.33-2-2.55-4-5.08-6-7.65-1.53-2-3-4-4.51-6.06S63.19,35,61.66,33s-2.9-3.79-4.34-5.69a1.17,1.17,0,0,1,.46-1.73c1.45-.47,2.92-.87,4.36-1.36,1.72-.57,3.4-1.24,5.11-1.81,2-.66,4-1.25,6-1.89a14.32,14.32,0,0,0,1.92-.73,1.25,1.25,0,0,1,1.73.4l5.37,6.67c2.39,3,4.82,6,7.18,9,2.49,3.17,5,6.36,7.35,9.61,1.51,2.06,2.82,4.25,4.25,6.37C101.22,52.05,101.56,52.18,102.07,52.53Z"/><path d="M51.87,70.19a9.41,9.41,0,0,1-1-.93c-2.27-2.71-4.5-5.45-6.76-8.16-3.24-3.89-6.46-7.78-9.73-11.64-1.77-2.1-3.6-4.15-5.43-6.19s-3.73-4.09-5.61-6.13c-.73-.79-.71-1,.35-1.32,2.76-.9,5.54-1.76,8.31-2.65,3.12-1,6.27-1.9,9.32-3.07,1.64-.63,2.23.43,3,1.29s1.33,1.63,2,2.43c1.72,2,3.47,4.08,5.17,6.15s3.26,4.12,5,6.13c1.53,1.81,3.21,3.49,4.74,5.3,1.67,2,3.22,4.1,4.87,6.11,1.2,1.46,2.5,2.83,3.7,4.29a1.79,1.79,0,0,1,.41,1.2c0,.18-.59.35-.92.49L63,65.91l-8.39,3.22Z"/></svg>