<svg id="Layer_1" data-name="Layer 1" xmlns="http://www.w3.org/2000/svg" viewBox="0 0 309.67 344.39"><path d="M62.45,149a77.76,77.76,0,0,1,1.43-14.27c1.2-6.75,2.35-13.5,3.41-20.27q1.09-7.1,1.87-14.22A24.4,24.4,0,0,0,67.92,89c-1.4-3.72-3-7.37-4.59-11s-3.49-7.43-5.14-11.18c-2-4.44-4-8.86-5.66-13.4a46.14,46.14,0,0,1-2.81-9.74,5.55,5.55,0,0,1,2.85-6C56,35.51,59.4,33.45,62.85,31.4c2.75-1.64,5.5-3.28,8.33-4.77,4-2.1,8.07-4.06,12.11-6.08,3.47-1.73,6.87-3.62,10.43-5.14a53,53,0,0,1,9.6-3.19c2.24-.48,4.66-1,7-.1a11.56,11.56,0,0,1,3.94,2.56,32,32,0,0,1,5.45,7.43c3.1,5.4,6.16,10.83,9.26,16.23,1.84,3.2,3.75,6.36,5.6,9.56.8,1.36,1.48,2.78,2.3,4.13a11,11,0,0,0,5,4.35c3.13,1.42,6.17,3,9.29,4.45,5.09,2.36,10.26,4.53,15.29,7,5.56,2.71,11,5.64,16.48,8.52,2.83,1.49,5.64,3,8.42,4.62C193.31,82,195,83.4,197,84.29c2.93,1.33,4.93,3.7,7.1,5.88s2.21,4.66,1.43,7.33a14.9,14.9,0,0,1-2.54,4.61,46.85,46.85,0,0,1-6.25,6.49,79.86,79.86,0,0,1-6.76,5.21c-7.44,5.5-16,9-24.13,13.21-8.87,4.53-17.71,9.17-26.77,13.3-16.68,7.61-33.5,14.91-50.31,22.25-2.92,1.27-6.11,1.92-9.07,3.11a17.71,17.71,0,0,1-7.51,1.14c-3.54-.12-5.86-2-7.53-4.91a17.2,17.2,0,0,1-2.2-9.33C62.48,151.37,62.45,150.16,62.45,149Z"/><path d="M247.71,227.77a46.86,46.86,0,0,0-.94-10.73c-.78-4.31-1.74-8.65-1.33-13.1a39.44,39.44,0,0,1,2.2-10.13,11.17,11.17,0,0,1,5.81-6.12c1.61-.81,3.12-.25,4.45.7a8.65,8.65,0,0,1,3.22,4.12,33.6,33.6,0,0,1,2.26,10.35,43.38,43.38,0,0,0,.92,5.49,16.49,16.49,0,0,1,.32,2.22c.19,4,.58,7.92.45,11.87a38.66,38.66,0,0,1-1.92,11.45c-1,2.87-1.59,5.89-2.78,8.67a111.53,111.53,0,0,1-5.44,11,121.38,121.38,0,0,1-7.87,12.64c-2.94,4-6.05,7.88-10.11,10.89-2.26,1.67-4.16,3.82-6.36,5.58a50.41,50.41,0,0,1-11.9,6.84c-3.81,1.62-7.43,3.7-11.29,5.15-4.88,1.83-9.67,3.93-14.89,4.82-3.92.67-7.72,2-11.6,2.88-2.49.59-5,1-7.53,1.47-3,.58-6,1.18-9.09,1.7-5.6.95-11.23,1.88-16.94,1-4.48-.65-9.66-4.87-10-9.73a4,4,0,0,1,1.27-3.33,10.45,10.45,0,0,1,7.69-3c2.82.06,5.63.3,8.44.44,3.87.19,7.74.44,11.62.53a85.77,85.77,0,0,0,10.27-.11,77,77,0,0,0,17.86-3.74c4.13-1.44,8.23-3,12.39-4.35a36.91,36.91,0,0,0,9.12-4.11A56,56,0,0,0,227.25,270c1.32-1.48,3-2.66,4.29-4.16,2.14-2.51,4.2-5.11,6.13-7.79a50.43,50.43,0,0,0,8.38-16.75A42.5,42.5,0,0,0,247.71,227.77Z"/><path d="M223.52,197.09a64,64,0,0,1-.06,6.79,21,21,0,0,1-1.43,4.45,99.47,99.47,0,0,1-7.92,17.15c-2.46,4.18-5.28,8.16-8.11,12.11a12.67,12.67,0,0,1-3.48,3c-3.56,2.31-7.14,4.61-10.85,6.68a51.24,51.24,0,0,1-7.61,3.38c-3.78,1.37-7.56,3-11.48,3.6a84.52,84.52,0,0,1-14.76.54c-4.31-.11-8.61-.74-12.9-1.28a53.14,53.14,0,0,1-6-1.28,73.47,73.47,0,0,1-8.59-2.32c-2.63-1-3.84-2.58-2.92-5.2a5,5,0,0,0,.31-1.31c.28-3.27,3.45-5,5.8-5.69,3.09-.84,6.17-.53,9.28-.25,2.53.23,5.08.12,7.61.31a47.8,47.8,0,0,0,12.13-.26c1.93-.34,3.83-.84,5.76-1.14,7.86-1.24,14-5.87,20.19-10.33,3.35-2.41,5.58-5.85,7.42-9.53,1.34-2.66,2.94-5.17,4.22-7.85A33,33,0,0,0,203,193.76c-.06-4.48-.07-9,1.38-13.31,1.06-3.16,2.62-6.19,5.62-7.95a6.62,6.62,0,0,1,7.56.85c3.23,2.81,4.62,6.4,5.07,10.48.49,4.41.94,8.82,1.41,13.23Z"/><path d="M138.5,189.7l8,.62a24.08,24.08,0,0,0,14.46-3.44,29.88,29.88,0,0,0,6.12-5.29,3,3,0,0,0,.56-.84c.8-1.74,1.5-3.53,2.37-5.23,1.58-3.06,1.76-6.44,2.38-9.71.1-.52.23-1,.32-1.55.55-3.4,2.85-4.94,5.94-5.64,2.66-.61,6.36,1.24,7.56,4.09,2.78,6.65,3.42,13.41.19,20.11a39.88,39.88,0,0,1-3.84,6.57,31,31,0,0,1-4.39,4.16,20.91,20.91,0,0,1-2.81,2.26c-2.22,1.4-4.52,2.68-6.79,4-1.33.77-2.63,1.62-4,2.28-3.59,1.72-7.5,2.24-11.39,2.59a31.17,31.17,0,0,1-8.3,0,88.91,88.91,0,0,1-11.64-3.14c-3.65-1.18-5.35-3.66-5.33-7.11,0-1.84.66-3,2.4-3.53a24.63,24.63,0,0,1,4.6-1,28.94,28.94,0,0,1,3.61,0Z"/></svg>